# Blender 5.2.2 LTS
# www.blender.org
mtllib apex_fang.mtl
o Cone
v -0.301974 -1.286703 -0.328586
v 0.038504 -1.286703 -0.197982
v 0.248407 -1.286703 0.132720
v 0.234716 -1.286703 0.508779
v -0.212744 -1.286703 0.754235
v -0.514515 -1.286703 0.754235
v -0.734073 -1.286703 0.508779
v -0.778666 -1.286703 0.132720
v -0.587363 -1.286703 -0.197982
v 0.016607 1.455834 0.241568
v -0.238601 -1.286703 -0.302465
v -0.172506 -1.286703 -0.276344
v -0.103646 -1.286703 -0.250223
v -0.032957 -1.286703 -0.224103
v -0.153325 -0.746939 -0.216937
v -0.039115 -0.207175 -0.105289
v 0.030875 0.431473 0.021535
v 0.031574 0.976348 0.137282
v 0.044264 0.976259 0.163410
v 0.079870 0.430753 0.073785
v 0.092982 -0.207175 -0.026926
v 0.144605 -0.746939 -0.112454
v 0.077857 -1.286703 -0.131842
v 0.119328 -1.286703 -0.065701
v 0.163299 -1.286703 0.000439
v 0.206468 -1.286703 0.066579
v 0.052412 0.976259 0.229550
v 0.172960 0.430313 0.205911
v 0.231511 -0.207175 0.171495
v 0.294405 -0.746939 0.152107
v 0.252896 -1.286703 0.207932
v 0.293036 -1.286703 0.283144
v 0.275458 -1.286703 0.358356
v 0.256058 -1.286703 0.433567
v 0.052713 0.975594 0.304762
v 0.144126 0.427204 0.356349
v 0.302365 -0.207175 0.397131
v 0.311306 -0.746939 0.452955
v 0.125222 -1.286703 0.557871
v 0.030080 -1.286703 0.606962
v -0.054656 -1.286703 0.656053
v -0.135039 -1.286703 0.705144
v 0.050936 0.975256 0.353853
v 0.071405 0.426748 0.454357
v 0.125621 -0.207175 0.544404
v -0.143768 -0.746939 0.649320
v -0.300011 -1.286703 0.754235
v -0.383804 -1.286703 0.754235
v -0.448571 -1.286703 0.754235
v -0.492963 -1.286703 0.754235
v 0.017103 0.975747 0.353853
v -0.038111 0.428567 0.454332
v -0.230202 -0.207175 0.544404
v -0.404740 -0.746939 0.649320
v -0.563024 -1.286703 0.705144
v -0.603983 -1.286703 0.656053
v -0.634973 -1.286703 0.606962
v -0.683434 -1.286703 0.557871
v -0.012850 0.976259 0.304762
v -0.161307 0.430464 0.356124
v -0.341314 -0.207175 0.397131
v -0.561570 -0.746939 0.452955
v -0.739306 -1.286703 0.433567
v -0.746481 -1.286703 0.358356
v -0.755479 -1.286703 0.283144
v -0.766222 -1.286703 0.207932
v -0.024543 0.976259 0.229550
v -0.190109 0.430337 0.205796
v -0.350299 -0.207175 0.171495
v -0.574001 -0.746939 0.152107
v -0.740405 -1.286703 0.066579
v -0.702145 -1.286703 0.000439
v -0.663884 -1.286703 -0.065701
v -0.625624 -1.286703 -0.131842
v -0.006976 0.976535 0.163386
v -0.113376 0.432591 0.073700
v -0.221189 -0.207175 -0.026926
v -0.401626 -0.746939 -0.112454
v -0.515457 -1.286703 -0.224103
v -0.477815 -1.286703 -0.250223
v -0.428396 -1.286703 -0.276344
v -0.368331 -1.286703 -0.302465
v -0.235133 -0.746939 -0.190816
v -0.317133 -0.746939 -0.164696
v -0.091351 -0.207175 -0.079168
v -0.382723 -0.746939 -0.138575
v -0.149752 -0.207175 -0.053047
v -0.043355 0.431619 0.047606
v -0.442036 -0.746939 -0.046314
v -0.484183 -0.746939 0.019827
v -0.261183 -0.207175 0.039214
v -0.528135 -0.746939 0.085967
v -0.304290 -0.207175 0.105355
v -0.155457 0.430642 0.139790
v -0.567537 -0.746939 0.227319
v -0.563149 -0.746939 0.302531
v -0.340516 -0.207175 0.246707
v -0.561055 -0.746939 0.377743
v -0.336520 -0.207175 0.321919
v -0.175703 0.430465 0.280975
v -0.510994 -0.746939 0.502046
v -0.462641 -0.746939 0.551137
v -0.295389 -0.207175 0.446222
v -0.446538 -0.746939 0.600228
v -0.261402 -0.207175 0.495313
v -0.105798 0.430254 0.405279
v -0.377161 -0.746939 0.649320
v -0.310741 -0.746939 0.649320
v -0.139174 -0.207175 0.544404
v -0.231942 -0.746939 0.649320
v -0.024574 -0.207175 0.544404
v 0.044546 0.427436 0.454360
v -0.065630 -0.746939 0.600228
v 0.020788 -0.746939 0.551137
v 0.237147 -0.207175 0.495313
v 0.117549 -0.746939 0.502046
v 0.265885 -0.207175 0.446222
v 0.102184 0.426842 0.405393
v 0.328015 -0.746939 0.377743
v 0.297814 -0.746939 0.302531
v 0.288885 -0.207175 0.321919
v 0.285014 -0.746939 0.227319
v 0.251320 -0.207175 0.246707
v 0.156634 0.429879 0.281155
v 0.251103 -0.746939 0.085967
v 0.215036 -0.746939 0.019827
v 0.185131 -0.207175 0.105355
v 0.181139 -0.746939 -0.046314
v 0.137007 -0.207175 0.039214
v 0.117952 0.430306 0.139850
v 0.069246 -0.746939 -0.138575
v -0.005844 -0.746939 -0.164696
v 0.058377 -0.207175 -0.053047
v -0.078463 -0.746939 -0.190816
v 0.013376 -0.207175 -0.079168
v 0.039871 0.431187 0.047671
vn 0.3797 0.0860 -0.9211
vn 0.8561 -0.0876 -0.5094
vn 0.9948 -0.0826 -0.0594
vn 0.4088 0.0363 0.9119
vn -0.0000 0.1908 0.9816
vn -0.6847 0.2708 0.6766
vn -0.9485 0.3099 0.0660
vn -0.0000 -1.0000 -0.0000
vn -0.8180 0.3272 -0.4732
vn -0.3299 0.2574 -0.9082
vn -0.3515 0.2815 -0.8929
vn -0.3832 0.2768 -0.8812
vn -0.4501 0.2689 -0.8515
vn -0.5503 0.2610 -0.7931
vn -0.2935 0.2626 -0.9192
vn -0.2943 0.2529 -0.9217
vn -0.2938 0.2513 -0.9222
vn -0.2924 0.2678 -0.9180
vn -0.4279 0.2910 -0.8557
vn -0.4362 0.2210 -0.8723
vn -0.3583 0.2492 -0.8997
vn -0.3537 0.2934 -0.8882
vn -0.3894 0.3008 -0.8706
vn -0.3994 0.2072 -0.8930
vn -0.3238 0.2075 -0.9231
vn -0.3245 0.1969 -0.9251
vn -0.7776 0.2804 -0.5627
vn -0.7613 0.3418 -0.5509
vn -0.3292 0.2847 -0.9003
vn -0.3364 0.2014 -0.9199
vn -0.3396 0.2013 -0.9188
vn -0.3382 0.2171 -0.9157
vn -0.5476 0.2087 -0.8103
vn -0.5529 0.1606 -0.8176
vn -0.8099 0.3529 -0.4685
vn -0.8108 0.3501 -0.4690
vn -0.8125 0.3450 -0.4700
vn -0.8149 0.3374 -0.4714
vn -0.7996 0.3494 -0.4885
vn -0.8009 0.3453 -0.4893
vn -0.7920 0.3436 -0.5047
vn -0.7915 0.3451 -0.5044
vn -0.8029 0.3459 -0.4855
vn -0.8347 0.2201 -0.5048
vn -0.7846 0.3356 -0.5214
vn -0.7823 0.3431 -0.5199
vn -0.7868 0.3435 -0.5128
vn -0.8173 0.2195 -0.5327
vn -0.8260 0.2188 -0.5195
vn -0.8210 0.2456 -0.5155
vn -0.7771 0.3250 -0.5389
vn -0.7729 0.3396 -0.5360
vn -0.7722 0.3395 -0.5371
vn -0.7988 0.2306 -0.5557
vn -0.8630 0.2258 -0.4520
vn -0.8512 0.2775 -0.4456
vn -0.9324 0.2643 -0.2465
vn -0.9628 0.0890 -0.2553
vn -0.9258 0.3455 0.1532
vn -0.9316 0.3382 0.1331
vn -0.9373 0.3300 0.1121
vn -0.9429 0.3207 0.0899
vn -0.9363 0.3418 0.0805
vn -0.9219 0.3792 0.0792
vn -0.9412 0.3334 0.0549
vn -0.9211 0.3855 0.0537
vn -0.9167 0.3813 0.1192
vn -0.9638 0.2354 0.1254
vn -0.9457 0.3239 0.0263
vn -0.9221 0.3862 0.0257
vn -0.9215 0.3852 0.0490
vn -0.9676 0.2473 0.0514
vn -0.9543 0.2368 0.1825
vn -0.9434 0.2783 0.1803
vn -0.9497 0.3130 -0.0065
vn -0.9261 0.3772 -0.0063
vn -0.9238 0.3782 -0.0589
vn -0.9616 0.2675 -0.0613
vn -0.9506 0.2514 0.1821
vn -0.9446 0.2740 0.1809
vn -0.9495 0.2769 0.1476
vn -0.9849 0.0807 0.1531
vn -0.6673 0.2845 0.6883
vn -0.6816 0.2874 0.6729
vn -0.8042 0.3092 0.5076
vn -0.7374 0.2787 0.6153
vn -0.6677 0.2845 0.6879
vn -0.6557 0.3374 0.6755
vn -0.6824 0.2874 0.6721
vn -0.6709 0.3363 0.6608
vn -0.6866 0.3407 0.6423
vn -0.7084 0.2426 0.6628
vn -0.9077 0.2956 0.2978
vn -0.8863 0.3605 0.2907
vn -0.7722 0.3432 0.5346
vn -0.7915 0.2706 0.5480
vn -0.6434 0.2381 0.7276
vn -0.6425 0.2432 0.7266
vn -0.7312 0.2788 0.6226
vn -0.7136 0.3488 0.6076
vn -0.7853 0.3664 0.4991
vn -0.8012 0.3142 0.5092
vn -0.5643 0.2489 0.7872
vn -0.5712 0.2037 0.7952
vn -0.8287 0.2346 0.5081
vn -0.8469 0.1203 0.5180
vn -0.0000 0.1403 0.9901
vn -0.0000 0.1405 0.9901
vn 0.0016 0.1400 0.9901
vn 0.0021 0.1804 0.9836
vn -0.0000 0.1406 0.9901
vn 0.0037 0.1401 0.9901
vn 0.0047 0.1804 0.9836
vn 0.0026 0.1804 0.9836
vn 0.0033 0.2277 0.9737
vn 0.5317 0.0956 0.8415
vn 0.5187 0.0984 0.8493
vn 0.4989 0.0977 0.8611
vn 0.4563 0.0980 0.8844
vn 0.5295 0.0957 0.8429
vn 0.5293 -0.1004 0.8425
vn 0.4915 0.0995 0.8652
vn 0.4911 -0.1074 0.8645
vn 0.4024 -0.0480 0.9142
vn 0.3975 0.1623 0.9031
vn 0.4502 0.0995 0.8874
vn 0.4522 -0.0321 0.8913
vn 0.8280 -0.2818 0.4847
vn 0.8362 0.2474 0.4895
vn 0.8200 0.2477 0.5160
vn 0.8395 0.1281 0.5280
vn 0.2443 0.1032 0.9642
vn 0.2443 0.1038 0.9641
vn 0.7927 -0.1569 0.5891
vn 0.7807 0.2320 0.5802
vn 0.7385 0.2315 0.6333
vn 0.7463 0.1846 0.6396
vn 0.9947 0.0964 0.0367
vn 0.9961 0.0797 0.0366
vn 0.9564 -0.1076 0.2714
vn 0.9632 -0.1027 0.2484
vn 0.9736 -0.0168 0.2275
vn 0.8817 -0.0356 -0.4705
vn 0.9706 -0.1071 0.2156
vn 0.9755 0.0386 0.2167
vn 0.9252 -0.0767 -0.3715
vn 0.9276 0.0287 -0.3725
vn 0.9829 0.0530 -0.1762
vn 0.9584 0.2280 -0.1718
vn 0.9858 -0.0027 -0.1678
vn 0.9836 0.0674 -0.1674
vn 0.8942 0.0308 -0.4466
vn 0.8838 0.1552 -0.4414
vn 0.9631 0.2107 0.1677
vn 0.9698 0.1774 0.1676
vn 0.9903 -0.0634 0.1236
vn 0.9862 0.1105 0.1231
vn 0.9647 0.0693 -0.2541
vn 0.9620 0.1020 -0.2534
vn 0.9685 0.1325 0.2109
vn 0.9568 0.2022 0.2088
vn 0.9823 0.1872 -0.0023
vn 0.9972 0.0745 -0.0033
vn 0.8434 -0.0527 -0.5348
vn 0.8364 -0.0496 -0.5459
vn 0.8313 -0.0598 -0.5526
vn 0.8447 -0.0777 -0.5296
vn 0.8356 -0.0495 -0.5471
vn 0.8310 0.1164 -0.5440
vn 0.8760 -0.0668 -0.4777
vn 0.8712 0.1235 -0.4751
vn 0.8129 0.1198 -0.5700
vn 0.8142 0.1056 -0.5709
vn 0.8867 -0.0852 -0.4544
vn 0.8807 0.1435 -0.4514
vn 0.8010 0.1367 -0.5828
vn 0.8031 0.1163 -0.5844
vn 0.7634 0.1148 -0.6357
vn 0.7539 0.1937 -0.6278
vn 0.8717 -0.0905 -0.4815
vn 0.8643 0.1583 -0.4774
vn 0.8225 0.1540 -0.5475
vn 0.8279 0.1040 -0.5511
vn 0.8620 0.1041 -0.4962
vn 0.8586 0.1372 -0.4940
vn 0.9830 0.1379 -0.1211
vn 0.9896 0.0769 -0.1219
vn 0.3422 0.0811 -0.9361
vn 0.3454 0.0827 -0.9348
vn 0.3534 0.0836 -0.9317
vn 0.3663 0.0830 -0.9268
vn 0.3263 0.0874 -0.9412
vn 0.3223 0.1781 -0.9297
vn 0.3272 0.0898 -0.9407
vn 0.3246 0.1544 -0.9332
vn 0.5968 0.1373 -0.7906
vn 0.5968 0.1371 -0.7906
vn 0.3371 0.0898 -0.9372
vn 0.3353 0.1358 -0.9323
vn 0.4985 0.1183 -0.8588
vn 0.4964 0.1493 -0.8552
vn 0.5419 0.1463 -0.8276
vn 0.5400 0.1707 -0.8242
vn 0.3279 0.0971 -0.9397
vn 0.3269 0.1246 -0.9368
vn 0.4429 0.1087 -0.8900
vn 0.4419 0.1279 -0.8879
vn 0.9453 0.0254 -0.3251
vn 0.9436 0.0676 -0.3241
vn 0.8964 0.0852 -0.4350
vn 0.8930 0.1221 -0.4332
vt 0.250000 0.490000
vt 0.250000 0.442000
vt 0.280854 0.478770
vt 0.404269 0.433851
vt 0.373415 0.397081
vt 0.420686 0.405416
vt 0.486354 0.291676
vt 0.439083 0.283340
vt 0.480652 0.259340
vt 0.457846 0.130000
vt 0.416277 0.154000
vt 0.432694 0.108895
vt 0.332085 0.024474
vt 0.315668 0.069579
vt 0.299251 0.024474
vt 0.167915 0.024474
vt 0.184332 0.069579
vt 0.142763 0.045579
vt 0.042154 0.130000
vt 0.083723 0.154000
vt 0.036452 0.162335
vt 0.750000 0.490000
vt 0.780854 0.478770
vt 0.811708 0.467540
vt 0.842561 0.456310
vt 0.873415 0.445081
vt 0.904269 0.433851
vt 0.920686 0.405416
vt 0.937103 0.376981
vt 0.953520 0.348546
vt 0.969937 0.320111
vt 0.986354 0.291676
vt 0.980652 0.259340
vt 0.974951 0.227005
vt 0.969249 0.194670
vt 0.963548 0.162335
vt 0.957846 0.130000
vt 0.932694 0.108895
vt 0.907542 0.087790
vt 0.882389 0.066684
vt 0.857237 0.045579
vt 0.832085 0.024474
vt 0.799251 0.024474
vt 0.766417 0.024474
vt 0.733583 0.024474
vt 0.700749 0.024474
vt 0.667915 0.024474
vt 0.642763 0.045579
vt 0.617611 0.066684
vt 0.592458 0.087790
vt 0.567306 0.108895
vt 0.542154 0.130000
vt 0.536452 0.162335
vt 0.530751 0.194670
vt 0.525049 0.227005
vt 0.519348 0.259340
vt 0.513646 0.291676
vt 0.530063 0.320111
vt 0.546480 0.348546
vt 0.562897 0.376981
vt 0.579314 0.405416
vt 0.595731 0.433851
vt 0.626585 0.445081
vt 0.657439 0.456310
vt 0.688292 0.467540
vt 0.719146 0.478770
vt 0.013646 0.291676
vt 0.060917 0.283340
vt 0.030063 0.320111
vt 0.095731 0.433851
vt 0.126585 0.397081
vt 0.126585 0.445081
vt 0.219146 0.478770
vt 0.188292 0.467540
vt 0.219146 0.430770
vt 0.157439 0.456310
vt 0.188292 0.419540
vt 0.157439 0.408310
vt 0.250000 0.394000
vt 0.219146 0.382770
vt 0.250000 0.346000
vt 0.188292 0.371540
vt 0.219146 0.334770
vt 0.250000 0.298000
vt 0.157439 0.360310
vt 0.188292 0.323540
vt 0.219146 0.286770
vt 0.250000 0.250000
vt 0.079314 0.405416
vt 0.062897 0.376981
vt 0.110168 0.368645
vt 0.046480 0.348546
vt 0.093751 0.340210
vt 0.077334 0.311775
vt 0.141022 0.331875
vt 0.124605 0.303440
vt 0.171875 0.295105
vt 0.108188 0.275005
vt 0.155458 0.266670
vt 0.202729 0.258335
vt 0.019348 0.259340
vt 0.025049 0.227005
vt 0.066618 0.251005
vt 0.030751 0.194670
vt 0.072320 0.218670
vt 0.078022 0.186335
vt 0.113889 0.242670
vt 0.119591 0.210335
vt 0.161160 0.234335
vt 0.125292 0.178000
vt 0.166862 0.202000
vt 0.208431 0.226000
vt 0.067306 0.108895
vt 0.092458 0.087790
vt 0.108875 0.132895
vt 0.117611 0.066684
vt 0.134028 0.111790
vt 0.159180 0.090684
vt 0.150445 0.156895
vt 0.175597 0.135790
vt 0.192014 0.180895
vt 0.200749 0.114684
vt 0.217166 0.159790
vt 0.233583 0.204895
vt 0.200749 0.024474
vt 0.233583 0.024474
vt 0.217166 0.069579
vt 0.266417 0.024474
vt 0.250000 0.069579
vt 0.282834 0.069579
vt 0.233583 0.114684
vt 0.266417 0.114684
vt 0.250000 0.159790
vt 0.299251 0.114684
vt 0.282834 0.159790
vt 0.266417 0.204895
vt 0.357237 0.045579
vt 0.382389 0.066684
vt 0.340820 0.090684
vt 0.407542 0.087790
vt 0.365972 0.111790
vt 0.391125 0.132895
vt 0.324403 0.135789
vt 0.349555 0.156895
vt 0.307986 0.180895
vt 0.374708 0.178000
vt 0.333138 0.202000
vt 0.291569 0.226000
vt 0.463548 0.162335
vt 0.469249 0.194670
vt 0.421978 0.186335
vt 0.474951 0.227005
vt 0.427680 0.218670
vt 0.433382 0.251005
vt 0.380409 0.210335
vt 0.386111 0.242670
vt 0.338840 0.234335
vt 0.391812 0.275005
vt 0.344542 0.266670
vt 0.297271 0.258335
vt 0.469937 0.320111
vt 0.453520 0.348546
vt 0.422666 0.311775
vt 0.437103 0.376981
vt 0.406249 0.340210
vt 0.389832 0.368646
vt 0.375395 0.303440
vt 0.358978 0.331875
vt 0.328125 0.295105
vt 0.342561 0.360310
vt 0.311708 0.323540
vt 0.280854 0.286770
vt 0.373415 0.445081
vt 0.342561 0.456310
vt 0.342561 0.408310
vt 0.311708 0.467540
vt 0.311708 0.419540
vt 0.280854 0.430770
vt 0.311708 0.371540
vt 0.280854 0.382770
vt 0.280854 0.334770
vt 0.000000 0.000000
s 0
usemtl mat_apexfang
f 1/1/1 15/2/1 11/3/1
f 2/4/2 22/5/2 23/6/2
f 3/7/3 30/8/3 31/9/3
f 4/10/4 38/11/4 39/12/4
f 5/13/5 46/14/5 47/15/5
f 6/16/6 54/17/6 55/18/6
f 7/19/7 62/20/7 63/21/7
f 1/22/8 11/23/8 12/24/8 13/25/8 14/26/8 2/27/8 23/28/8 24/29/8 25/30/8 26/31/8 3/32/8 31/33/8 32/34/8 33/35/8 34/36/8 4/37/8 39/38/8 40/39/8 41/40/8 42/41/8 5/42/8 47/43/8 48/44/8 49/45/8 50/46/8 6/47/8 55/48/8 56/49/8 57/50/8 58/51/8 7/52/8 63/53/8 64/54/8 65/55/8 66/56/8 8/57/8 71/58/8 72/59/8 73/60/8 74/61/8 9/62/8 79/63/8 80/64/8 81/65/8 82/66/8
f 8/67/9 70/68/9 71/69/9
f 9/70/10 78/71/10 79/72/10
f 82/73/11 15/2/11 1/1/11
f 81/74/12 83/75/12 82/73/12
f 80/76/13 84/77/13 81/74/13
f 79/72/14 86/78/14 80/76/14
f 82/73/15 83/75/15 15/2/15
f 83/75/16 16/79/16 15/2/16
f 81/74/17 84/77/17 83/75/17
f 84/77/18 85/80/18 83/75/18
f 83/75/19 85/80/19 16/79/19
f 85/80/20 17/81/20 16/79/20
f 80/76/21 86/78/21 84/77/21
f 86/78/22 87/82/22 84/77/22
f 84/77/23 87/82/23 85/80/23
f 87/82/24 88/83/24 85/80/24
f 85/80/25 88/83/25 17/81/25
f 88/83/26 18/84/26 17/81/26
f 79/72/27 78/71/27 86/78/27
f 78/71/28 77/85/28 86/78/28
f 86/78/29 77/85/29 87/82/29
f 77/85/30 76/86/30 87/82/30
f 87/82/31 76/86/31 88/83/31
f 76/86/32 75/87/32 88/83/32
f 88/83/33 75/87/33 18/84/33
f 75/87/34 10/88/34 18/84/34
f 74/89/35 78/71/35 9/70/35
f 73/90/36 89/91/36 74/89/36
f 72/92/37 90/93/37 73/90/37
f 71/69/38 92/94/38 72/92/38
f 74/89/39 89/91/39 78/71/39
f 89/91/40 77/85/40 78/71/40
f 73/90/41 90/93/41 89/91/41
f 90/93/42 91/95/42 89/91/42
f 89/91/43 91/95/43 77/85/43
f 91/95/44 76/86/44 77/85/44
f 72/92/45 92/94/45 90/93/45
f 92/94/46 93/96/46 90/93/46
f 90/93/47 93/96/47 91/95/47
f 93/96/48 94/97/48 91/95/48
f 91/95/49 94/97/49 76/86/49
f 94/97/50 75/87/50 76/86/50
f 71/69/51 70/68/51 92/94/51
f 70/68/52 69/98/52 92/94/52
f 92/94/53 69/98/53 93/96/53
f 69/98/54 68/99/54 93/96/54
f 93/96/55 68/99/55 94/97/55
f 68/99/56 67/100/56 94/97/56
f 94/97/57 67/100/57 75/87/57
f 67/100/58 10/88/58 75/87/58
f 66/101/59 70/68/59 8/67/59
f 65/102/60 95/103/60 66/101/60
f 64/104/61 96/105/61 65/102/61
f 63/21/62 98/106/62 64/104/62
f 66/101/63 95/103/63 70/68/63
f 95/103/64 69/98/64 70/68/64
f 65/102/65 96/105/65 95/103/65
f 96/105/66 97/107/66 95/103/66
f 95/103/67 97/107/67 69/98/67
f 97/107/68 68/99/68 69/98/68
f 64/104/69 98/106/69 96/105/69
f 98/106/70 99/108/70 96/105/70
f 96/105/71 99/108/71 97/107/71
f 99/108/72 100/109/72 97/107/72
f 97/107/73 100/109/73 68/99/73
f 100/109/74 67/100/74 68/99/74
f 63/21/75 62/20/75 98/106/75
f 62/20/76 61/110/76 98/106/76
f 98/106/77 61/110/77 99/108/77
f 61/110/78 60/111/78 99/108/78
f 99/108/79 60/111/79 100/109/79
f 60/111/80 59/112/80 100/109/80
f 100/109/81 59/112/81 67/100/81
f 59/112/82 10/88/82 67/100/82
f 58/113/83 62/20/83 7/19/83
f 57/114/84 101/115/84 58/113/84
f 56/116/85 102/117/85 57/114/85
f 55/18/86 104/118/86 56/116/86
f 58/113/87 101/115/87 62/20/87
f 101/115/88 61/110/88 62/20/88
f 57/114/89 102/117/89 101/115/89
f 102/117/90 103/119/90 101/115/90
f 101/115/91 103/119/91 61/110/91
f 103/119/92 60/111/92 61/110/92
f 56/116/93 104/118/93 102/117/93
f 104/118/94 105/120/94 102/117/94
f 102/117/95 105/120/95 103/119/95
f 105/120/96 106/121/96 103/119/96
f 103/119/97 106/121/97 60/111/97
f 106/121/98 59/112/98 60/111/98
f 55/18/99 54/17/99 104/118/99
f 54/17/100 53/122/100 104/118/100
f 104/118/101 53/122/101 105/120/101
f 53/122/102 52/123/102 105/120/102
f 105/120/103 52/123/103 106/121/103
f 52/123/104 51/124/104 106/121/104
f 106/121/105 51/124/105 59/112/105
f 51/124/106 10/88/106 59/112/106
f 50/125/5 54/17/5 6/16/5
f 49/126/5 107/127/5 50/125/5
f 48/128/5 108/129/5 49/126/5
f 47/15/5 110/130/5 48/128/5
f 50/125/5 107/127/5 54/17/5
f 107/127/5 53/122/5 54/17/5
f 49/126/5 108/129/5 107/127/5
f 108/129/5 109/131/5 107/127/5
f 107/127/5 109/131/5 53/122/5
f 109/131/107 52/123/107 53/122/107
f 48/128/5 110/130/5 108/129/5
f 110/130/5 111/132/5 108/129/5
f 108/129/5 111/132/5 109/131/5
f 111/132/108 112/133/108 109/131/108
f 109/131/109 112/133/109 52/123/109
f 112/133/110 51/124/110 52/123/110
f 47/15/5 46/14/5 110/130/5
f 46/14/5 45/134/5 110/130/5
f 110/130/5 45/134/5 111/132/5
f 45/134/111 44/135/111 111/132/111
f 111/132/112 44/135/112 112/133/112
f 44/135/113 43/136/113 112/133/113
f 112/133/114 43/136/114 51/124/114
f 43/136/115 10/88/115 51/124/115
f 42/137/116 46/14/116 5/13/116
f 41/138/117 113/139/117 42/137/117
f 40/140/118 114/141/118 41/138/118
f 39/12/119 116/142/119 40/140/119
f 42/137/120 113/139/120 46/14/120
f 113/139/121 45/134/121 46/14/121
f 41/138/122 114/141/122 113/139/122
f 114/141/123 115/143/123 113/139/123
f 113/139/124 115/143/124 45/134/124
f 115/143/125 44/135/125 45/134/125
f 40/140/126 116/142/126 114/141/126
f 116/142/127 117/144/127 114/141/127
f 114/141/128 117/144/128 115/143/128
f 117/144/129 118/145/129 115/143/129
f 115/143/130 118/145/130 44/135/130
f 118/145/131 43/136/131 44/135/131
f 39/12/132 38/11/132 116/142/132
f 38/11/133 37/146/133 116/142/133
f 116/142/134 37/146/134 117/144/134
f 37/146/135 36/147/135 117/144/135
f 117/144/136 36/147/136 118/145/136
f 36/147/137 35/148/137 118/145/137
f 118/145/138 35/148/138 43/136/138
f 35/148/139 10/88/139 43/136/139
f 34/149/140 38/11/140 4/10/140
f 33/150/141 119/151/141 34/149/141
f 32/152/142 120/153/142 33/150/142
f 31/9/143 122/154/143 32/152/143
f 34/149/144 119/151/144 38/11/144
f 119/151/145 37/146/145 38/11/145
f 33/150/146 120/153/146 119/151/146
f 120/153/147 121/155/147 119/151/147
f 119/151/148 121/155/148 37/146/148
f 121/155/149 36/147/149 37/146/149
f 32/152/150 122/154/150 120/153/150
f 122/154/151 123/156/151 120/153/151
f 120/153/152 123/156/152 121/155/152
f 123/156/153 124/157/153 121/155/153
f 121/155/154 124/157/154 36/147/154
f 124/157/155 35/148/155 36/147/155
f 31/9/156 30/8/156 122/154/156
f 30/8/157 29/158/157 122/154/157
f 122/154/158 29/158/158 123/156/158
f 29/158/159 28/159/159 123/156/159
f 123/156/160 28/159/160 124/157/160
f 28/159/161 27/160/161 124/157/161
f 124/157/162 27/160/162 35/148/162
f 27/160/163 10/88/163 35/148/163
f 26/161/164 30/8/164 3/7/164
f 25/162/165 125/163/165 26/161/165
f 24/164/166 126/165/166 25/162/166
f 23/6/167 128/166/167 24/164/167
f 26/161/168 125/163/168 30/8/168
f 125/163/169 29/158/169 30/8/169
f 25/162/170 126/165/170 125/163/170
f 126/165/171 127/167/171 125/163/171
f 125/163/172 127/167/172 29/158/172
f 127/167/173 28/159/173 29/158/173
f 24/164/174 128/166/174 126/165/174
f 128/166/175 129/168/175 126/165/175
f 126/165/176 129/168/176 127/167/176
f 129/168/177 130/169/177 127/167/177
f 127/167/178 130/169/178 28/159/178
f 130/169/179 27/160/179 28/159/179
f 23/6/180 22/5/180 128/166/180
f 22/5/181 21/170/181 128/166/181
f 128/166/182 21/170/182 129/168/182
f 21/170/183 20/171/183 129/168/183
f 129/168/184 20/171/184 130/169/184
f 20/171/185 19/172/185 130/169/185
f 130/169/186 19/172/186 27/160/186
f 19/172/187 10/88/187 27/160/187
f 14/173/188 22/5/188 2/4/188
f 13/174/189 131/175/189 14/173/189
f 12/176/190 132/177/190 13/174/190
f 11/3/191 134/178/191 12/176/191
f 14/173/192 131/175/192 22/5/192
f 131/175/193 21/170/193 22/5/193
f 13/174/194 132/177/194 131/175/194
f 132/177/195 133/179/195 131/175/195
f 131/175/196 133/179/196 21/170/196
f 133/179/197 20/171/197 21/170/197
f 12/176/198 134/178/198 132/177/198
f 134/178/199 135/180/199 132/177/199
f 132/177/200 135/180/200 133/179/200
f 135/180/201 136/181/201 133/179/201
f 133/179/202 136/181/202 20/171/202
f 136/181/203 19/172/203 20/171/203
f 11/3/204 15/2/204 134/178/204
f 15/2/205 16/79/205 134/178/205
f 134/178/206 16/79/206 135/180/206
f 16/79/207 17/81/207 135/180/207
f 135/180/208 17/81/208 136/181/208
f 17/81/209 18/84/209 136/181/209
f 136/181/210 18/84/210 19/172/210
f 18/84/211 10/88/211 19/172/211
f 16/182/8 135/182/8 133/182/8 21/182/8 129/182/8 105/182/8 53/182/8 61/182/8 99/182/8 97/182/8 69/182/8 93/182/8 91/182/8 77/182/8 87/182/8 85/182/8
