# Blender 5.2.2 LTS
# www.blender.org
mtllib backblate.mtl
o Stegosaurus_BackPlate
v 0.221858 0.071032 -0.020385
v 0.213980 0.035516 -0.035013
v 0.200563 0.056605 -0.056810
v 0.207737 0.058662 -0.094630
v 0.237767 0.027059 -0.018474
v 0.239517 0.049038 -0.069660
v 0.243466 0.088022 -0.105568
v 0.234589 0.056721 -0.009540
v 0.244308 0.013784 -0.045954
v 0.272326 0.011928 -0.101757
v 0.251256 0.043091 -0.122495
v 0.262840 0.048162 -0.015905
v 0.265169 0.036148 -0.070368
v 0.235256 0.034407 -0.108006
v 0.117505 0.220570 -0.050738
v 0.146753 0.244350 -0.068186
v 0.141493 0.225170 -0.030747
v 0.178117 0.235259 -0.017970
v 0.148377 0.197002 -0.037200
v 0.139016 0.200306 -0.073355
v 0.167575 0.188502 -0.073980
v 0.183385 0.204549 -0.025182
v 0.161747 0.170559 -0.035605
v 0.174468 0.216954 -0.067552
v 0.188934 0.153048 -0.072008
v 0.172250 0.139180 -0.037707
v 0.173853 0.122801 -0.062576
v 0.162272 0.154678 -0.069013
v 0.206403 0.115192 -0.034494
v 0.220332 0.157725 -0.032261
v 0.206280 0.191661 -0.028323
v 0.196919 0.101098 -0.085604
v 0.205896 0.172623 -0.077660
v 0.209972 0.204524 -0.073654
v 0.188845 0.084203 -0.051383
v 0.229100 0.221100 -0.015664
v 0.203610 0.085025 -0.030016
v 0.222173 0.115799 -0.092575
v 0.230786 0.140189 -0.091109
v 0.217860 0.071309 -0.104829
v 0.237726 0.120268 -0.025441
v 0.250018 0.182087 -0.023285
v 0.235784 0.258209 -0.013081
v 0.255770 0.088673 -0.020333
v 0.266281 0.244008 -0.016447
v 0.271205 0.113887 -0.020007
v 0.278576 0.163545 -0.024084
v 0.239928 0.221354 -0.078103
v 0.247611 0.172366 -0.087500
v 0.274246 0.200697 -0.089791
v 0.267906 0.132809 -0.099800
v 0.053681 0.372023 -0.006262
v 0.057949 0.424605 -0.006255
v 0.075680 0.381768 -0.001826
v 0.028818 0.401142 -0.017496
v 0.052464 0.384810 -0.042572
v 0.035833 0.423864 -0.046872
v 0.090897 0.405885 -0.061133
v 0.056558 0.351928 -0.025525
v 0.084256 0.334439 -0.010312
v 0.084959 0.366256 -0.051404
v 0.079477 0.340089 -0.052599
v 0.009118 0.482091 -0.015741
v 0.002533 0.482960 -0.029874
v 0.005293 0.523601 -0.024173
v 0.005768 0.529391 -0.044160
v 0.009573 0.561739 -0.038210
v 0.018932 0.439338 -0.011749
v 0.010182 0.450546 -0.032125
v 0.049124 0.532498 -0.020054
v 0.047813 0.575776 -0.028788
v 0.030919 0.482248 -0.044180
v 0.029143 0.582596 -0.054601
v 0.053811 0.468433 -0.009319
v 0.036788 0.556688 -0.055971
v 0.063494 0.506445 -0.015601
v 0.042390 0.517492 -0.052881
v 0.060628 0.538941 -0.058728
v 0.063731 0.476050 -0.059010
v 0.083604 0.494765 -0.065620
v 0.081199 0.565517 -0.066474
v 0.091008 0.563738 -0.029895
v 0.088989 0.591585 -0.038331
v 0.067230 0.445282 -0.061272
v 0.099572 0.490915 -0.013888
v 0.109207 0.526975 -0.021996
v 0.031000 0.606146 -0.049027
v 0.049584 0.622012 -0.043763
v 0.061193 0.633691 -0.065350
v 0.068854 0.653859 -0.053036
v 0.066234 0.598934 -0.063526
v 0.074526 0.619561 -0.040446
v 0.095734 0.668488 -0.054045
v 0.093731 0.624753 -0.068996
v 0.111782 0.426758 -0.009331
v 0.127795 0.395761 -0.006591
v 0.151958 0.376514 -0.006164
v 0.195028 0.382180 -0.013271
v 0.208762 0.329703 -0.008942
v 0.099388 0.309838 -0.018162
v 0.107347 0.285668 -0.026131
v 0.074427 0.314107 -0.039148
v 0.099180 0.304981 -0.059776
v 0.118852 0.398049 -0.068534
v 0.116834 0.356097 -0.008250
v 0.104723 0.255324 -0.037694
v 0.106437 0.241228 -0.059929
v 0.106951 0.271596 -0.055162
v 0.121877 0.342738 -0.061683
v 0.131674 0.264718 -0.023383
v 0.138213 0.276069 -0.065412
v 0.150201 0.322322 -0.012199
v 0.152368 0.353052 -0.065898
v 0.144710 0.385155 -0.070265
v 0.146050 0.302803 -0.065107
v 0.160183 0.326677 -0.062771
v 0.166260 0.415574 -0.076655
v 0.167436 0.277162 -0.015419
v 0.174390 0.379608 -0.074044
v 0.183874 0.415704 -0.012336
v 0.199718 0.242015 -0.069036
v 0.179909 0.343985 -0.005512
v 0.188942 0.287237 -0.067010
v 0.204999 0.314112 -0.074247
v 0.206248 0.358628 -0.078239
v 0.187845 0.302180 -0.009682
v 0.213928 0.280268 -0.007436
v 0.236226 0.263734 -0.077162
v 0.208775 0.390329 -0.080338
v 0.229238 0.344223 -0.013996
v 0.230665 0.380914 -0.018503
v 0.233141 0.326979 -0.081561
v 0.241379 0.304642 -0.008735
v 0.240190 0.418540 -0.018053
v 0.268344 0.297834 -0.011563
v 0.263823 0.363296 -0.018040
v 0.253375 0.297144 -0.088127
v 0.256440 0.372376 -0.094126
v 0.270116 0.401759 -0.097215
v 0.107069 0.457645 -0.069006
v 0.098150 0.522210 -0.064198
v 0.096100 0.456538 -0.008306
v 0.137706 0.563285 -0.032304
v 0.130792 0.594794 -0.041193
v 0.124726 0.545318 -0.073356
v 0.139053 0.464513 -0.014086
v 0.137072 0.450565 -0.077965
v 0.132093 0.504079 -0.074856
v 0.135704 0.506279 -0.020412
v 0.164733 0.551856 -0.031854
v 0.154633 0.584057 -0.080577
v 0.167116 0.476408 -0.081764
v 0.150470 0.434185 -0.009973
v 0.171364 0.503312 -0.021754
v 0.174550 0.596790 -0.043474
v 0.166561 0.527824 -0.080672
v 0.186167 0.466611 -0.015056
v 0.189802 0.533211 -0.029218
v 0.214970 0.568711 -0.040178
v 0.188300 0.598032 -0.088142
v 0.193663 0.433677 -0.079923
v 0.196353 0.505242 -0.081701
v 0.212904 0.440298 -0.016206
v 0.222312 0.476062 -0.018236
v 0.211010 0.509565 -0.021857
v 0.197320 0.593970 -0.045162
v 0.212030 0.468931 -0.084170
v 0.185990 0.558747 -0.083461
v 0.214239 0.567010 -0.091428
v 0.233057 0.403236 -0.087632
v 0.247737 0.463066 -0.019655
v 0.243759 0.505909 -0.018096
v 0.238653 0.547933 -0.035226
v 0.230581 0.438033 -0.087716
v 0.232928 0.488153 -0.087203
v 0.238349 0.531435 -0.090771
v 0.249867 0.564398 -0.099604
v 0.254844 0.582780 -0.039875
v 0.262632 0.426016 -0.096083
v 0.279563 0.503147 -0.020988
v 0.259979 0.508162 -0.092770
v 0.263968 0.455392 -0.095741
v 0.127320 0.636186 -0.045686
v 0.098640 0.668110 -0.071046
v 0.108831 0.585340 -0.072616
v 0.119043 0.691449 -0.071984
v 0.133213 0.702897 -0.082206
v 0.139604 0.676086 -0.057447
v 0.129436 0.622979 -0.071999
v 0.155027 0.731621 -0.068938
v 0.153709 0.723385 -0.089123
v 0.172158 0.636809 -0.053782
v 0.166787 0.708054 -0.064616
v 0.162753 0.618065 -0.085238
v 0.164426 0.669469 -0.084583
v 0.166936 0.751757 -0.090880
v 0.180625 0.777439 -0.080469
v 0.184601 0.681725 -0.061315
v 0.206258 0.757742 -0.073846
v 0.212872 0.728528 -0.070954
v 0.196977 0.646120 -0.090616
v 0.211106 0.646388 -0.058341
v 0.194238 0.692403 -0.097352
v 0.219944 0.686120 -0.064710
v 0.216411 0.619199 -0.094546
v 0.208915 0.721975 -0.098270
v 0.231789 0.617465 -0.049311
v 0.236628 0.649785 -0.098063
v 0.237574 0.745885 -0.099618
v 0.260595 0.661221 -0.058886
v 0.262628 0.682133 -0.064216
v 0.248524 0.614836 -0.099128
v 0.243221 0.682994 -0.102179
v 0.268550 0.750466 -0.076206
v 0.249757 0.770257 -0.076851
v 0.265317 0.710782 -0.104495
v 0.255081 0.710829 -0.070958
v 0.266039 0.658176 -0.101872
v 0.203688 0.766913 -0.094360
v 0.213013 0.811944 -0.090272
v 0.242101 0.792510 -0.079199
v 0.225496 0.815856 -0.080862
v 0.227837 0.780479 -0.095459
v 0.247206 0.805577 -0.097758
v 0.248444 0.854960 -0.093232
v 0.282564 0.865142 -0.088947
v 0.272543 0.789695 -0.099606
v 0.378175 0.102235 -0.014832
v 0.267453 0.017108 -0.022732
v 0.290384 0.007966 -0.059944
v 0.280692 0.048303 -0.118318
v 0.281922 0.038900 -0.073809
v 0.298895 0.085493 -0.026082
v 0.294871 0.030142 -0.024516
v 0.299834 0.027973 -0.078783
v 0.300783 0.002003 -0.098156
v 0.316091 0.005081 -0.123012
v 0.317447 0.032510 -0.133598
v 0.329925 0.035731 -0.078573
v 0.335183 0.070259 -0.124748
v 0.315305 0.054547 -0.023315
v 0.315579 0.014993 -0.049064
v 0.341018 0.014754 -0.095777
v 0.331336 0.034139 -0.017536
v 0.358330 0.052322 -0.124625
v 0.367108 0.048385 -0.078389
v 0.358739 0.023771 -0.040090
v 0.383441 0.029755 -0.049313
v 0.375642 0.019003 -0.102604
v 0.362153 0.014593 -0.129549
v 0.378779 0.063025 -0.012129
v 0.374881 0.049488 -0.132531
v 0.403074 0.067638 -0.031811
v 0.397582 0.058710 -0.072407
v 0.399021 0.038614 -0.090763
v 0.410610 0.078633 -0.058535
v 0.420518 0.068339 -0.093037
v 0.400535 0.041283 -0.117255
v 0.419650 0.078695 -0.115312
v 0.286677 0.133107 -0.022520
v 0.279381 0.206819 -0.018007
v 0.273486 0.088504 -0.110232
v 0.302894 0.233943 -0.015817
v 0.287487 0.246926 -0.064049
v 0.296514 0.120143 -0.106759
v 0.290053 0.166173 -0.096621
v 0.311500 0.212506 -0.096635
v 0.316039 0.157045 -0.027643
v 0.319093 0.151884 -0.097984
v 0.321297 0.118943 -0.109418
v 0.312586 0.081881 -0.117413
v 0.328844 0.106527 -0.016415
v 0.350698 0.147251 -0.024541
v 0.318640 0.205693 -0.020726
v 0.331066 0.244278 -0.024848
v 0.330414 0.191172 -0.096748
v 0.350564 0.067767 -0.006663
v 0.338529 0.238175 -0.105763
v 0.378960 0.192166 -0.032602
v 0.350616 0.207780 -0.026982
v 0.348758 0.177068 -0.105417
v 0.362143 0.147890 -0.102058
v 0.364335 0.202510 -0.105369
v 0.377887 0.129043 -0.024909
v 0.374812 0.235717 -0.031554
v 0.349215 0.105093 -0.107737
v 0.376393 0.173650 -0.103779
v 0.386025 0.120237 -0.106229
v 0.389668 0.080189 -0.127425
v 0.394991 0.157520 -0.041120
v 0.402540 0.190782 -0.042781
v 0.408799 0.221895 -0.111137
v 0.406045 0.099160 -0.116420
v 0.404719 0.238488 -0.036041
v 0.414105 0.159149 -0.100232
v 0.404056 0.120365 -0.041507
v 0.446022 0.151215 -0.054836
v 0.429402 0.174650 -0.048244
v 0.433369 0.113361 -0.061311
v 0.420088 0.127245 -0.105688
v 0.428386 0.191162 -0.103557
v 0.441753 0.205496 -0.056049
v 0.425781 0.090139 -0.073845
v 0.439480 0.230951 -0.052745
v 0.451187 0.098493 -0.088250
v 0.443136 0.099999 -0.115776
v 0.449676 0.140193 -0.105449
v 0.472563 0.178191 -0.070351
v 0.459615 0.263009 -0.057151
v 0.468428 0.129306 -0.071831
v 0.446706 0.216366 -0.117640
v 0.472616 0.222858 -0.074373
v 0.476131 0.126429 -0.108361
v 0.476113 0.166230 -0.112906
v 0.477779 0.218075 -0.125618
v 0.493354 0.148655 -0.077054
v 0.492288 0.240809 -0.135813
v 0.503973 0.199532 -0.133544
v 0.525734 0.162421 -0.097343
v 0.498077 0.252203 -0.083748
v 0.501119 0.144187 -0.114926
v 0.501533 0.169445 -0.127978
v 0.504771 0.200356 -0.089348
v 0.544044 0.180315 -0.131818
v 0.525768 0.220782 -0.138611
v 0.511625 0.264782 -0.141249
v 0.530565 0.219066 -0.101390
v 0.551356 0.195877 -0.105061
v 0.556295 0.244657 -0.138019
v 0.555889 0.205914 -0.126857
v 0.573547 0.230801 -0.117845
v 0.529869 0.260856 -0.092601
v 0.301397 0.270032 -0.014462
v 0.284281 0.235435 -0.097079
v 0.282413 0.276645 -0.102492
v 0.302083 0.373366 -0.024166
v 0.274167 0.334254 -0.099114
v 0.280112 0.404132 -0.019580
v 0.294411 0.247230 -0.080363
v 0.304571 0.294692 -0.109455
v 0.294308 0.318518 -0.018821
v 0.320465 0.262307 -0.112002
v 0.304743 0.324300 -0.109866
v 0.302226 0.378095 -0.104756
v 0.316283 0.350389 -0.027430
v 0.322654 0.410693 -0.105440
v 0.329733 0.370199 -0.110396
v 0.341602 0.286392 -0.027301
v 0.313680 0.412305 -0.021282
v 0.345783 0.341943 -0.113128
v 0.340543 0.303661 -0.117825
v 0.344836 0.360633 -0.032377
v 0.369864 0.271119 -0.028070
v 0.338173 0.313269 -0.028616
v 0.344025 0.414595 -0.025209
v 0.367197 0.326073 -0.033649
v 0.380070 0.371246 -0.111692
v 0.371901 0.275572 -0.118439
v 0.368459 0.313145 -0.117671
v 0.380406 0.414724 -0.026303
v 0.390796 0.293036 -0.034036
v 0.380398 0.375618 -0.029885
v 0.370487 0.400251 -0.109680
v 0.372411 0.238680 -0.114629
v 0.409435 0.338285 -0.038333
v 0.394446 0.323311 -0.118718
v 0.403682 0.387324 -0.112434
v 0.398891 0.419944 -0.109858
v 0.415682 0.288090 -0.116934
v 0.425370 0.317826 -0.040082
v 0.413499 0.371609 -0.036567
v 0.440272 0.420897 -0.028355
v 0.421055 0.354210 -0.116339
v 0.427117 0.267989 -0.041408
v 0.402290 0.256572 -0.113737
v 0.431521 0.327854 -0.121046
v 0.450656 0.294363 -0.047330
v 0.446008 0.388009 -0.110054
v 0.451008 0.257926 -0.122592
v 0.279087 0.443153 -0.020779
v 0.291153 0.436817 -0.097976
v 0.275949 0.550299 -0.103753
v 0.270852 0.536647 -0.028982
v 0.295235 0.516899 -0.095582
v 0.282327 0.488035 -0.094374
v 0.311735 0.450635 -0.023007
v 0.299225 0.533608 -0.029064
v 0.310767 0.464441 -0.097544
v 0.323784 0.567581 -0.104589
v 0.316633 0.565079 -0.040891
v 0.295635 0.580580 -0.044729
v 0.330365 0.529427 -0.101242
v 0.304059 0.483740 -0.022960
v 0.329251 0.443997 -0.103076
v 0.343179 0.499157 -0.032132
v 0.333251 0.540877 -0.035503
v 0.335270 0.488413 -0.098295
v 0.338222 0.590841 -0.054326
v 0.355661 0.424457 -0.105080
v 0.356050 0.513522 -0.104399
v 0.368951 0.452642 -0.028221
v 0.362721 0.552677 -0.104445
v 0.360470 0.463301 -0.104061
v 0.340930 0.463541 -0.028734
v 0.401738 0.530287 -0.044374
v 0.366861 0.551474 -0.044738
v 0.382142 0.483882 -0.106729
v 0.392129 0.491290 -0.033325
v 0.398574 0.458870 -0.108736
v 0.396068 0.506482 -0.109617
v 0.390522 0.584868 -0.057925
v 0.375674 0.583966 -0.111103
v 0.422836 0.500324 -0.037231
v 0.416476 0.557779 -0.056239
v 0.427505 0.529538 -0.111888
v 0.403675 0.564214 -0.111578
v 0.411458 0.446062 -0.027516
v 0.435993 0.438480 -0.109092
v 0.434981 0.481554 -0.108147
v 0.436087 0.469787 -0.031539
v 0.459653 0.586023 -0.071018
v 0.286905 0.644363 -0.055849
v 0.300337 0.712927 -0.072582
v 0.286840 0.580090 -0.103028
v 0.279861 0.744829 -0.105552
v 0.289763 0.604986 -0.104578
v 0.291199 0.631575 -0.104780
v 0.293333 0.610105 -0.050661
v 0.309796 0.683460 -0.067558
v 0.301311 0.745470 -0.076918
v 0.313265 0.701287 -0.107399
v 0.306297 0.752849 -0.107342
v 0.326612 0.622506 -0.059210
v 0.328120 0.651991 -0.064203
v 0.321348 0.633428 -0.108740
v 0.307451 0.670703 -0.105390
v 0.348676 0.742075 -0.106182
v 0.351773 0.696679 -0.073988
v 0.343401 0.602131 -0.109454
v 0.337057 0.689016 -0.109456
v 0.359134 0.625850 -0.063162
v 0.355402 0.722716 -0.078609
v 0.355361 0.762003 -0.081524
v 0.377123 0.680237 -0.074864
v 0.363493 0.655194 -0.111871
v 0.388459 0.622389 -0.111249
v 0.396946 0.653407 -0.073210
v 0.371994 0.701468 -0.110189
v 0.386745 0.747324 -0.084736
v 0.405445 0.664411 -0.113616
v 0.394624 0.725641 -0.107747
v 0.405666 0.718008 -0.086107
v 0.402419 0.613862 -0.067136
v 0.432363 0.615571 -0.116481
v 0.433385 0.743112 -0.107728
v 0.435387 0.642600 -0.084492
v 0.440863 0.707293 -0.092715
v 0.433120 0.746221 -0.094381
v 0.432470 0.689829 -0.113203
v 0.451925 0.614435 -0.080047
v 0.441844 0.581364 -0.119539
v 0.291809 0.785005 -0.082383
v 0.280902 0.820977 -0.082621
v 0.294742 0.857383 -0.084564
v 0.287811 0.830162 -0.099425
v 0.317794 0.842200 -0.088679
v 0.319888 0.780219 -0.103115
v 0.327123 0.792386 -0.081789
v 0.329797 0.809405 -0.101012
v 0.351260 0.827225 -0.094034
v 0.376342 0.802899 -0.096152
v 0.370019 0.772371 -0.104434
v 0.397314 0.788174 -0.101680
v 0.420810 0.769511 -0.103339
v 0.436124 0.393791 -0.033125
v 0.453286 0.289101 -0.126163
v 0.478270 0.374569 -0.116904
v 0.461532 0.379655 -0.040394
v 0.459577 0.332684 -0.120646
v 0.459037 0.330185 -0.047088
v 0.480460 0.280619 -0.134688
v 0.488295 0.405983 -0.041482
v 0.492207 0.317034 -0.060804
v 0.488543 0.349755 -0.054766
v 0.494820 0.286945 -0.067983
v 0.496525 0.348180 -0.123665
v 0.491993 0.313773 -0.127378
v 0.519101 0.356556 -0.068711
v 0.529471 0.313936 -0.074418
v 0.512509 0.321721 -0.134212
v 0.520329 0.421489 -0.049474
v 0.515399 0.386797 -0.054981
v 0.515673 0.393549 -0.115569
v 0.534474 0.278587 -0.135831
v 0.557072 0.285773 -0.094901
v 0.534041 0.370271 -0.118916
v 0.553607 0.392666 -0.121109
v 0.554126 0.346162 -0.129658
v 0.544201 0.400586 -0.063951
v 0.562937 0.321667 -0.090355
v 0.563180 0.361093 -0.077569
v 0.537989 0.315483 -0.136521
v 0.570612 0.405937 -0.077888
v 0.579514 0.258767 -0.115104
v 0.580954 0.310478 -0.135589
v 0.584472 0.403035 -0.123195
v 0.569505 0.287095 -0.135169
v 0.592276 0.345739 -0.107607
v 0.584780 0.294197 -0.113161
v 0.587895 0.357839 -0.129660
v 0.455679 0.495480 -0.037569
v 0.451054 0.535462 -0.050441
v 0.461938 0.426016 -0.110663
v 0.464949 0.502523 -0.117864
v 0.461556 0.547917 -0.117805
v 0.478864 0.563098 -0.065166
v 0.483078 0.463629 -0.108307
v 0.482404 0.473325 -0.036633
v 0.485359 0.528194 -0.053863
v 0.493153 0.415445 -0.109890
v 0.499379 0.552041 -0.120976
v 0.493031 0.436696 -0.034830
v 0.495120 0.496406 -0.118115
v 0.504782 0.522665 -0.119082
v 0.505983 0.508801 -0.056508
v 0.519166 0.539640 -0.069899
v 0.508012 0.453439 -0.109737
v 0.518065 0.582630 -0.120124
v 0.514699 0.468548 -0.047002
v 0.520358 0.580934 -0.085062
v 0.536785 0.490247 -0.064012
v 0.542459 0.595963 -0.101195
v 0.535360 0.436471 -0.111115
v 0.538763 0.531656 -0.118031
v 0.548663 0.557863 -0.117930
v 0.541676 0.451400 -0.052758
v 0.551587 0.566822 -0.095280
v 0.541677 0.488114 -0.113371
v 0.571652 0.464280 -0.074669
v 0.558976 0.435913 -0.069002
v 0.556158 0.513865 -0.077416
v 0.562338 0.543558 -0.093637
v 0.546874 0.586524 -0.121672
v 0.576020 0.429855 -0.119867
v 0.575356 0.496539 -0.083635
v 0.576580 0.465113 -0.111505
v 0.569031 0.514091 -0.115456
v 0.582789 0.439398 -0.090986
v 0.589126 0.404279 -0.099170
v 0.443093 0.680921 -0.091713
v 0.455554 0.668081 -0.114256
v 0.471991 0.669164 -0.095799
v 0.476534 0.593321 -0.121019
v 0.471491 0.716372 -0.105409
v 0.484065 0.693006 -0.112887
v 0.468449 0.629670 -0.119174
v 0.503324 0.655024 -0.118024
v 0.502938 0.617263 -0.094781
v 0.488940 0.643473 -0.097058
v 0.504257 0.674617 -0.110980
v 0.501678 0.611795 -0.123108
v 0.526445 0.650614 -0.111882
v 0.536563 0.624979 -0.119516
vn -0.7055 -0.4128 0.5760
vn -0.8597 -0.0195 0.5104
vn -0.6136 -0.2873 0.7355
vn -0.7195 -0.1220 0.6837
vn -0.3293 -0.7718 -0.5440
vn -0.2198 -0.9710 -0.0945
vn -0.4895 -0.8251 0.2821
vn -0.5892 -0.5045 -0.6312
vn -0.5151 -0.7802 0.3549
vn -0.5632 -0.1964 -0.8026
vn -0.2279 0.3084 -0.9235
vn -0.5906 -0.2114 -0.7788
vn 0.1320 -0.2729 0.9529
vn -0.4100 -0.8360 0.3646
vn -0.2462 -0.8944 0.3735
vn 0.0717 -0.2040 0.9763
vn -0.3026 -0.5598 -0.7714
vn -0.5179 -0.7303 0.4454
vn -0.2794 -0.6557 -0.7015
vn -0.8982 -0.3994 0.1839
vn -0.1429 -0.4652 -0.8736
vn -0.5805 -0.2861 0.7624
vn -0.5718 -0.3134 0.7582
vn -0.6295 -0.7715 0.0925
vn -0.6157 0.1977 -0.7628
vn -0.2487 -0.2737 0.9291
vn -0.8810 -0.4341 0.1884
vn -0.8818 -0.4312 0.1911
vn -0.0767 -0.1331 -0.9881
vn -0.3044 -0.0968 0.9476
vn -0.1183 -0.1261 -0.9849
vn 0.0635 0.2053 -0.9766
vn 0.1170 0.0955 -0.9885
vn -0.2621 -0.2630 0.9285
vn -0.9363 -0.3227 0.1387
vn -0.9390 -0.3119 0.1449
vn -0.0179 -0.0412 -0.9990
vn -0.0584 -0.1389 0.9886
vn -0.1124 -0.1038 0.9882
vn -0.0250 -0.2785 0.9601
vn -0.8152 0.1582 0.5572
vn -0.9355 -0.3198 0.1503
vn -0.3063 -0.3158 0.8980
vn -0.8075 -0.4306 -0.4031
vn -0.1405 0.0831 -0.9866
vn -0.6573 0.0946 -0.7476
vn -0.1228 -0.2391 -0.9632
vn -0.1550 -0.1477 -0.9768
vn -0.1117 -0.2453 0.9630
vn -0.6784 -0.5475 0.4899
vn -0.8826 -0.3042 -0.3584
vn -0.9598 -0.2036 -0.1931
vn -0.3597 0.1841 -0.9147
vn -0.0414 0.1297 -0.9907
vn -0.0827 0.2387 -0.9676
vn -0.0682 -0.3490 0.9346
vn -0.1058 -0.0175 0.9942
vn -0.3613 0.1825 -0.9144
vn -0.3942 0.0772 -0.9158
vn -0.6945 -0.0241 -0.7191
vn -0.4031 0.2791 -0.8716
vn -0.2986 0.1671 0.9396
vn -0.1504 -0.1752 0.9730
vn -0.1850 0.0702 -0.9802
vn -0.2261 0.1497 -0.9625
vn -0.2088 0.2785 -0.9375
vn -0.3318 0.2016 0.9216
vn -0.0654 0.1228 0.9903
vn -0.1693 -0.2756 0.9462
vn -0.2838 0.0426 0.9579
vn -0.2267 0.1491 -0.9625
vn -0.2187 0.0026 -0.9758
vn -0.2225 0.2228 -0.9491
vn -0.1456 0.0764 0.9864
vn -0.1489 0.1098 0.9827
vn -0.1143 -0.2178 0.9693
vn -0.2337 0.4466 0.8637
vn -0.0103 -0.1970 0.9803
vn -0.2386 0.1467 -0.9600
vn -0.2420 0.2527 -0.9368
vn -0.1534 0.2081 -0.9660
vn -0.2015 0.1295 -0.9709
vn -0.1502 0.3256 -0.9335
vn -0.3813 0.0308 0.9239
vn -0.2047 0.0165 0.9787
vn 0.1518 -0.6725 0.7243
vn -0.5808 -0.2445 0.7765
vn 0.0517 0.1238 0.9910
vn -0.7844 -0.3597 -0.5054
vn -0.7665 -0.4982 0.4052
vn -0.7833 -0.3871 -0.4865
vn -0.7865 -0.1564 -0.5974
vn -0.7838 -0.3599 -0.5061
vn -0.3150 -0.2354 -0.9194
vn -0.6385 -0.5095 0.5768
vn -0.2135 0.0892 -0.9729
vn -0.3494 -0.1737 -0.9207
vn -0.5902 -0.5512 0.5898
vn -0.6719 -0.2333 -0.7030
vn -0.9330 -0.2389 0.2692
vn -0.9064 0.0023 0.4225
vn -0.9977 0.0683 -0.0039
vn -0.9933 0.1150 0.0097
vn -0.8975 -0.1679 0.4078
vn -0.1293 0.1859 0.9740
vn -0.3452 0.3581 0.8675
vn -0.7351 -0.6757 -0.0560
vn -0.4505 -0.0444 -0.8917
vn -0.4421 -0.2355 -0.8655
vn -0.2737 -0.1456 -0.9507
vn -0.7488 0.2080 -0.6293
vn -0.1660 0.1972 -0.9662
vn -0.1227 0.0643 0.9904
vn -0.0628 0.1344 0.9889
vn -0.9150 -0.1827 -0.3598
vn -0.1304 0.1923 0.9726
vn -0.5594 -0.1443 -0.8162
vn -0.5582 -0.1213 -0.8208
vn -0.2097 -0.1983 0.9574
vn -0.1176 0.0582 0.9914
vn -0.0847 0.1834 0.9794
vn -0.4497 0.0602 -0.8911
vn -0.4575 -0.0386 -0.8884
vn -0.1905 -0.1042 -0.9762
vn -0.4085 0.0206 -0.9125
vn -0.4236 -0.0848 -0.9019
vn -0.2274 -0.0156 -0.9737
vn -0.3028 -0.0150 -0.9529
vn -0.2049 -0.1244 -0.9708
vn -0.2272 -0.0158 -0.9737
vn -0.0044 0.0693 0.9976
vn 0.0806 0.1995 0.9766
vn 0.1066 0.2953 0.9494
vn -0.3026 -0.1850 -0.9350
vn -0.2985 -0.0064 -0.9544
vn 0.0210 0.1578 0.9872
vn 0.0496 0.1948 0.9796
vn 0.0529 0.2348 0.9706
vn -0.0982 0.1033 -0.9898
vn -0.2048 0.0486 -0.9776
vn -0.3499 0.3776 0.8573
vn -0.6571 0.7519 0.0535
vn -0.2965 0.4105 0.8623
vn -0.1451 -0.1542 0.9773
vn -0.3265 0.2420 -0.9137
vn -0.3968 -0.1054 -0.9118
vn -0.8620 0.4589 -0.2153
vn 0.1647 0.1587 0.9735
vn -0.0926 0.3296 0.9396
vn -0.6074 0.5692 -0.5542
vn -0.1203 -0.0333 -0.9922
vn -0.1394 0.3208 0.9368
vn -0.1303 -0.0708 -0.9889
vn -0.4785 0.8722 -0.1012
vn 0.0491 -0.1676 0.9846
vn 0.1099 -0.0718 0.9913
vn 0.0589 0.1181 0.9913
vn -0.1450 -0.1049 0.9839
vn 0.1429 0.1424 0.9794
vn 0.0762 -0.0846 0.9935
vn -0.6886 -0.6488 0.3239
vn -0.6246 -0.4223 0.6570
vn -0.6727 -0.2527 -0.6954
vn 0.1019 -0.2450 0.9642
vn -0.9945 0.0992 -0.0345
vn -0.9948 0.0321 -0.0970
vn -0.2136 0.0792 -0.9737
vn -0.2140 0.0893 -0.9727
vn -0.3441 -0.1339 -0.9293
vn -0.2996 -0.1849 -0.9360
vn -0.3618 -0.3045 0.8811
vn -0.2802 -0.1951 -0.9399
vn -0.2097 0.1551 -0.9654
vn -0.1109 0.0438 -0.9929
vn -0.1122 0.0173 -0.9935
vn -0.0318 -0.3224 0.9461
vn -0.0699 -0.1837 0.9805
vn -0.3018 -0.4303 0.8508
vn -0.3114 -0.0007 -0.9503
vn -0.0934 -0.1274 -0.9874
vn -0.1490 -0.1681 -0.9744
vn -0.2128 -0.1199 0.9697
vn 0.0054 -0.1109 0.9938
vn -0.0417 -0.0302 0.9987
vn 0.0101 0.0915 -0.9958
vn -0.0879 -0.1429 -0.9858
vn -0.1705 -0.1347 0.9761
vn -0.1250 -0.1184 -0.9851
vn -0.2937 -0.1325 0.9467
vn -0.1405 -0.2148 0.9665
vn -0.1299 -0.1197 0.9843
vn 0.0649 0.1035 0.9925
vn -0.0123 0.0838 -0.9964
vn -0.0393 0.0354 -0.9986
vn -0.0363 0.0220 -0.9991
vn -0.0072 0.1016 -0.9948
vn -0.1556 -0.1695 -0.9732
vn -0.1447 -0.1042 -0.9840
vn -0.1316 -0.1231 0.9836
vn 0.1595 0.0255 0.9869
vn -0.2720 -0.0954 -0.9576
vn -0.2027 -0.1743 -0.9636
vn -0.2093 -0.1239 -0.9700
vn -0.1625 -0.0927 0.9823
vn -0.2679 -0.0786 -0.9602
vn -0.2049 -0.1169 -0.9718
vn -0.1192 -0.0561 -0.9913
vn -0.1618 -0.1010 0.9816
vn 0.1790 0.1273 0.9756
vn -0.2133 -0.0071 -0.9770
vn -0.1015 -0.0259 -0.9945
vn -0.0613 -0.0583 0.9964
vn 0.0119 -0.2368 0.9715
vn -0.0662 0.0235 0.9975
vn 0.1611 0.1141 0.9803
vn 0.1484 0.1198 0.9816
vn 0.1007 0.0058 0.9949
vn -0.2581 -0.1044 -0.9605
vn -0.2158 -0.0812 -0.9731
vn -0.2488 -0.0775 -0.9654
vn 0.0989 0.0396 0.9943
vn -0.2666 -0.0425 -0.9629
vn 0.0715 -0.0821 0.9941
vn 0.1436 -0.1094 0.9836
vn 0.0185 0.0324 0.9993
vn 0.1434 -0.0481 0.9885
vn -0.2652 0.0322 -0.9637
vn -0.2959 -0.0232 -0.9549
vn 0.0782 -0.1022 0.9917
vn 0.1226 0.1676 0.9782
vn 0.0498 0.1198 0.9915
vn -0.3191 -0.1436 -0.9368
vn -0.2675 -0.1271 -0.9551
vn 0.0369 0.1428 0.9891
vn 0.0311 -0.0198 0.9993
vn -0.3840 -0.0577 -0.9215
vn -0.3840 -0.0580 -0.9215
vn -0.2514 -0.0324 -0.9673
vn -0.2498 0.0145 -0.9682
vn 0.0572 -0.0042 0.9984
vn 0.0209 0.1582 0.9872
vn 0.0432 0.2082 0.9771
vn -0.2531 -0.0720 -0.9648
vn -0.1991 -0.1290 -0.9714
vn -0.2157 -0.1353 -0.9671
vn -0.2112 -0.0084 -0.9774
vn 0.0430 0.2925 0.9553
vn -0.2992 -0.1830 -0.9365
vn -0.1776 -0.0429 -0.9832
vn -0.1800 -0.0533 -0.9822
vn -0.2149 0.1638 -0.9628
vn 0.1273 0.0329 0.9913
vn 0.1046 0.1491 0.9833
vn 0.0936 0.1945 0.9764
vn 0.0524 0.2345 0.9707
vn 0.0522 0.2817 0.9581
vn -0.3096 -0.0207 -0.9506
vn -0.2999 -0.0668 -0.9516
vn -0.1823 -0.0256 -0.9829
vn 0.1102 0.1575 0.9813
vn -0.2795 0.0297 -0.9597
vn -0.0004 0.0879 0.9961
vn 0.0979 0.1999 0.9749
vn 0.0689 0.2014 0.9771
vn -0.1184 -0.1356 -0.9837
vn -0.1611 0.0423 -0.9860
vn -0.1724 -0.0503 -0.9837
vn -0.0087 0.1312 0.9913
vn 0.0896 0.0347 0.9954
vn 0.0499 0.1535 0.9869
vn 0.0373 0.2789 0.9596
vn -0.1700 0.0055 -0.9854
vn -0.1876 -0.0381 -0.9815
vn -0.1087 -0.0214 -0.9938
vn 0.0973 0.0487 0.9941
vn 0.0142 0.1396 0.9901
vn 0.0120 0.1842 0.9828
vn 0.0542 0.2103 0.9761
vn 0.0540 0.2106 0.9761
vn 0.0822 0.2326 0.9691
vn -0.0606 -0.0878 -0.9943
vn -0.0580 -0.0789 -0.9952
vn -0.1790 0.0189 -0.9837
vn 0.0788 0.2427 0.9669
vn -0.1758 -0.1063 -0.9787
vn -0.0186 0.0210 -0.9996
vn -0.0243 0.1700 0.9851
vn 0.0779 0.2451 0.9664
vn 0.1001 0.2285 0.9684
vn -0.0695 -0.0462 -0.9965
vn 0.0910 0.0490 0.9946
vn 0.0783 0.0360 0.9963
vn -0.0393 0.2647 0.9635
vn -0.0674 -0.0847 -0.9941
vn -0.0454 0.0482 -0.9978
vn -0.2427 -0.1007 -0.9649
vn 0.0544 0.1254 0.9906
vn 0.0366 0.2710 0.9619
vn -0.2046 -0.0169 -0.9787
vn -0.1714 -0.0655 -0.9830
vn 0.0745 0.0370 0.9965
vn -0.1059 0.0714 0.9918
vn 0.0218 0.3149 0.9489
vn -0.2053 -0.0109 -0.9786
vn -0.1470 0.0038 -0.9891
vn -0.1754 -0.0590 -0.9827
vn -0.2217 -0.1680 -0.9605
vn -0.0651 0.3699 0.9268
vn -0.0644 0.1613 0.9848
vn -0.1594 0.0176 -0.9871
vn 0.0846 0.0215 0.9962
vn -0.2598 -0.0208 -0.9654
vn -0.2441 0.0213 -0.9695
vn -0.2324 -0.1752 -0.9567
vn 0.0497 0.0320 0.9983
vn 0.0529 0.0269 0.9982
vn 0.0390 -0.0327 0.9987
vn -0.0494 0.3719 0.9270
vn -0.2280 0.0375 -0.9729
vn -0.1573 -0.0615 -0.9856
vn -0.2447 0.0224 -0.9694
vn 0.0644 0.1083 0.9920
vn -0.2053 0.0113 -0.9786
vn 0.0593 0.1126 0.9919
vn 0.0131 0.2625 0.9648
vn -0.0856 -0.0374 -0.9956
vn -0.7481 0.6482 -0.1423
vn -0.0533 0.6478 0.7600
vn -0.0807 0.0605 -0.9949
vn 0.0269 0.2750 0.9611
vn -0.7114 0.6563 -0.2512
vn -0.1673 0.1077 -0.9800
vn -0.1980 -0.1145 -0.9735
vn -0.2024 0.1379 -0.9695
vn -0.7258 0.6522 -0.2188
vn 0.1748 0.1207 0.9772
vn -0.2825 0.4323 0.8564
vn -0.1820 0.0888 0.9793
vn -0.3738 -0.0378 -0.9267
vn 0.0389 0.2514 0.9671
vn 0.1698 0.2302 0.9582
vn 0.0637 0.1665 0.9840
vn -0.3871 -0.2995 -0.8720
vn -0.9034 0.4143 -0.1101
vn -0.8761 0.4809 -0.0342
vn -0.3662 0.0238 -0.9303
vn -0.2052 -0.1225 -0.9710
vn 0.0664 0.1471 0.9869
vn -0.1696 0.0181 -0.9853
vn 0.0803 0.1432 0.9864
vn 0.0449 0.2018 0.9784
vn -0.1824 -0.0906 -0.9790
vn -0.1337 -0.0269 -0.9907
vn -0.2978 -0.1387 -0.9445
vn -0.1620 0.0498 -0.9855
vn -0.1631 0.0149 -0.9865
vn 0.0512 0.2520 0.9664
vn 0.0619 0.1653 0.9843
vn 0.0404 0.1075 0.9934
vn -0.2861 -0.1546 -0.9456
vn -0.1233 0.0718 -0.9898
vn 0.0809 0.0571 0.9951
vn -0.0082 0.2927 0.9562
vn 0.0773 0.1410 0.9870
vn -0.2137 -0.0117 -0.9768
vn 0.0750 0.1575 0.9847
vn -0.1852 -0.0509 -0.9814
vn -0.0094 0.1873 0.9823
vn 0.0033 0.1576 0.9875
vn 0.0337 0.1511 0.9880
vn 0.1101 0.0936 0.9895
vn -0.1481 -0.0528 -0.9876
vn -0.1854 0.0096 -0.9826
vn -0.1689 -0.1517 -0.9739
vn -0.1165 -0.0994 -0.9882
vn -0.0950 0.0162 -0.9953
vn -0.1081 0.0737 -0.9914
vn -0.2234 0.0033 -0.9747
vn -0.1437 -0.0188 -0.9894
vn -0.0817 0.2107 0.9741
vn -0.0656 0.2543 0.9649
vn -0.0650 0.2524 0.9654
vn 0.0590 0.0884 0.9943
vn -0.1090 0.0038 -0.9940
vn -0.0975 0.0609 -0.9934
vn 0.0103 0.2313 0.9728
vn -0.1250 -0.0123 -0.9921
vn -0.0988 -0.1031 -0.9898
vn -0.0438 0.2668 0.9628
vn -0.2783 0.4845 -0.8293
vn -0.5693 0.6698 0.4767
vn -0.4492 0.1726 -0.8766
vn -0.0324 0.0481 0.9983
vn -0.0759 0.2277 0.9708
vn -0.1079 0.1120 -0.9878
vn 0.0350 0.1168 0.9925
vn 0.0379 0.1070 0.9935
vn -0.2016 0.0661 -0.9772
vn -0.6078 0.5407 0.5816
vn 0.0235 0.0877 0.9959
vn -0.0968 0.0919 -0.9911
vn -0.1961 0.0944 -0.9760
vn 0.0025 0.3003 0.9539
vn -0.1660 0.1459 0.9753
vn -0.1100 0.0881 -0.9900
vn -0.0875 -0.0237 -0.9959
vn 0.2011 0.0704 0.9770
vn 0.2315 0.0413 0.9720
vn -0.0621 -0.9774 0.2019
vn -0.3048 -0.5581 -0.7717
vn 0.1001 0.2134 -0.9718
vn 0.2500 -0.7382 0.6266
vn 0.2025 -0.4440 -0.8729
vn 0.1591 -0.1810 0.9705
vn 0.1536 -0.1904 0.9696
vn 0.0077 -0.8481 0.5299
vn 0.4076 -0.7963 0.4468
vn -0.1129 -0.4319 -0.8948
vn -0.2083 -0.6671 0.7153
vn -0.1503 0.1690 -0.9741
vn -0.4674 -0.2750 -0.8402
vn 0.1201 0.1514 0.9811
vn -0.2977 -0.5778 0.7600
vn -0.2828 -0.9151 -0.2875
vn -0.4543 -0.3011 -0.8384
vn -0.2651 0.2767 -0.9237
vn -0.0063 -0.8533 0.5213
vn 0.4350 -0.7176 -0.5439
vn 0.2213 -0.8452 -0.4864
vn -0.1550 0.2940 -0.9432
vn -0.1992 0.1190 0.9727
vn 0.1395 -0.5888 0.7961
vn 0.1442 -0.5808 0.8012
vn 0.2979 -0.9523 0.0655
vn 0.1339 0.1661 -0.9770
vn 0.2681 -0.8447 -0.4633
vn -0.0586 -0.3569 -0.9323
vn 0.2195 -0.9652 0.1419
vn 0.1174 -0.3657 0.9233
vn -0.4072 -0.0618 0.9112
vn 0.0747 -0.8685 0.4901
vn 0.2859 -0.8333 -0.4731
vn 0.1391 -0.9860 0.0917
vn 0.1458 0.1425 -0.9790
vn 0.3189 -0.6525 0.6874
vn 0.0021 -0.8414 -0.5403
vn 0.1872 -0.5618 0.8058
vn 0.2255 -0.5797 0.7830
vn -0.4193 0.0756 -0.9047
vn 0.3981 -0.6583 0.6389
vn 0.5989 -0.7822 -0.1718
vn 0.4408 -0.2348 -0.8663
vn 0.5800 -0.5696 0.5824
vn 0.3565 -0.6828 -0.6377
vn 0.0816 -0.6690 0.7388
vn 0.1163 -0.6113 0.7828
vn 0.6536 -0.7558 -0.0388
vn 0.4880 -0.0906 -0.8681
vn 0.8916 -0.4523 -0.0211
vn 0.6284 -0.6773 0.3825
vn 0.6929 -0.4586 0.5564
vn 0.8098 -0.5866 -0.0128
vn 0.3650 -0.1387 -0.9206
vn 0.8342 -0.5514 0.0084
vn 0.8704 -0.4326 -0.2350
vn 0.0385 -0.0283 0.9989
vn 0.1452 0.2289 0.9626
vn -0.0682 0.0331 0.9971
vn -0.1945 0.1039 -0.9754
vn -0.3897 -0.0136 -0.9209
vn -0.3681 -0.0879 -0.9256
vn -0.1845 0.2043 -0.9614
vn -0.1763 0.2087 -0.9620
vn -0.1154 0.2196 0.9687
vn -0.1424 0.2098 -0.9673
vn -0.0318 -0.0531 0.9981
vn 0.1251 -0.0894 0.9881
vn -0.0617 -0.1377 0.9886
vn 0.8550 0.0015 -0.5186
vn 0.2753 0.0137 0.9613
vn 0.9200 -0.0429 0.3896
vn -0.1507 0.1924 -0.9697
vn -0.1261 -0.1687 -0.9776
vn 0.1080 0.0796 0.9910
vn 0.0644 -0.1399 0.9881
vn -0.9203 -0.0179 -0.3909
vn -0.8826 -0.0252 -0.4695
vn 0.0642 0.2232 -0.9727
vn -0.2094 0.0966 -0.9730
vn -0.1422 0.2096 -0.9674
vn -0.0972 -0.2980 0.9496
vn -0.0408 0.1618 0.9860
vn 0.0688 -0.1440 0.9872
vn -0.0054 0.2156 0.9765
vn -0.0042 0.0016 -1.0000
vn -0.2001 -0.2558 -0.9458
vn -0.0927 0.2307 -0.9686
vn -0.2700 -0.0573 0.9612
vn -0.0281 0.2101 0.9773
vn 0.0646 -0.1358 0.9886
vn 0.3040 0.0039 0.9527
vn -0.0275 0.0394 -0.9988
vn -0.0856 0.3216 -0.9430
vn -0.0515 -0.2860 -0.9568
vn -0.4240 -0.0098 0.9056
vn 0.1992 -0.1484 0.9687
vn -0.3418 0.1278 -0.9311
vn 0.1458 0.1758 -0.9736
vn -0.0323 0.1962 0.9800
vn 0.1368 -0.1061 0.9849
vn 0.1891 0.0439 0.9810
vn 0.1565 0.0261 0.9873
vn -0.1079 -0.1624 -0.9808
vn 0.2204 0.3330 -0.9168
vn -0.1807 -0.1551 -0.9712
vn -0.0104 0.2385 0.9711
vn 0.1066 0.1392 0.9845
vn -0.0789 0.1545 -0.9848
vn -0.2998 0.1853 -0.9358
vn -0.1954 -0.1521 -0.9689
vn -0.0541 0.4557 -0.8885
vn 0.0006 0.3518 0.9361
vn 0.0475 -0.0927 -0.9946
vn -0.2460 -0.1885 -0.9508
vn -0.0387 -0.0567 -0.9976
vn -0.1296 0.4768 -0.8694
vn 0.2529 0.3595 0.8982
vn -0.0154 0.1361 -0.9906
vn 0.0552 -0.0319 -0.9980
vn -0.1499 0.4518 -0.8794
vn 0.3574 -0.0345 0.9333
vn 0.3910 -0.0815 0.9168
vn 0.1917 -0.0054 0.9814
vn 0.0560 -0.0974 -0.9937
vn -0.0887 -0.0917 -0.9918
vn -0.0195 -0.2439 -0.9696
vn 0.0469 0.4706 -0.8811
vn -0.3631 0.3204 -0.8749
vn 0.6209 0.0634 0.7813
vn 0.5795 0.2922 0.7608
vn 0.1492 -0.0096 0.9888
vn 0.5612 0.1284 0.8177
vn 0.0020 0.1509 -0.9885
vn 0.6695 0.1223 0.7327
vn 0.9581 0.0344 0.2844
vn 0.3848 -0.1463 0.9113
vn -0.0644 0.3842 -0.9210
vn -0.0183 0.1652 -0.9861
vn 0.0277 -0.1689 -0.9852
vn 0.3755 0.2007 -0.9048
vn 0.1858 0.0351 0.9820
vn 0.3257 -0.0348 0.9448
vn 0.2012 0.0032 0.9795
vn 0.7546 -0.1428 0.6404
vn 0.3828 -0.5325 0.7549
vn 0.7700 -0.5161 0.3751
vn 0.1290 -0.1592 -0.9788
vn 0.4831 -0.3020 0.8218
vn 0.2730 0.1318 0.9529
vn 0.4026 -0.1460 0.9037
vn 0.3493 -0.0899 0.9327
vn -0.2083 -0.3573 -0.9104
vn 0.0183 -0.0419 -0.9990
vn 0.0083 0.3533 -0.9355
vn 0.5295 -0.6290 0.5692
vn 0.6259 -0.6976 -0.3487
vn -0.0608 0.1572 -0.9857
vn 0.4503 0.0690 0.8902
vn 0.4526 0.0441 0.8906
vn 0.3907 -0.2805 0.8767
vn 0.5434 -0.5293 0.6516
vn 0.6993 -0.6729 -0.2413
vn -0.1610 -0.0306 -0.9865
vn -0.2199 -0.0557 -0.9739
vn -0.1077 0.2638 -0.9585
vn 0.5350 -0.0616 0.8426
vn 0.4684 -0.6051 0.6438
vn 0.6394 -0.7345 -0.2272
vn 0.0211 0.2456 -0.9691
vn -0.3206 -0.2737 -0.9068
vn -0.2430 -0.0899 -0.9658
vn 0.5570 -0.0722 0.8274
vn 0.4760 0.0783 0.8759
vn 0.8000 -0.5610 0.2129
vn -0.1661 -0.1120 -0.9797
vn -0.2307 -0.2247 -0.9467
vn 0.2417 -0.0498 0.9691
vn -0.4820 -0.1940 -0.8544
vn -0.3658 -0.1763 -0.9138
vn 0.6266 -0.7554 0.1916
vn 0.4657 0.0788 0.8814
vn 0.3937 -0.0483 0.9180
vn 0.6026 -0.7687 0.2142
vn -0.4983 -0.0986 -0.8614
vn 0.0935 -0.4583 -0.8839
vn -0.3877 -0.1596 -0.9078
vn 0.4813 0.1425 0.8649
vn -0.3757 -0.1391 -0.9163
vn 0.4687 0.0735 0.8803
vn 0.4868 -0.8503 0.2001
vn 0.4458 -0.0390 0.8943
vn -0.0432 -0.1784 -0.9830
vn -0.0469 -0.1859 -0.9814
vn -0.1382 -0.0933 -0.9860
vn 0.6997 -0.3370 -0.6300
vn -0.1455 -0.1057 -0.9837
vn 0.3174 -0.0244 0.9480
vn 0.3288 0.1471 0.9329
vn 0.0528 -0.0428 -0.9977
vn 0.8014 -0.5857 0.1216
vn 0.1994 -0.9090 -0.3659
vn 0.3678 0.0100 -0.9299
vn 0.2305 -0.2716 -0.9344
vn 0.3207 0.1392 0.9369
vn 0.3946 -0.1828 0.9005
vn 0.9079 -0.4192 -0.0042
vn 0.6654 -0.2131 -0.7154
vn 0.4005 -0.1737 0.8997
vn 0.8268 -0.5562 -0.0842
vn 0.0455 -0.1369 0.9895
vn 0.1626 0.0936 0.9822
vn 0.0050 0.0357 0.9994
vn -0.4699 -0.0481 -0.8814
vn 0.0327 -0.0651 0.9973
vn 0.1434 0.1626 0.9762
vn -0.4468 -0.1364 -0.8842
vn -0.4502 -0.0121 -0.8928
vn 0.1379 0.0767 0.9875
vn -0.3084 0.0116 -0.9512
vn -0.2286 0.0210 -0.9733
vn -0.3349 -0.0111 -0.9422
vn -0.0278 -0.0387 0.9989
vn 0.1819 0.1144 0.9766
vn 0.1654 -0.0288 0.9858
vn -0.2265 0.0030 -0.9740
vn -0.1708 0.0812 -0.9820
vn -0.3088 0.0756 -0.9481
vn 0.3003 0.0502 0.9525
vn 0.0736 -0.0954 0.9927
vn -0.2886 -0.1375 -0.9475
vn -0.2606 -0.0521 -0.9641
vn -0.1767 0.0849 -0.9806
vn -0.1645 0.0825 -0.9829
vn 0.2300 0.1205 0.9657
vn -0.0968 0.0412 -0.9945
vn -0.1754 0.0893 -0.9804
vn -0.2237 -0.0122 -0.9746
vn 0.3127 -0.0227 0.9496
vn 0.2729 0.0817 0.9586
vn 0.2286 0.1039 0.9680
vn 0.1804 -0.0282 0.9832
vn -0.2192 -0.0309 -0.9752
vn -0.1378 0.1392 -0.9806
vn 0.1361 -0.0782 0.9876
vn 0.3126 -0.0229 0.9496
vn 0.1359 -0.1134 0.9842
vn 0.1505 0.0572 0.9870
vn 0.1457 0.0579 0.9876
vn 0.1502 -0.1280 0.9803
vn -0.0638 0.1102 -0.9919
vn 0.0516 0.0452 0.9976
vn -0.0273 0.0808 -0.9964
vn -0.0537 0.1546 -0.9865
vn -0.2265 -0.3993 -0.8884
vn -0.0972 -0.1036 -0.9899
vn -0.1006 -0.0907 -0.9908
vn -0.0376 0.1268 -0.9912
vn -0.0139 -0.1319 0.9912
vn 0.1268 0.0646 0.9898
vn -0.0427 -0.0644 0.9970
vn -0.0269 0.0603 -0.9978
vn 0.0303 -0.0912 0.9954
vn 0.1127 0.1593 0.9808
vn 0.1341 0.0842 0.9874
vn -0.0014 0.0203 -0.9998
vn 0.1416 -0.1124 0.9835
vn -0.0640 0.0480 -0.9968
vn 0.0901 -0.1011 -0.9908
vn -0.0466 0.0161 -0.9988
vn -0.0774 0.0956 -0.9924
vn -0.0657 0.1254 -0.9899
vn 0.1482 0.0015 0.9889
vn 0.3203 -0.0483 0.9461
vn 0.1200 0.0741 0.9900
vn 0.1100 0.0007 0.9939
vn 0.1886 -0.0749 0.9792
vn -0.0552 0.0705 -0.9960
vn 0.0416 -0.0255 -0.9988
vn 0.0435 -0.0911 0.9949
vn 0.0669 -0.0621 -0.9958
vn 0.0713 -0.1306 -0.9889
vn -0.0593 0.1273 -0.9901
vn -0.0818 0.0743 -0.9939
vn 0.2107 0.0178 0.9774
vn 0.1628 -0.2476 0.9551
vn -0.0525 -0.0820 -0.9952
vn -0.0797 0.1445 -0.9863
vn 0.1859 -0.0196 0.9824
vn 0.0237 -0.1768 0.9840
vn 0.4036 -0.1420 0.9039
vn 0.2613 -0.0165 0.9651
vn -0.0175 0.0762 -0.9969
vn 0.0556 0.0301 -0.9980
vn -0.1749 -0.1062 -0.9788
vn -0.1781 -0.0241 -0.9837
vn 0.0532 0.1444 -0.9881
vn 0.0783 -0.0290 0.9965
vn 0.0974 0.2549 0.9621
vn 0.1218 0.0755 0.9897
vn -0.0718 0.0149 -0.9973
vn -0.2440 -0.1705 -0.9547
vn -0.2530 -0.1531 -0.9553
vn 0.0502 0.0227 0.9985
vn 0.0654 -0.0188 0.9977
vn -0.0530 0.3633 0.9302
vn -0.0225 0.0545 -0.9983
vn -0.0778 -0.0069 -0.9969
vn -0.0162 -0.2464 -0.9690
vn -0.1207 0.0682 -0.9904
vn 0.0284 0.2390 0.9706
vn 0.0369 0.3187 0.9471
vn -0.0750 0.0234 -0.9969
vn -0.0386 0.0635 -0.9972
vn 0.2735 -0.0767 -0.9588
vn 0.0429 0.0318 0.9986
vn 0.0650 0.0136 0.9978
vn 0.1870 0.1372 0.9727
vn 0.0636 0.3201 0.9453
vn -0.0618 0.0594 -0.9963
vn -0.1060 0.0058 -0.9943
vn 0.0571 0.0478 0.9972
vn -0.1504 0.0996 -0.9836
vn -0.1548 0.1252 -0.9800
vn -0.0850 -0.1277 -0.9882
vn 0.1244 0.0509 0.9909
vn 0.1756 0.0393 0.9837
vn 0.1749 0.1363 0.9751
vn 0.1173 0.2919 0.9492
vn -0.0521 0.0219 -0.9984
vn -0.1207 -0.1074 -0.9869
vn 0.1573 0.0808 0.9842
vn 0.1973 0.0808 0.9770
vn 0.1604 0.1173 0.9801
vn -0.1536 0.1263 -0.9800
vn -0.1284 -0.0863 -0.9880
vn 0.0099 0.0724 0.9973
vn 0.1815 0.3308 0.9261
vn -0.1772 -0.0916 -0.9799
vn -0.0203 0.0748 -0.9970
vn -0.1057 0.1206 -0.9871
vn -0.0409 -0.1165 -0.9923
vn 0.2239 0.1313 0.9657
vn 0.1498 0.3355 0.9301
vn -0.0516 0.0326 -0.9981
vn -0.2499 -0.0285 -0.9679
vn -0.1111 0.0178 -0.9936
vn -0.0318 -0.0928 -0.9952
vn -0.1357 -0.1522 -0.9790
vn 0.0298 0.0595 0.9978
vn 0.0999 0.3034 0.9476
vn -0.1071 -0.0161 -0.9941
vn 0.0266 0.1152 0.9930
vn 0.0391 0.0925 0.9949
vn 0.0648 0.2572 0.9642
vn 0.1041 0.1882 0.9766
vn -0.1170 0.0405 -0.9923
vn -0.1257 0.0203 -0.9919
vn -0.0092 0.0477 0.9988
vn -0.0956 0.1290 -0.9870
vn -0.1069 0.0278 -0.9939
vn -0.1218 -0.0004 -0.9926
vn -0.1365 -0.0424 -0.9897
vn 0.0035 0.1289 0.9917
vn 0.1775 0.3082 0.9346
vn 0.1900 0.2412 0.9517
vn -0.0523 -0.0270 -0.9983
vn -0.1685 -0.0113 -0.9856
vn -0.1267 -0.1560 -0.9796
vn 0.0456 0.2619 0.9640
vn -0.1612 -0.0267 -0.9866
vn 0.0337 0.0053 0.9994
vn 0.0278 0.1390 0.9899
vn 0.0626 0.2091 0.9759
vn 0.0062 0.0289 -0.9996
vn 0.0268 -0.0171 -0.9995
vn -0.0135 -0.0798 -0.9967
vn 0.0766 0.3602 0.9297
vn 0.1774 0.2295 0.9570
vn 0.0025 0.0220 -0.9998
vn -0.1595 -0.1008 -0.9820
vn 0.0564 0.2968 0.9533
vn 0.0404 0.1570 0.9868
vn 0.0170 0.2030 0.9790
vn 0.0240 0.2346 0.9718
vn -0.0951 0.0069 -0.9954
vn -0.1414 -0.0449 -0.9889
vn -0.1268 -0.0115 -0.9919
vn -0.1382 0.0283 -0.9900
vn -0.0413 -0.0503 -0.9979
vn 0.0395 0.1179 0.9922
vn -0.1311 -0.0005 -0.9914
vn 0.1265 0.2049 0.9706
vn 0.0536 0.2575 0.9648
vn 0.0619 0.2408 0.9686
vn 0.0295 0.1311 0.9909
vn -0.0913 0.0224 -0.9956
vn -0.0693 -0.0506 -0.9963
vn -0.0706 -0.0520 -0.9961
vn -0.0614 -0.0048 -0.9981
vn 0.0642 0.1877 0.9801
vn -0.0607 -0.0549 -0.9966
vn -0.1302 -0.0005 -0.9915
vn -0.1325 0.0396 -0.9904
vn -0.0652 -0.0077 -0.9978
vn 0.1146 0.3822 0.9170
vn 0.1666 0.2097 0.9635
vn 0.1704 0.2069 0.9634
vn 0.1638 0.1777 0.9704
vn 0.1915 0.1543 0.9693
vn 0.1598 0.1962 0.9675
vn 0.0444 0.1306 0.9904
vn -0.0722 -0.0654 -0.9952
vn -0.0920 -0.0113 -0.9957
vn 0.0733 0.1904 0.9790
vn -0.1273 -0.0671 -0.9896
vn -0.1548 0.0310 -0.9875
vn -0.1089 -0.0445 -0.9931
vn 0.0407 0.0527 -0.9978
vn 0.0995 0.1872 0.9773
vn 0.1027 0.1609 0.9816
vn 0.0992 0.1624 0.9817
vn 0.0999 0.1604 0.9820
vn 0.0956 0.0737 0.9927
vn -0.0630 -0.0216 -0.9978
vn -0.0790 0.0095 -0.9968
vn -0.0464 0.0716 -0.9963
vn 0.0893 0.1933 0.9771
vn 0.1402 0.1637 0.9765
vn 0.1131 0.1731 0.9784
vn 0.1289 0.1465 0.9808
vn -0.0233 -0.0367 -0.9991
vn -0.0362 0.0430 -0.9984
vn 0.1343 0.1550 0.9787
vn 0.1355 0.0734 0.9881
vn -0.0448 0.0111 -0.9989
vn 0.0015 0.0991 -0.9951
vn 0.1547 0.2409 0.9581
vn 0.1364 0.1688 0.9762
vn 0.1608 0.1680 0.9726
vn 0.1521 0.0520 0.9870
vn -0.0515 0.0457 -0.9976
vn -0.0107 0.0651 -0.9978
vn -0.0159 0.0015 -0.9999
vn -0.0320 -0.0433 -0.9985
vn 0.0046 0.0962 -0.9953
vn 0.3247 0.1873 0.9271
vn 0.1929 0.4394 0.8773
vn 0.2048 0.0866 0.9750
vn -0.1223 -0.0264 -0.9921
vn -0.0254 0.0574 -0.9980
vn 0.2383 0.2342 0.9425
vn 0.2452 0.1017 0.9641
vn 0.2001 0.0541 0.9783
vn -0.0638 0.0840 -0.9944
vn -0.1195 -0.0076 -0.9928
vn 0.1773 0.2311 0.9566
vn 0.2324 0.3514 0.9069
vn 0.2387 0.2866 0.9279
vn 0.3095 0.1156 0.9438
vn -0.0459 0.1029 -0.9936
vn -0.2159 0.0274 -0.9760
vn -0.1355 0.1084 -0.9848
vn -0.0152 0.0916 -0.9957
vn 0.0891 0.1169 0.9891
vn 0.0833 0.1329 0.9876
vn 0.0680 0.0272 0.9973
vn -0.2510 0.1465 0.9568
vn -0.1237 0.0511 -0.9910
vn 0.0331 0.2913 -0.9560
vn 0.0439 0.1472 0.9881
vn -0.1016 0.1144 -0.9882
vn -0.0679 0.0301 -0.9972
vn -0.0171 0.0014 0.9999
vn 0.1684 -0.0114 0.9856
vn -0.0019 0.0725 -0.9974
vn 0.1632 0.3990 -0.9023
vn 0.2084 0.3092 -0.9279
vn 0.5456 0.8374 -0.0335
vn -0.0387 0.1713 -0.9845
vn -0.0432 0.1266 0.9910
vn 0.0753 0.1504 0.9857
vn 0.0586 0.1239 -0.9906
vn 0.0640 0.0682 0.9956
vn 0.0092 0.3549 -0.9348
vn 0.2317 0.1757 0.9568
vn 0.2293 0.2214 0.9478
vn 0.2431 0.1674 0.9555
vn -0.0142 0.0767 -0.9970
vn -0.0155 0.0685 -0.9975
vn 0.1332 0.2337 -0.9631
vn 0.1317 0.2199 -0.9666
vn -0.0613 0.2731 -0.9600
vn 0.2424 0.3176 0.9167
vn 0.3499 0.1512 0.9245
vn 0.3007 0.2980 0.9060
vn 0.0312 0.1784 -0.9835
vn 0.0284 0.1239 -0.9919
vn 0.0899 -0.0636 0.9939
vn 0.1216 -0.2722 0.9545
vn -0.1821 -0.0977 -0.9784
vn -0.0993 0.2523 -0.9625
vn -0.2349 -0.0937 -0.9675
vn 0.1675 -0.1957 0.9662
vn 0.4096 -0.1641 0.8974
vn 0.2241 -0.0590 0.9728
vn 0.0662 -0.0337 0.9972
vn 0.2515 -0.1422 0.9574
vn 0.4148 -0.1369 0.8996
vn -0.2382 -0.0056 -0.9712
vn -0.0152 0.1700 -0.9853
vn -0.0492 0.1106 -0.9926
vn 0.5011 -0.1990 0.8422
vn -0.3222 -0.0845 -0.9429
vn -0.0076 0.1267 -0.9919
vn 0.2093 -0.1730 0.9624
vn 0.3915 -0.1813 0.9022
vn 0.3505 -0.0883 0.9324
vn -0.1434 0.1514 -0.9780
vn 0.3370 -0.1429 0.9306
vn 0.3938 -0.1704 0.9033
vn 0.5225 -0.1876 0.8318
vn 0.0169 -0.0231 -0.9996
vn -0.1322 0.1235 -0.9835
vn -0.1187 0.2097 -0.9705
vn -0.3311 -0.0718 -0.9409
vn -0.2506 0.1571 -0.9553
vn -0.0637 0.2360 -0.9697
vn 0.2839 -0.2503 0.9256
vn 0.3324 -0.1350 0.9334
vn 0.2806 -0.1980 0.9392
vn 0.4738 -0.3267 0.8178
vn 0.4336 -0.1163 0.8935
vn -0.0617 0.1906 -0.9797
vn -0.3635 0.1471 -0.9199
vn -0.2250 -0.0393 -0.9736
vn -0.0809 0.2414 -0.9671
vn 0.3245 -0.1931 0.9260
vn 0.4514 -0.3225 0.8320
vn 0.3225 -0.1931 0.9267
vn 0.3402 -0.3619 0.8679
vn -0.1029 0.1492 -0.9834
vn -0.0168 0.2373 -0.9713
vn -0.0264 0.1218 -0.9922
vn -0.3553 0.1201 -0.9270
vn 0.3397 -0.0432 0.9396
vn 0.3920 -0.2955 0.8712
vn 0.3112 -0.1906 0.9310
vn 0.1607 0.1186 -0.9799
vn 0.4216 -0.3316 0.8440
vn 0.3763 -0.1972 0.9053
vn -0.1438 0.0288 -0.9892
vn -0.1388 0.1650 -0.9765
vn -0.0309 0.2336 -0.9718
vn -0.0867 0.3232 -0.9423
vn -0.0851 0.3455 -0.9346
vn 0.1396 0.1529 -0.9783
vn -0.0926 -0.0098 -0.9957
vn 0.2142 -0.2248 0.9506
vn 0.2044 -0.0809 0.9755
vn 0.3508 -0.3011 0.8867
vn 0.0240 -0.0210 -0.9995
vn 0.4769 -0.0728 0.8759
vn 0.4645 -0.2758 0.8415
vn 0.4570 -0.1849 0.8700
vn 0.3777 -0.3326 0.8641
vn 0.0441 0.1960 -0.9796
vn -0.2990 0.1693 -0.9391
vn -0.0622 0.1798 -0.9817
vn 0.1461 -0.5369 -0.8309
vn 0.5200 0.3837 -0.7631
vn 0.0185 -0.0270 -0.9995
vn 0.5728 -0.1295 0.8094
vn 0.6319 -0.2426 0.7361
vn 0.7263 -0.0882 -0.6817
vn -0.0979 0.0921 -0.9909
vn -0.0452 0.1306 -0.9904
vn 0.7445 -0.1187 0.6570
vn 0.6120 -0.1970 0.7659
vn 0.7000 -0.0648 0.7112
vn 0.5778 -0.1700 0.7983
vn 0.8076 -0.4031 -0.4304
vn 0.8318 -0.0936 -0.5471
vn -0.1111 0.1325 -0.9849
vn 0.9851 0.0753 -0.1544
vn 0.9757 0.1017 -0.1943
vn 0.9625 -0.1134 -0.2465
vn 0.9617 -0.1095 -0.2511
vn 0.0395 0.1996 0.9791
vn 0.0870 0.2886 0.9535
vn 0.0923 0.0726 0.9931
vn 0.0558 0.3118 0.9485
vn -0.2348 -0.1119 -0.9656
vn -0.1092 -0.1155 -0.9873
vn 0.0961 0.1574 0.9828
vn 0.0978 0.3895 0.9158
vn 0.1063 0.3286 0.9385
vn -0.0567 0.0078 -0.9984
vn 0.0049 0.0220 -0.9997
vn -0.1654 -0.0111 -0.9862
vn 0.1035 0.0735 0.9919
vn 0.1608 0.3193 0.9339
vn 0.1629 0.3313 0.9294
vn -0.0239 0.0759 -0.9968
vn -0.1094 -0.2850 -0.9523
vn -0.0206 -0.0639 -0.9977
vn 0.1876 -0.2355 0.9536
vn 0.0986 0.0774 0.9921
vn 0.2022 0.2835 0.9374
vn 0.0386 0.0409 -0.9984
vn -0.0618 -0.2652 -0.9622
vn -0.0301 -0.0010 -0.9995
vn -0.0786 -0.0446 -0.9959
vn 0.3608 0.2617 0.8952
vn -0.0147 -0.0314 -0.9994
vn -0.0749 -0.0779 -0.9941
vn 0.3213 0.1393 0.9367
vn 0.3463 -0.2493 0.9044
vn 0.3309 0.2842 0.8998
vn 0.3465 0.2451 0.9055
vn 0.3047 0.3443 0.8881
vn 0.2378 0.4225 0.8746
vn -0.0480 0.0228 -0.9986
vn -0.1501 -0.2324 -0.9610
vn 0.0248 0.0127 -0.9996
vn 0.3881 0.2906 0.8746
vn 0.2932 0.3221 0.9002
vn 0.0698 -0.1707 -0.9828
vn 0.0889 -0.0693 -0.9936
vn 0.4774 0.0110 0.8786
vn -0.0385 0.0191 -0.9991
vn 0.0456 -0.0559 -0.9974
vn 0.0641 -0.0203 -0.9977
vn 0.0629 -0.0107 -0.9980
vn 0.1911 -0.0287 0.9811
vn 0.3622 0.2367 0.9016
vn 0.4177 0.3046 0.8560
vn -0.0718 -0.0348 -0.9968
vn 0.0578 -0.1024 -0.9931
vn 0.3904 -0.1795 0.9030
vn 0.3783 0.3012 0.8753
vn 0.6070 -0.1421 0.7819
vn 0.3463 0.2319 0.9090
vn 0.4172 0.3026 0.8570
vn 0.4457 0.2664 0.8546
vn -0.0355 -0.1316 -0.9907
vn 0.4771 -0.0744 0.8757
vn 0.6193 -0.1218 0.7757
vn 0.4758 0.2995 0.8270
vn 0.4229 0.3651 0.8294
vn 0.9488 0.3097 0.0618
vn 0.0228 -0.0464 -0.9987
vn 0.8817 0.3886 -0.2675
vn -0.1857 0.1444 -0.9719
vn 0.0238 -0.1048 -0.9942
vn 0.0714 -0.0231 -0.9972
vn 0.9886 0.0428 -0.1445
vn 0.6743 0.0432 0.7372
vn 0.4279 0.1544 0.8905
vn 0.4185 0.1983 0.8863
vn 0.5378 0.3152 0.7819
vn -0.1689 0.2300 -0.9584
vn 0.8803 0.3948 -0.2631
vn 0.6820 -0.1623 0.7131
vn 0.9829 0.1421 -0.1170
vn 0.9652 0.2565 -0.0504
vn 0.0003 -0.0804 -0.9968
vn 0.7537 -0.0171 0.6570
vn 0.9884 -0.0772 0.1305
vn 0.9260 0.2358 -0.2949
vn 0.9342 0.3313 0.1325
vn 0.9280 0.3168 -0.1962
vn 0.9696 0.0418 -0.2411
vn 0.2083 0.0831 0.9745
vn 0.8940 0.4399 -0.0847
vn -0.0262 0.0441 -0.9987
vn -0.0040 0.0441 -0.9990
vn 0.1956 0.1435 0.9701
vn 0.1296 0.0991 -0.9866
vn -0.0865 0.0313 -0.9958
vn -0.1091 0.0901 -0.9899
vn 0.3652 0.0661 0.9286
vn 0.3526 0.1099 0.9293
vn 0.0029 0.0515 -0.9987
vn -0.0125 0.2987 -0.9543
vn 0.5726 0.8009 -0.1752
vn -0.0668 0.0705 -0.9953
vn 0.2154 0.2744 0.9372
vn 0.2257 0.1014 0.9689
vn 0.2415 0.3529 0.9039
vn 0.2594 0.2202 0.9403
vn 0.2154 0.1970 0.9565
vn 0.0706 -0.0259 -0.9972
vn -0.1029 0.0276 -0.9943
vn -0.0480 0.1110 -0.9927
vn 0.0180 0.3375 -0.9412
vn 0.3921 0.1875 0.9006
vn 0.2388 0.3562 0.9034
vn 0.3867 0.2111 0.8977
vn 0.3130 0.2550 0.9149
vn 0.5221 0.5017 -0.6897
vn -0.0056 -0.1049 -0.9945
vn -0.0536 0.1186 -0.9915
vn 0.3149 0.2478 0.9162
vn -0.0368 -0.1221 -0.9918
vn 0.0738 0.0755 -0.9944
vn 0.0589 0.1144 -0.9917
vn 0.3045 0.3803 -0.8733
vn 0.2989 0.3102 -0.9025
vn 0.3508 0.3953 0.8489
vn 0.4122 0.5448 0.7302
vn 0.5934 -0.0055 0.8049
vn 0.9631 0.2532 0.0910
s 0
usemtl mat_Stegosaurus_BackPlate
f 3//1 1//1 35//1
f 2//2 1//2 3//2
f 5//3 8//3 2//3
f 2//4 8//4 1//4
f 6//5 2//5 3//5
f 4//6 6//6 3//6
f 5//7 2//7 9//7
f 6//8 9//8 2//8
f 6//9 4//9 14//9
f 14//10 4//10 40//10
f 11//11 40//11 7//11
f 14//12 40//12 11//12
f 8//13 5//13 12//13
f 13//14 6//14 14//14
f 229//15 5//15 9//15
f 229//16 12//16 5//16
f 13//17 9//17 6//17
f 10//18 13//18 14//18
f 11//19 10//19 14//19
f 107//20 15//20 106//20
f 16//21 15//21 107//21
f 15//22 17//22 110//22
f 19//23 17//23 15//23
f 19//24 15//24 20//24
f 16//25 20//25 15//25
f 17//26 19//26 18//26
f 23//27 19//27 20//27
f 28//28 23//28 20//28
f 28//29 20//29 21//29
f 19//30 23//30 22//30
f 21//31 25//31 28//31
f 24//32 21//32 20//32
f 16//33 24//33 20//33
f 19//34 22//34 18//34
f 26//35 23//35 28//35
f 27//36 26//36 28//36
f 24//37 16//37 121//37
f 26//38 30//38 31//38
f 23//39 26//39 31//39
f 23//40 31//40 22//40
f 37//41 29//41 35//41
f 35//42 26//42 27//42
f 35//43 29//43 26//43
f 32//44 35//44 27//44
f 121//45 34//45 24//45
f 25//46 32//46 27//46
f 27//47 28//47 25//47
f 33//48 25//48 21//48
f 18//49 22//49 36//49
f 1//50 37//50 35//50
f 3//51 35//51 32//51
f 3//52 32//52 4//52
f 38//53 32//53 25//53
f 34//54 33//54 21//54
f 34//55 21//55 24//55
f 22//56 31//56 36//56
f 26//57 29//57 30//57
f 39//58 38//58 25//58
f 33//59 39//59 25//59
f 40//60 4//60 32//60
f 32//61 38//61 40//61
f 29//62 37//62 41//62
f 31//63 30//63 42//63
f 48//64 34//64 121//64
f 49//65 33//65 34//65
f 38//66 7//66 40//66
f 37//67 1//67 41//67
f 41//68 1//68 44//68
f 31//69 42//69 36//69
f 29//70 41//70 30//70
f 49//71 34//71 48//71
f 128//72 48//72 121//72
f 49//73 39//73 33//73
f 41//74 44//74 46//74
f 30//75 41//75 47//75
f 30//76 47//76 42//76
f 1//77 8//77 44//77
f 42//78 261//78 36//78
f 50//79 49//79 48//79
f 51//80 7//80 38//80
f 262//81 7//81 51//81
f 51//82 38//82 39//82
f 262//83 11//83 7//83
f 55//84 52//84 53//84
f 52//85 54//85 53//85
f 52//86 59//86 54//86
f 60//87 54//87 59//87
f 53//88 54//88 95//88
f 56//89 59//89 55//89
f 59//90 52//90 55//90
f 56//91 55//91 57//91
f 102//92 59//92 62//92
f 56//93 62//93 59//93
f 57//94 58//94 56//94
f 102//95 60//95 59//95
f 61//96 62//96 56//96
f 58//97 61//97 56//97
f 60//98 102//98 100//98
f 103//99 102//99 62//99
f 69//100 68//100 64//100
f 63//101 65//101 64//101
f 64//102 65//102 66//102
f 65//103 67//103 66//103
f 64//104 68//104 63//104
f 65//105 63//105 70//105
f 65//106 71//106 67//106
f 68//107 69//107 57//107
f 72//108 69//108 64//108
f 72//109 64//109 66//109
f 72//110 66//110 77//110
f 73//111 67//111 87//111
f 66//112 67//112 77//112
f 68//113 74//113 63//113
f 70//114 63//114 76//114
f 55//115 68//115 57//115
f 65//116 70//116 71//116
f 75//117 77//117 67//117
f 75//118 67//118 73//118
f 68//119 55//119 53//119
f 68//120 53//120 74//120
f 63//121 74//121 76//121
f 84//122 57//122 69//122
f 72//123 84//123 69//123
f 78//124 77//124 75//124
f 79//125 84//125 72//125
f 77//126 79//126 72//126
f 91//127 75//127 73//127
f 80//128 79//128 77//128
f 81//129 78//129 75//129
f 81//130 75//130 91//130
f 74//131 53//131 142//131
f 71//132 70//132 82//132
f 71//133 82//133 83//133
f 84//134 58//134 57//134
f 80//135 77//135 78//135
f 76//136 74//136 85//136
f 70//137 76//137 86//137
f 70//138 86//138 82//138
f 141//139 80//139 78//139
f 79//140 140//140 84//140
f 67//141 71//141 87//141
f 87//142 88//142 89//142
f 87//143 71//143 92//143
f 88//144 87//144 92//144
f 91//145 73//145 87//145
f 91//146 87//146 89//146
f 89//147 88//147 90//147
f 71//148 83//148 92//148
f 88//149 92//149 90//149
f 89//150 90//150 184//150
f 94//151 89//151 184//151
f 90//152 92//152 93//152
f 89//153 94//153 91//153
f 184//154 90//154 93//154
f 54//155 60//155 105//155
f 54//156 105//156 96//156
f 54//157 96//157 95//157
f 97//158 112//158 122//158
f 97//159 122//159 98//159
f 122//160 126//160 99//160
f 108//161 101//161 102//161
f 100//162 102//162 101//162
f 108//163 102//163 103//163
f 60//164 100//164 105//164
f 106//165 101//165 108//165
f 107//166 106//166 108//166
f 109//167 103//167 62//167
f 109//168 62//168 61//168
f 109//169 61//169 104//169
f 104//170 61//170 58//170
f 101//171 106//171 110//171
f 111//172 108//172 103//172
f 16//173 107//173 108//173
f 111//174 103//174 115//174
f 109//175 115//175 103//175
f 100//176 101//176 112//176
f 105//177 100//177 112//177
f 106//178 15//178 110//178
f 111//179 16//179 108//179
f 113//180 109//180 104//180
f 114//181 113//181 104//181
f 101//182 110//182 112//182
f 105//183 112//183 97//183
f 96//184 105//184 97//184
f 116//185 115//185 109//185
f 109//186 113//186 116//186
f 112//187 110//187 118//187
f 117//188 114//188 104//188
f 118//189 17//189 18//189
f 118//190 110//190 17//190
f 112//191 118//191 126//191
f 96//192 97//192 120//192
f 121//193 16//193 111//193
f 121//194 111//194 123//194
f 123//195 111//195 115//195
f 123//196 115//196 116//196
f 119//197 113//197 114//197
f 117//198 119//198 114//198
f 126//199 122//199 112//199
f 120//200 97//200 98//200
f 123//201 116//201 124//201
f 125//202 116//202 113//202
f 125//203 113//203 119//203
f 118//204 127//204 126//204
f 124//205 116//205 125//205
f 117//206 125//206 119//206
f 129//207 125//207 117//207
f 118//208 18//208 127//208
f 122//209 99//209 98//209
f 128//210 121//210 123//210
f 161//211 129//211 117//211
f 36//212 43//212 18//212
f 18//213 43//213 127//213
f 126//214 127//214 99//214
f 99//215 130//215 131//215
f 98//216 99//216 131//216
f 98//217 134//217 120//217
f 124//218 128//218 123//218
f 125//219 132//219 124//219
f 170//220 129//220 161//220
f 120//221 134//221 163//221
f 170//222 125//222 129//222
f 36//223 45//223 43//223
f 127//224 43//224 133//224
f 99//225 127//225 133//225
f 98//226 131//226 134//226
f 137//227 124//227 132//227
f 138//228 125//228 170//228
f 43//229 135//229 133//229
f 99//230 133//230 130//230
f 130//231 136//231 131//231
f 137//232 128//232 124//232
f 132//233 125//233 138//233
f 130//234 133//234 136//234
f 134//235 131//235 338//235
f 337//236 137//236 132//236
f 337//237 132//237 138//237
f 139//238 170//238 179//238
f 139//239 138//239 170//239
f 53//240 95//240 142//240
f 74//241 142//241 85//241
f 76//242 85//242 86//242
f 140//243 79//243 80//243
f 141//244 78//244 81//244
f 145//245 141//245 81//245
f 185//246 81//246 91//246
f 82//247 144//247 83//247
f 84//248 104//248 58//248
f 140//249 104//249 84//249
f 185//250 145//250 81//250
f 148//251 80//251 141//251
f 95//252 146//252 142//252
f 142//253 146//253 85//253
f 85//254 149//254 86//254
f 82//255 86//255 143//255
f 144//256 82//256 143//256
f 148//257 141//257 145//257
f 147//258 104//258 140//258
f 148//259 140//259 80//259
f 85//260 146//260 149//260
f 147//261 140//261 148//261
f 95//262 96//262 153//262
f 143//263 86//263 149//263
f 143//264 149//264 150//264
f 117//265 104//265 147//265
f 148//266 152//266 147//266
f 151//267 145//267 185//267
f 146//268 95//268 153//268
f 153//269 96//269 120//269
f 149//270 146//270 154//270
f 144//271 143//271 155//271
f 156//272 148//272 145//272
f 156//273 145//273 151//273
f 168//274 156//274 151//274
f 153//275 120//275 157//275
f 146//276 153//276 157//276
f 146//277 157//277 154//277
f 149//278 154//278 158//278
f 149//279 158//279 150//279
f 143//280 150//280 155//280
f 161//281 117//281 147//281
f 152//282 161//282 147//282
f 156//283 152//283 148//283
f 150//284 158//284 159//284
f 160//285 168//285 151//285
f 162//286 152//286 156//286
f 154//287 157//287 165//287
f 150//288 159//288 166//288
f 150//289 166//289 155//289
f 168//290 162//290 156//290
f 157//291 120//291 163//291
f 157//292 163//292 164//292
f 154//293 165//293 158//293
f 167//294 161//294 152//294
f 167//295 152//295 162//295
f 169//296 168//296 160//296
f 157//297 164//297 165//297
f 159//298 158//298 173//298
f 174//299 170//299 161//299
f 176//300 162//300 168//300
f 164//301 163//301 171//301
f 165//302 164//302 172//302
f 158//303 165//303 173//303
f 174//304 161//304 167//304
f 175//305 167//305 162//305
f 176//306 175//306 162//306
f 169//307 176//307 168//307
f 165//308 172//308 173//308
f 159//309 173//309 178//309
f 174//310 167//310 175//310
f 163//311 134//311 171//311
f 179//312 170//312 174//312
f 182//313 174//313 175//313
f 176//314 169//314 177//314
f 134//315 338//315 380//315
f 171//316 134//316 380//316
f 164//317 171//317 172//317
f 173//318 172//318 383//318
f 181//319 182//319 175//319
f 181//320 175//320 176//320
f 182//321 179//321 174//321
f 92//322 83//322 183//322
f 94//323 185//323 91//323
f 83//324 144//324 183//324
f 93//325 92//325 183//325
f 189//326 94//326 184//326
f 184//327 93//327 186//327
f 93//328 188//328 186//328
f 189//329 185//329 94//329
f 93//330 183//330 188//330
f 186//331 190//331 187//331
f 151//332 185//332 189//332
f 189//333 184//333 195//333
f 195//334 184//334 186//334
f 187//335 190//335 191//335
f 144//336 192//336 183//336
f 186//337 188//337 193//337
f 186//338 193//338 190//338
f 194//339 151//339 189//339
f 192//340 144//340 155//340
f 183//341 192//341 188//341
f 188//342 198//342 193//342
f 195//343 186//343 187//343
f 191//344 190//344 196//344
f 190//345 197//345 196//345
f 194//346 189//346 195//346
f 195//347 187//347 191//347
f 198//348 188//348 192//348
f 201//349 194//349 195//349
f 198//350 192//350 202//350
f 190//351 193//351 200//351
f 160//352 151//352 194//352
f 201//353 160//353 194//353
f 203//354 195//354 191//354
f 206//355 203//355 191//355
f 206//356 191//356 196//356
f 192//357 155//357 202//357
f 193//358 198//358 200//358
f 190//359 200//359 199//359
f 203//360 201//360 195//360
f 219//361 206//361 196//361
f 155//362 166//362 207//362
f 202//363 155//363 207//363
f 198//364 202//364 204//364
f 205//365 160//365 201//365
f 198//366 204//366 200//366
f 205//367 169//367 160//367
f 166//368 159//368 207//368
f 204//369 202//369 211//369
f 200//370 204//370 214//370
f 204//371 217//371 214//371
f 212//372 169//372 205//372
f 208//373 205//373 201//373
f 208//374 201//374 203//374
f 213//375 208//375 203//375
f 213//376 203//376 206//376
f 209//377 206//377 219//377
f 212//378 177//378 169//378
f 208//379 212//379 205//379
f 207//380 159//380 178//380
f 202//381 207//381 210//381
f 202//382 210//382 211//382
f 200//383 214//383 215//383
f 216//384 213//384 206//384
f 209//385 216//385 206//385
f 204//386 211//386 217//386
f 218//387 212//387 208//387
f 218//388 208//388 213//388
f 190//389 199//389 197//389
f 219//390 196//390 197//390
f 220//391 197//391 222//391
f 220//392 219//392 197//392
f 197//393 221//393 222//393
f 197//394 199//394 221//394
f 223//395 219//395 220//395
f 221//396 199//396 215//396
f 199//397 200//397 215//397
f 224//398 223//398 220//398
f 225//399 220//399 222//399
f 222//400 221//400 463//400
f 223//401 209//401 219//401
f 225//402 224//402 220//402
f 225//403 222//403 463//403
f 225//404 463//404 226//404
f 227//405 209//405 223//405
f 227//406 223//406 224//406
f 277//407 251//407 228//407
f 8//408 12//408 233//408
f 230//409 229//409 9//409
f 230//410 9//410 13//410
f 11//411 262//411 231//411
f 10//412 232//412 13//412
f 231//413 10//413 11//413
f 12//414 234//414 241//414
f 229//415 234//415 12//415
f 242//416 234//416 230//416
f 234//417 229//417 230//417
f 232//418 230//418 13//418
f 232//419 10//419 235//419
f 271//420 231//420 262//420
f 238//421 10//421 231//421
f 12//422 241//422 233//422
f 10//423 236//423 235//423
f 236//424 10//424 237//424
f 237//425 10//425 238//425
f 271//426 238//426 231//426
f 244//427 234//427 242//427
f 235//428 242//428 230//428
f 239//429 242//429 235//429
f 240//430 238//430 271//430
f 241//431 234//431 244//431
f 236//432 243//432 235//432
f 235//433 243//433 239//433
f 237//434 243//434 236//434
f 245//435 238//435 240//435
f 247//436 242//436 239//436
f 237//437 238//437 250//437
f 250//438 243//438 237//438
f 244//439 251//439 277//439
f 241//440 244//440 277//440
f 247//441 244//441 242//441
f 247//442 239//442 246//442
f 249//443 243//443 250//443
f 245//444 250//444 238//444
f 251//445 244//445 247//445
f 246//446 248//446 247//446
f 239//447 243//447 246//447
f 243//448 249//448 246//448
f 252//449 250//449 245//449
f 248//450 251//450 247//450
f 258//451 249//451 250//451
f 252//452 258//452 250//452
f 253//453 251//453 248//453
f 254//454 248//454 246//454
f 246//455 255//455 254//455
f 246//456 249//456 255//456
f 258//457 255//457 249//457
f 289//458 258//458 252//458
f 254//459 253//459 248//459
f 257//460 256//460 254//460
f 254//461 255//461 257//461
f 257//462 255//462 258//462
f 259//463 258//463 289//463
f 256//464 253//464 254//464
f 259//465 257//465 258//465
f 36//466 261//466 45//466
f 8//467 233//467 44//467
f 47//468 41//468 260//468
f 50//469 266//469 49//469
f 334//470 48//470 128//470
f 50//471 48//471 334//471
f 51//472 39//472 49//472
f 266//473 51//473 49//473
f 41//474 46//474 260//474
f 265//475 262//475 51//475
f 45//476 261//476 263//476
f 46//477 44//477 233//477
f 42//478 47//478 261//478
f 264//479 230//479 232//479
f 232//480 235//480 339//480
f 264//481 232//481 339//481
f 266//482 265//482 51//482
f 267//483 50//483 334//483
f 47//484 260//484 268//484
f 261//485 47//485 274//485
f 230//486 264//486 339//486
f 339//487 235//487 230//487
f 269//488 265//488 266//488
f 267//489 266//489 50//489
f 271//490 262//490 265//490
f 46//491 233//491 272//491
f 260//492 46//492 272//492
f 47//493 268//493 274//493
f 260//494 272//494 268//494
f 267//495 276//495 266//495
f 267//496 334//496 342//496
f 270//497 271//497 265//497
f 233//498 241//498 272//498
f 268//499 272//499 273//499
f 261//500 274//500 263//500
f 275//501 263//501 274//501
f 276//502 269//502 266//502
f 269//503 270//503 265//503
f 267//504 342//504 278//504
f 272//505 241//505 277//505
f 274//506 268//506 280//506
f 281//507 269//507 276//507
f 286//508 271//508 270//508
f 268//509 273//509 279//509
f 268//510 279//510 280//510
f 274//511 280//511 275//511
f 275//512 280//512 285//512
f 281//513 282//513 269//513
f 286//514 270//514 269//514
f 276//515 267//515 278//515
f 277//516 228//516 272//516
f 272//517 284//517 273//517
f 282//518 286//518 269//518
f 283//519 281//519 276//519
f 276//520 278//520 283//520
f 286//521 240//521 271//521
f 272//522 228//522 284//522
f 282//523 281//523 287//523
f 364//524 283//524 278//524
f 289//525 245//525 240//525
f 289//526 240//526 286//526
f 273//527 284//527 290//527
f 288//528 286//528 282//528
f 287//529 281//529 283//529
f 286//530 288//530 289//530
f 273//531 290//531 291//531
f 279//532 273//532 291//532
f 280//533 279//533 285//533
f 295//534 282//534 287//534
f 292//535 287//535 283//535
f 292//536 283//536 364//536
f 288//537 293//537 289//537
f 289//538 252//538 245//538
f 251//539 253//539 228//539
f 284//540 228//540 296//540
f 294//541 285//541 279//541
f 284//542 296//542 290//542
f 295//543 288//543 282//543
f 296//544 228//544 253//544
f 296//545 253//545 256//545
f 279//546 291//546 294//546
f 300//547 293//547 288//547
f 288//548 295//548 300//548
f 295//549 287//549 292//549
f 259//550 289//550 293//550
f 290//551 296//551 298//551
f 296//552 297//552 298//552
f 291//553 290//553 298//553
f 303//554 296//554 256//554
f 299//555 296//555 303//555
f 256//556 257//556 303//556
f 301//557 295//557 292//557
f 296//558 299//558 297//558
f 291//559 298//559 302//559
f 294//560 291//560 304//560
f 291//561 302//561 304//561
f 301//562 292//562 311//562
f 306//563 259//563 293//563
f 293//564 300//564 306//564
f 305//565 303//565 257//565
f 306//566 257//566 259//566
f 307//567 300//567 295//567
f 298//568 297//568 308//568
f 302//569 298//569 308//569
f 297//570 299//570 310//570
f 305//571 299//571 303//571
f 305//572 257//572 306//572
f 307//573 295//573 301//573
f 314//574 307//574 301//574
f 307//575 306//575 300//575
f 304//576 302//576 312//576
f 305//577 310//577 299//577
f 313//578 305//578 306//578
f 313//579 306//579 307//579
f 311//580 314//580 301//580
f 379//581 315//581 311//581
f 297//582 310//582 308//582
f 302//583 308//583 312//583
f 310//584 305//584 313//584
f 313//585 307//585 314//585
f 315//586 314//586 311//586
f 308//587 310//587 316//587
f 322//588 314//588 315//588
f 317//589 315//589 379//589
f 316//590 310//590 313//590
f 308//591 323//591 312//591
f 312//592 323//592 320//592
f 321//593 316//593 313//593
f 313//594 314//594 322//594
f 321//595 313//595 322//595
f 317//596 318//596 315//596
f 316//597 319//597 308//597
f 322//598 315//598 318//598
f 308//599 319//599 323//599
f 319//600 316//600 321//600
f 323//601 327//601 320//601
f 324//602 322//602 318//602
f 325//603 324//603 318//603
f 325//604 318//604 317//604
f 319//605 321//605 322//605
f 325//606 317//606 326//606
f 319//607 328//607 323//607
f 323//608 328//608 327//608
f 329//609 325//609 326//609
f 324//610 328//610 319//610
f 324//611 319//611 322//611
f 330//612 324//612 325//612
f 330//613 325//613 329//613
f 327//614 328//614 331//614
f 327//615 331//615 332//615
f 330//616 328//616 324//616
f 331//617 330//617 329//617
f 332//618 331//618 504//618
f 328//619 330//619 331//619
f 43//620 45//620 333//620
f 136//621 133//621 341//621
f 338//622 131//622 136//622
f 335//623 128//623 137//623
f 135//624 43//624 333//624
f 133//625 135//625 341//625
f 334//626 128//626 335//626
f 337//627 335//627 137//627
f 136//628 341//628 336//628
f 340//629 335//629 337//629
f 344//630 337//630 138//630
f 343//631 340//631 337//631
f 45//632 263//632 333//632
f 135//633 333//633 341//633
f 136//634 336//634 338//634
f 139//635 344//635 138//635
f 344//636 139//636 381//636
f 343//637 337//637 344//637
f 336//638 341//638 345//638
f 338//639 336//639 349//639
f 342//640 334//640 335//640
f 340//641 342//641 335//641
f 347//642 343//642 344//642
f 346//643 344//643 381//643
f 341//644 333//644 354//644
f 350//645 343//645 347//645
f 347//646 344//646 346//646
f 351//647 340//647 343//647
f 263//648 275//648 333//648
f 333//649 348//649 354//649
f 341//650 354//650 345//650
f 345//651 352//651 336//651
f 351//652 342//652 340//652
f 350//653 351//653 343//653
f 275//654 285//654 353//654
f 333//655 275//655 348//655
f 349//656 336//656 355//656
f 345//657 354//657 352//657
f 352//658 354//658 356//658
f 352//659 355//659 336//659
f 363//660 347//660 346//660
f 348//661 275//661 353//661
f 357//662 350//662 347//662
f 399//663 363//663 346//663
f 364//664 278//664 342//664
f 358//665 364//665 342//665
f 358//666 342//666 351//666
f 359//667 351//667 350//667
f 355//668 352//668 362//668
f 348//669 361//669 354//669
f 352//670 356//670 362//670
f 363//671 357//671 347//671
f 355//672 362//672 360//672
f 348//673 353//673 361//673
f 354//674 361//674 356//674
f 358//675 351//675 359//675
f 356//676 365//676 362//676
f 367//677 357//677 363//677
f 375//678 364//678 358//678
f 366//679 358//679 359//679
f 366//680 359//680 350//680
f 357//681 366//681 350//681
f 285//682 294//682 361//682
f 353//683 285//683 361//683
f 356//684 361//684 370//684
f 356//685 370//685 365//685
f 362//686 365//686 371//686
f 368//687 367//687 363//687
f 369//688 358//688 366//688
f 360//689 362//689 372//689
f 375//690 292//690 364//690
f 375//691 358//691 369//691
f 366//692 357//692 373//692
f 373//693 357//693 367//693
f 361//694 294//694 374//694
f 362//695 371//695 372//695
f 376//696 369//696 366//696
f 376//697 366//697 373//697
f 361//698 374//698 370//698
f 475//699 372//699 371//699
f 294//700 304//700 374//700
f 370//701 374//701 377//701
f 418//702 367//702 368//702
f 378//703 367//703 418//703
f 379//704 292//704 375//704
f 369//705 379//705 375//705
f 378//706 373//706 367//706
f 172//707 171//707 180//707
f 172//708 180//708 383//708
f 178//709 173//709 391//709
f 381//710 179//710 182//710
f 382//711 176//711 177//711
f 181//712 176//712 382//712
f 171//713 380//713 393//713
f 171//714 393//714 180//714
f 391//715 173//715 383//715
f 385//716 182//716 181//716
f 384//717 385//717 181//717
f 382//718 384//718 181//718
f 424//719 382//719 177//719
f 387//720 383//720 180//720
f 391//721 383//721 387//721
f 381//722 139//722 179//722
f 381//723 182//723 385//723
f 384//724 382//724 424//724
f 380//725 338//725 349//725
f 380//726 386//726 393//726
f 180//727 393//727 387//727
f 387//728 390//728 391//728
f 388//729 381//729 385//729
f 384//730 388//730 385//730
f 349//731 386//731 380//731
f 394//732 346//732 381//732
f 394//733 381//733 388//733
f 389//734 384//734 424//734
f 386//735 349//735 355//735
f 404//736 393//736 386//736
f 387//737 393//737 395//737
f 387//738 396//738 390//738
f 397//739 388//739 384//739
f 389//740 392//740 384//740
f 386//741 355//741 404//741
f 393//742 404//742 395//742
f 396//743 387//743 395//743
f 397//744 394//744 388//744
f 392//745 397//745 384//745
f 355//746 401//746 404//746
f 396//747 398//747 390//747
f 400//748 397//748 392//748
f 399//749 346//749 394//749
f 403//750 394//750 397//750
f 402//751 389//751 439//751
f 396//752 395//752 406//752
f 398//753 396//753 406//753
f 403//754 399//754 394//754
f 403//755 397//755 400//755
f 402//756 400//756 392//756
f 389//757 402//757 392//757
f 402//758 439//758 412//758
f 401//759 355//759 360//759
f 398//760 406//760 411//760
f 400//761 407//761 403//761
f 404//762 401//762 408//762
f 395//763 404//763 408//763
f 405//764 395//764 408//764
f 395//765 405//765 406//765
f 409//766 399//766 403//766
f 410//767 400//767 402//767
f 401//768 360//768 417//768
f 368//769 363//769 399//769
f 409//770 368//770 399//770
f 407//771 409//771 403//771
f 410//772 407//772 400//772
f 401//773 417//773 408//773
f 406//774 405//774 414//774
f 406//775 414//775 411//775
f 416//776 415//776 410//776
f 416//777 410//777 402//777
f 416//778 402//778 412//778
f 408//779 413//779 405//779
f 410//780 409//780 407//780
f 360//781 372//781 417//781
f 408//782 417//782 420//782
f 408//783 420//783 413//783
f 418//784 368//784 409//784
f 419//785 409//785 410//785
f 415//786 419//786 410//786
f 405//787 512//787 414//787
f 411//788 414//788 421//788
f 419//789 418//789 409//789
f 461//790 415//790 416//790
f 207//791 178//791 428//791
f 207//792 428//792 422//792
f 207//793 422//793 210//793
f 217//794 211//794 423//794
f 424//795 177//795 212//795
f 426//796 424//796 212//796
f 218//797 427//797 212//797
f 425//798 216//798 209//798
f 216//799 218//799 213//799
f 214//800 217//800 430//800
f 426//801 212//801 427//801
f 178//802 391//802 428//802
f 210//803 422//803 429//803
f 210//804 429//804 211//804
f 217//805 423//805 430//805
f 427//806 218//806 436//806
f 216//807 436//807 218//807
f 431//808 436//808 216//808
f 425//809 431//809 216//809
f 423//810 211//810 429//810
f 389//811 424//811 426//811
f 435//812 426//812 427//812
f 436//813 435//813 427//813
f 432//814 431//814 425//814
f 391//815 390//815 398//815
f 391//816 398//816 433//816
f 428//817 391//817 433//817
f 422//818 428//818 434//818
f 428//819 433//819 434//819
f 422//820 434//820 429//820
f 430//821 423//821 443//821
f 435//822 389//822 426//822
f 440//823 431//823 432//823
f 429//824 442//824 423//824
f 439//825 389//825 435//825
f 440//826 435//826 436//826
f 440//827 436//827 431//827
f 437//828 440//828 432//828
f 433//829 398//829 441//829
f 433//830 441//830 434//830
f 438//831 429//831 434//831
f 442//832 429//832 438//832
f 423//833 442//833 443//833
f 445//834 439//834 435//834
f 445//835 435//835 440//835
f 448//836 440//836 437//836
f 398//837 411//837 441//837
f 441//838 447//838 444//838
f 434//839 441//839 444//839
f 434//840 444//840 438//840
f 446//841 439//841 445//841
f 448//842 445//842 440//842
f 438//843 444//843 442//843
f 443//844 442//844 449//844
f 446//845 412//845 439//845
f 448//846 437//846 451//846
f 441//847 411//847 453//847
f 447//848 441//848 453//848
f 442//849 444//849 452//849
f 449//850 442//850 452//850
f 450//851 445//851 448//851
f 472//852 451//852 437//852
f 446//853 416//853 412//853
f 450//854 446//854 445//854
f 451//855 450//855 448//855
f 453//856 456//856 447//856
f 474//857 449//857 458//857
f 449//858 452//858 458//858
f 454//859 416//859 446//859
f 455//860 451//860 472//860
f 447//861 550//861 444//861
f 452//862 444//862 550//862
f 452//863 550//863 457//863
f 451//864 459//864 450//864
f 450//865 454//865 446//865
f 411//866 421//866 453//866
f 421//867 460//867 453//867
f 456//868 453//868 460//868
f 447//869 456//869 550//869
f 455//870 459//870 451//870
f 461//871 416//871 454//871
f 425//872 209//872 227//872
f 227//873 224//873 225//873
f 215//874 214//874 462//874
f 221//875 215//875 462//875
f 221//876 462//876 463//876
f 463//877 464//877 226//877
f 465//878 227//878 225//878
f 465//879 225//879 226//879
f 214//880 430//880 462//880
f 432//881 425//881 227//881
f 467//882 227//882 465//882
f 463//883 462//883 468//883
f 464//884 463//884 466//884
f 469//885 467//885 465//885
f 469//886 465//886 466//886
f 466//887 465//887 226//887
f 464//888 466//888 226//888
f 432//889 227//889 467//889
f 462//890 430//890 468//890
f 463//891 468//891 466//891
f 437//892 432//892 467//892
f 430//893 443//893 468//893
f 470//894 469//894 466//894
f 466//895 468//895 470//895
f 468//896 443//896 471//896
f 468//897 471//897 470//897
f 469//898 472//898 467//898
f 472//899 437//899 467//899
f 472//900 469//900 471//900
f 471//901 469//901 470//901
f 473//902 472//902 471//902
f 443//903 449//903 473//903
f 443//904 473//904 471//904
f 473//905 449//905 474//905
f 474//906 455//906 472//906
f 474//907 472//907 473//907
f 371//908 365//908 478//908
f 371//909 478//909 475//909
f 379//910 311//910 292//910
f 477//911 373//911 378//911
f 476//912 379//912 369//912
f 475//913 478//913 372//913
f 374//914 309//914 377//914
f 370//915 377//915 480//915
f 365//916 370//916 478//916
f 370//917 480//917 478//917
f 304//918 309//918 374//918
f 376//919 476//919 369//919
f 479//920 376//920 373//920
f 477//921 479//921 373//921
f 309//922 304//922 312//922
f 379//923 476//923 481//923
f 479//924 476//924 376//924
f 372//925 478//925 482//925
f 377//926 485//926 483//926
f 480//927 377//927 483//927
f 486//928 479//928 477//928
f 478//929 480//929 484//929
f 485//930 377//930 309//930
f 312//931 320//931 309//931
f 520//932 378//932 513//932
f 486//933 487//933 479//933
f 477//934 378//934 520//934
f 481//935 317//935 379//935
f 481//936 476//936 479//936
f 481//937 479//937 487//937
f 482//938 478//938 492//938
f 480//939 483//939 484//939
f 492//940 478//940 484//940
f 309//941 320//941 485//941
f 488//942 484//942 483//942
f 493//943 477//943 520//943
f 490//944 487//944 486//944
f 481//945 326//945 317//945
f 487//946 326//946 481//946
f 482//947 492//947 491//947
f 484//948 488//948 492//948
f 483//949 485//949 489//949
f 320//950 332//950 485//950
f 533//951 493//951 520//951
f 496//952 486//952 477//952
f 496//953 477//953 493//953
f 490//954 326//954 487//954
f 483//955 489//955 488//955
f 485//956 332//956 489//956
f 332//957 320//957 327//957
f 490//958 494//958 326//958
f 492//959 488//959 499//959
f 491//960 492//960 499//960
f 497//961 496//961 493//961
f 497//962 493//962 533//962
f 498//963 502//963 490//963
f 498//964 490//964 486//964
f 498//965 486//965 496//965
f 494//966 329//966 326//966
f 502//967 494//967 490//967
f 499//968 488//968 501//968
f 488//969 489//969 501//969
f 489//970 332//970 495//970
f 507//971 494//971 502//971
f 499//972 501//972 503//972
f 489//973 500//973 501//973
f 489//974 495//974 500//974
f 495//975 332//975 504//975
f 498//976 505//976 502//976
f 497//977 498//977 496//977
f 510//978 498//978 497//978
f 507//979 504//979 494//979
f 504//980 329//980 494//980
f 505//981 507//981 502//981
f 504//982 509//982 495//982
f 501//983 500//983 508//983
f 504//984 331//984 329//984
f 506//985 497//985 544//985
f 510//986 505//986 498//986
f 503//987 501//987 549//987
f 500//988 495//988 508//988
f 549//989 501//989 508//989
f 495//990 509//990 508//990
f 505//991 509//991 507//991
f 507//992 509//992 504//992
f 506//993 510//993 497//993
f 549//994 508//994 510//994
f 506//995 549//995 510//995
f 505//996 508//996 509//996
f 510//997 508//997 505//997
f 413//998 420//998 511//998
f 405//999 413//999 512//999
f 417//1000 372//1000 420//1000
f 413//1001 511//1001 512//1001
f 514//1002 419//1002 415//1002
f 515//1003 415//1003 461//1003
f 420//1004 518//1004 511//1004
f 414//1005 512//1005 516//1005
f 414//1006 516//1006 421//1006
f 513//1007 378//1007 418//1007
f 517//1008 418//1008 419//1008
f 515//1009 514//1009 415//1009
f 420//1010 372//1010 518//1010
f 512//1011 511//1011 519//1011
f 516//1012 512//1012 519//1012
f 517//1013 513//1013 418//1013
f 517//1014 419//1014 514//1014
f 515//1015 461//1015 553//1015
f 372//1016 482//1016 522//1016
f 372//1017 522//1017 518//1017
f 511//1018 518//1018 519//1018
f 520//1019 513//1019 517//1019
f 523//1020 517//1020 514//1020
f 524//1021 514//1021 515//1021
f 553//1022 521//1022 515//1022
f 519//1023 518//1023 525//1023
f 523//1024 514//1024 524//1024
f 521//1025 524//1025 515//1025
f 522//1026 529//1026 518//1026
f 482//1027 491//1027 522//1027
f 518//1028 529//1028 525//1028
f 519//1029 525//1029 526//1029
f 516//1030 519//1030 526//1030
f 421//1031 516//1031 530//1031
f 527//1032 520//1032 517//1032
f 527//1033 517//1033 523//1033
f 528//1034 521//1034 553//1034
f 529//1035 531//1035 525//1035
f 516//1036 526//1036 530//1036
f 538//1037 527//1037 523//1037
f 538//1038 523//1038 524//1038
f 522//1039 491//1039 529//1039
f 533//1040 520//1040 527//1040
f 534//1041 524//1041 521//1041
f 535//1042 534//1042 521//1042
f 535//1043 521//1043 528//1043
f 529//1044 491//1044 536//1044
f 526//1045 525//1045 531//1045
f 530//1046 537//1046 532//1046
f 533//1047 527//1047 538//1047
f 534//1048 538//1048 524//1048
f 491//1049 499//1049 536//1049
f 529//1050 536//1050 531//1050
f 536//1051 499//1051 540//1051
f 526//1052 531//1052 541//1052
f 530//1053 526//1053 537//1053
f 537//1054 526//1054 542//1054
f 543//1055 535//1055 528//1055
f 540//1056 499//1056 503//1056
f 536//1057 540//1057 539//1057
f 531//1058 536//1058 539//1058
f 526//1059 541//1059 542//1059
f 532//1060 537//1060 543//1060
f 546//1061 533//1061 538//1061
f 537//1062 542//1062 535//1062
f 544//1063 497//1063 533//1063
f 547//1064 538//1064 534//1064
f 535//1065 547//1065 534//1065
f 543//1066 537//1066 535//1066
f 548//1067 540//1067 503//1067
f 531//1068 545//1068 541//1068
f 531//1069 539//1069 545//1069
f 542//1070 541//1070 545//1070
f 546//1071 544//1071 533//1071
f 535//1072 542//1072 547//1072
f 539//1073 540//1073 548//1073
f 545//1074 546//1074 547//1074
f 542//1075 545//1075 547//1075
f 546//1076 538//1076 547//1076
f 548//1077 503//1077 549//1077
f 546//1078 545//1078 539//1078
f 544//1079 548//1079 549//1079
f 546//1080 539//1080 548//1080
f 544//1081 549//1081 506//1081
f 546//1082 548//1082 544//1082
f 458//1083 452//1083 457//1083
f 474//1084 458//1084 455//1084
f 454//1085 450//1085 459//1085
f 551//1086 454//1086 459//1086
f 550//1087 456//1087 552//1087
f 554//1088 459//1088 455//1088
f 556//1089 553//1089 454//1089
f 551//1090 556//1090 454//1090
f 457//1091 550//1091 554//1091
f 458//1092 457//1092 554//1092
f 555//1093 551//1093 459//1093
f 555//1094 459//1094 554//1094
f 455//1095 458//1095 554//1095
f 553//1096 461//1096 454//1096
f 460//1097 559//1097 456//1097
f 552//1098 456//1098 559//1098
f 460//1099 421//1099 558//1099
f 460//1100 558//1100 559//1100
f 550//1101 552//1101 554//1101
f 560//1102 551//1102 555//1102
f 561//1103 553//1103 556//1103
f 557//1104 556//1104 551//1104
f 560//1105 557//1105 551//1105
f 552//1106 560//1106 554//1106
f 558//1107 421//1107 530//1107
f 552//1108 559//1108 560//1108
f 560//1109 559//1109 562//1109
f 555//1110 554//1110 560//1110
f 561//1111 528//1111 553//1111
f 557//1112 561//1112 556//1112
f 558//1113 562//1113 559//1113
f 543//1114 528//1114 561//1114
f 563//1115 543//1115 561//1115
f 563//1116 561//1116 557//1116
f 562//1117 563//1117 557//1117
f 562//1118 557//1118 560//1118
f 558//1119 530//1119 532//1119
f 558//1120 532//1120 563//1120
f 558//1121 563//1121 562//1121
f 563//1122 532//1122 543//1122
