# Blender 5.2.2 LTS
# www.blender.org
mtllib Big_bone.mtl
o Femur_B
v 0.457738 1.897134 0.734401
v 0.661397 1.897623 0.012280
v 0.360843 0.494229 0.887699
v 0.092729 1.900311 0.712697
v 0.086583 -1.768200 1.111167
v 1.172834 -1.400283 0.486093
v 0.396415 1.391560 0.344548
v 0.015160 -2.916543 0.054199
v 0.995154 -1.393913 -0.126462
v 0.494979 -2.738484 0.468630
v 1.679967 -2.104225 0.393153
v 0.393343 -2.722491 -0.207167
v 1.364376 -2.218111 -0.287452
v -0.168428 1.896225 0.449673
v 0.681832 -0.411683 0.859694
v -0.002059 1.563827 0.702723
v 0.776870 -2.442110 -0.719785
v 1.329555 -1.871894 -0.141102
v 0.856550 -2.281170 1.163155
v 0.843339 0.033587 0.191372
v -0.141383 1.649151 0.564890
v 1.626020 -2.022721 0.409046
v 0.629912 -1.006200 0.985039
v -0.305098 -2.533222 0.796297
v 0.815558 -2.687130 -0.482663
v 1.520002 -2.509676 0.251668
v 0.414689 -2.837802 0.209212
v 0.165897 -2.774829 1.043365
v 1.616955 -2.223745 0.033647
v 0.902394 -1.268754 0.677198
v 0.002698 0.282983 0.846318
v 0.846992 -1.388817 0.878785
v 1.367250 -2.392869 -0.104166
v 1.638283 -1.845538 0.036119
v 0.788488 -1.638301 1.047104
v 0.926546 -1.650001 0.880908
v 0.193938 -1.049189 -0.159176
v 0.607334 1.156989 0.720315
v 0.255113 -1.912911 -0.233818
v 0.537705 -0.728537 -0.069981
v 1.349254 -1.469331 0.256174
v -0.219824 -2.690377 0.673992
v 0.693249 -1.677074 -0.504663
v 0.472762 -1.595727 1.152918
v -0.026690 -2.775295 0.646213
v -0.097633 -2.391369 0.992856
v -0.153767 1.026285 0.626649
v -0.196682 0.674246 0.588264
v -0.140789 -1.206767 0.646094
v -0.349869 -2.022965 0.655710
v -0.324098 -1.954899 0.727112
v -0.028095 -2.723711 0.719751
v 0.277583 -2.927866 0.255383
v 0.232492 -1.081339 0.898291
v 0.265131 -1.595695 -0.194743
v -0.151734 -1.641103 0.775766
v -0.020908 -1.042537 0.797532
v 1.525175 -2.259796 0.723277
v 0.998224 -2.475832 -0.734645
v 0.260976 0.508477 0.049804
v -0.335756 -2.231679 0.370447
v 0.157729 -1.829442 -0.102189
v 1.623779 -2.313016 0.511710
v 1.015002 -1.314261 0.617979
v 0.453425 -0.224062 0.925348
v 0.516879 -0.517477 0.966294
v 0.230385 -2.798262 0.576838
v 1.011262 -2.597865 0.242455
v 1.653956 -2.329032 0.162760
v 0.473506 -2.039433 1.234123
v 0.482208 -2.729698 0.649688
v 0.013340 -2.680574 0.969708
v 0.401602 1.505359 0.764688
v -0.048780 -2.713686 0.859959
v 0.838185 -1.046040 0.686228
v 0.391987 -1.362944 -0.330970
v -0.141843 1.570163 0.376046
v 0.642425 -2.682841 0.254724
v -0.068070 -2.879492 -0.117368
v -0.093374 1.889116 0.680422
v 1.461230 -2.413942 0.780178
v -0.147463 -0.756189 0.324170
v 0.672802 -1.347279 -0.306312
v 0.783352 -1.173307 0.927562
v 1.068279 -2.142065 0.976579
v -0.315038 -2.468988 0.237316
v 0.866568 -1.102805 -0.054221
v 0.028875 -2.285009 -0.377407
v 0.523578 -2.570175 1.203749
v 0.017168 -0.532796 0.075865
v 1.672168 -1.994440 0.248802
v 0.689401 -0.904175 0.891879
v 0.776496 -2.635747 0.282500
v 0.024709 -1.342981 0.842492
v 0.058028 0.562102 0.148955
v -0.162021 -2.788135 0.041876
v 0.183125 -0.591836 0.874950
v 1.358086 -2.574063 0.736108
v -0.315561 -2.617221 0.620515
v 1.158240 -1.943898 -0.550324
v 0.833735 -0.544396 0.615542
v 1.142564 -2.310824 -0.733505
v 0.716902 -0.604104 0.838614
v 1.003235 -0.733796 0.199076
v 0.161261 -1.733846 -0.057577
v 1.632765 -1.928098 0.319231
v 0.562495 -2.360180 -0.676055
v 1.292300 -1.863405 0.613714
v 0.655667 -2.718617 0.056402
v 0.871899 0.860433 0.302879
v 0.343335 -2.877540 0.372281
v 0.335849 -2.480251 -0.433237
v 0.284721 1.391417 -0.001461
v 0.747653 -2.252566 -0.695729
v 1.242437 -2.213636 -0.670813
v 0.162041 -2.052011 1.227755
v 1.687380 -1.907767 0.156232
v 1.356117 -1.339078 0.147983
v 0.121600 -2.754391 -0.373784
v 0.397314 -1.628318 -0.339572
v 1.291200 -1.234256 0.094444
v 1.219024 -1.306803 0.006890
v 0.627471 -2.210482 1.275307
v -0.107560 1.293914 0.679865
v 1.519369 -1.660896 0.080723
v 0.012043 -2.468357 -0.421446
v 0.270261 1.674410 -0.008669
v 0.687545 -0.680806 0.913068
v 0.846879 -1.415363 0.729932
v 0.100457 -1.573476 0.012358
v -0.169625 -2.750269 -0.185326
v 0.084258 -2.715914 0.676329
v 0.764486 -0.672550 0.692043
v 0.007650 0.916502 0.742550
v 0.944755 -0.358121 0.264596
v 0.045867 -1.539785 0.927422
v 1.283639 -2.097341 -0.569451
v 1.048376 -2.636515 0.733891
v 0.020292 -1.279453 0.048627
v 0.896520 -1.388852 0.670311
v -0.187552 0.609902 0.485418
v 0.940927 -2.496053 1.031099
v 0.028540 -2.372685 1.132304
v 0.840435 1.725035 0.470773
v 0.609433 -0.407745 0.914574
v 0.252569 -0.304073 -0.016851
v 1.396434 -1.396831 0.063962
v 0.702149 0.647446 0.132273
v -0.319355 -2.581743 0.416934
v 0.415083 -0.694461 0.979829
v 1.078094 -1.773018 0.719689
v -0.108692 -1.913518 1.032396
v 0.713506 -0.781532 0.815059
v 0.103751 -2.926143 0.443337
v 1.276034 -2.555258 -0.416453
v 0.904070 -1.734482 -0.484851
v 0.908263 0.649755 0.403214
v 1.452725 -2.164719 -0.125239
v 0.920586 1.903078 0.455387
v -0.185521 -1.040041 0.362674
v -0.096504 1.561745 0.265184
v 0.216586 -2.191344 -0.335763
v 1.290720 -2.095133 0.795829
v 0.875127 1.586061 0.312016
v -0.189209 -2.169526 -0.218420
v 0.919481 -0.567272 0.468284
v 0.058590 -2.609487 1.072398
v -0.072877 -2.512032 0.975109
v -0.037290 -1.027506 0.112153
v -0.256560 -1.906313 -0.000482
v 1.698123 -2.033783 0.046264
v 1.078978 -1.960902 0.890156
v 0.828376 -1.560587 0.969804
v -0.103435 -0.562243 0.763241
v 0.915801 -1.553229 0.711732
v 0.181187 0.946075 0.736776
v 0.412328 1.079461 -0.009518
v -0.352655 -2.439469 0.742799
v 0.214977 1.889816 -0.007361
v -0.144943 -1.231810 0.186180
v 0.497652 -2.760525 0.325848
v -0.353390 -2.167335 0.809267
v 0.708855 1.672663 0.059540
v 0.252434 -2.878101 0.000649
v 0.893088 -2.064929 -0.638886
v 0.356906 -0.543303 -0.063261
v 0.607631 0.048481 0.866983
v 1.284806 -1.988776 -0.295383
v 0.472992 0.857849 0.011637
v 1.101851 -2.418362 -0.791977
v 1.127160 -2.032848 -0.666223
v 0.449050 1.718852 -0.025391
v 1.176868 -1.515064 -0.088021
v 1.242515 -2.100066 0.861345
v -0.261054 -2.114703 0.957917
v 0.893719 -2.096570 1.117583
v 1.167641 -1.076476 0.075701
v 0.984281 -1.651276 0.695951
v 1.425193 -1.739809 0.423266
v -0.171519 -2.315922 -0.275877
v 0.005133 1.231375 0.718706
v 1.381782 -2.474458 0.816019
v 1.553043 -1.845364 0.347510
v -0.299219 -2.216535 0.164806
v -0.361630 -2.156385 0.499760
v 0.911212 -2.637077 0.476448
v 0.604179 -1.902412 1.206589
v 0.806301 1.880303 0.159298
v -0.122642 -2.177639 -0.303079
v 0.359175 -2.817819 0.945074
v 0.370991 -2.802993 1.036975
v 0.290900 -1.334733 0.941299
v 1.004346 -1.020962 0.571964
v -0.188811 -0.575682 0.504413
v -0.264003 -1.675056 0.567553
v -0.340394 -2.134348 0.339895
v 0.438648 -1.058731 1.014590
v 0.724401 -0.923237 0.772138
v 0.231739 -2.752908 0.721590
v 0.220123 -2.599856 -0.409896
v 0.417856 -2.325596 -0.502035
v 0.341061 -2.547063 1.249992
v 1.090076 -2.251283 0.986402
v 0.854651 -0.063045 0.601059
v -0.322238 -2.085773 0.249218
v -0.229141 -2.731669 0.310534
v 1.657306 -2.408384 0.416231
v -0.119027 0.534647 0.714369
v -0.011577 -1.866477 -0.137948
v 0.340370 -1.524375 1.064483
v -0.080392 -1.695697 -0.016237
v 0.906762 -0.237592 0.439523
v -0.083213 0.479612 0.300322
v 0.713941 1.449112 0.137540
v 0.049054 -0.519176 0.848693
v 0.632192 -2.463475 -0.712398
v 1.421963 -1.495067 0.080935
v 0.717911 -0.886776 0.714861
v 1.453740 -1.606702 0.182974
v 1.214552 -1.576732 0.535543
v 0.835803 -1.834478 1.066122
v 0.962993 -1.863685 0.939181
v 0.119290 -2.829050 -0.283459
v 0.996592 -2.265586 -0.734738
v 0.038921 -1.478267 0.023339
v 0.959192 -2.003442 0.995142
v 0.833728 1.189357 0.337287
v 0.189852 -0.364378 0.870086
v 0.783667 -1.009726 0.707112
v -0.144327 0.171276 0.434557
v 0.523934 -2.459623 1.218249
v 1.544548 -1.744893 -0.005668
v 1.393613 -1.525357 -0.003288
v 1.287710 -2.283091 0.906209
v 1.293885 -2.516213 0.000575
v 0.498042 0.365863 0.010857
v 1.394240 -2.144706 0.778602
v 0.065612 1.663511 0.077297
v 0.614219 -1.837292 -0.468294
v 0.257919 -2.497755 1.233518
v 1.507960 -2.082572 0.569897
v -0.255932 -1.902973 0.868286
v 0.217180 -1.661389 -0.092472
v 1.179731 -0.987523 0.202113
v 0.088082 -2.943016 0.156940
v 0.472001 -2.757538 1.078660
v 0.729204 -0.504014 0.703070
v 0.824880 -1.892009 -0.542178
v 1.268327 -2.429063 -0.539588
v 0.259851 -2.331441 -0.380614
v 0.030882 -2.681627 -0.326742
v 0.201579 -2.047680 -0.240318
v 0.197766 -0.126825 0.870331
v 0.798607 -1.049159 0.898887
v -0.281613 -2.005710 0.059791
v -0.168057 -0.009197 0.620578
v -0.085988 -2.280475 -0.346746
v 0.346411 -2.827514 0.444921
v 0.604148 -0.773993 0.960156
v 0.584407 -2.702472 -0.107511
v -0.099056 -2.187973 1.082886
v 0.233487 1.533044 0.741229
v -0.087911 0.155978 0.788643
v 1.680099 -2.290811 0.413054
v 0.699608 -1.253132 1.009108
v 1.168647 -2.642787 0.562601
v -0.268640 -2.228586 0.022510
v 1.131645 -0.956404 0.315715
v 0.470816 -2.725717 0.561308
v 0.567705 1.194198 0.024611
v 0.596411 -1.440917 1.118524
v 1.187367 -1.947625 0.747667
v 0.299978 -2.067207 -0.270964
v -0.349258 -2.405710 0.452708
v 0.273691 -2.072541 1.259185
v -0.040925 -2.952874 0.317280
v 0.873054 -2.619913 0.160880
v 0.048735 -0.198485 0.851088
v -0.155896 -2.617929 0.881349
v 0.209700 -0.838628 0.872101
v -0.100086 -2.526340 -0.409419
v 0.710370 -2.508877 1.152971
v 1.340023 -2.236807 0.839488
v 1.022672 -1.731717 0.783137
v 1.110422 -1.888177 0.739352
v 0.981883 -0.715330 0.421916
v 0.636793 -2.083036 -0.554717
v 0.731547 -2.648898 1.006561
v -0.148635 -1.987569 -0.177901
v 0.493413 -2.625058 -0.309443
v 0.628764 -2.679101 0.435278
v 0.941582 1.889002 0.274976
v 0.980400 -2.194204 1.039419
v 0.024646 -1.018616 0.001472
v 0.721547 -2.744810 0.843411
v 0.997534 -1.486063 0.655059
v 0.037713 0.640369 0.804704
v 1.146847 -2.660076 -0.302937
v 1.200705 -1.176242 0.028227
v -0.367198 -2.251920 0.585997
v 0.827292 -0.713226 0.038825
v 0.551775 0.601782 0.805508
v 0.846699 -2.517785 -0.714437
v 0.872744 0.371543 0.237490
v 0.128863 1.395068 0.698219
v -0.255473 -1.513828 0.429726
v 0.775665 -0.256699 0.060902
v 0.413234 -2.496297 -0.467749
v 0.420624 0.845853 0.844414
v 0.579298 -1.488141 -0.420990
v -0.227074 -1.326066 0.398092
v 0.897347 -2.468842 -0.726292
v -0.300879 -2.341862 0.877196
v 0.705438 -2.740728 0.698377
v 0.477564 -2.787056 0.096976
v -0.137678 -1.505748 0.721909
v 1.440177 -2.572664 0.397257
v -0.171365 -2.814588 0.457945
v 0.783676 0.291589 0.650379
v 1.268433 -2.280624 -0.575219
v 0.908968 -2.115340 1.070964
v 1.082346 -1.782455 -0.326737
v -0.313441 -2.385808 0.216336
v 0.819732 0.964875 0.513253
v 0.838401 -1.198542 0.779305
v -0.018725 1.893993 0.136553
v 0.329985 -2.278675 -0.396726
v -0.107922 -2.864298 0.520810
v -0.047430 0.991257 0.244454
v 0.709810 1.638301 0.605829
v -0.168556 -2.491846 -0.341049
v 0.780686 1.381086 0.522368
v 0.721335 -0.782768 0.697152
v -0.336953 -1.900437 0.493774
v 0.073899 1.016704 0.100631
v 0.761875 0.682655 0.613605
v -0.146016 1.877943 0.321571
v 1.116501 -2.555895 0.876229
v 0.726223 -1.495013 -0.433614
v 0.747028 -0.211507 0.721874
v 1.521653 -1.840403 -0.032047
v 0.219696 -1.336546 -0.178539
v -0.148511 -2.711570 0.736525
v 1.145581 -2.334569 0.962425
v 1.618336 -1.850781 0.174869
v 1.580094 -2.449774 0.484620
v -0.222345 -2.647035 0.767385
v -0.239875 -2.438033 -0.079651
v 0.414848 1.893511 -0.040767
v 1.683552 -2.123843 0.202634
v 0.616189 0.085500 0.020407
v 0.469445 1.511213 -0.008809
v 0.942145 -2.299743 1.079005
v 0.842442 -1.538929 -0.369307
v 0.892976 -0.789993 0.586810
v 1.047047 -1.825058 -0.504413
v -0.328126 -1.863104 0.342254
v 1.639159 -2.177950 0.434310
v 0.031084 -2.499960 1.071302
v 1.093969 -2.581414 -0.612928
v 0.006932 -2.061670 -0.267557
v 0.922006 0.072022 0.336402
v -0.162899 -1.567731 0.098398
v 1.334425 -1.389987 0.003851
v 0.991734 -1.898315 -0.562278
v 0.330360 -0.964889 -0.198685
v 0.261875 -1.853911 -0.258998
v 0.819033 -2.380854 1.148466
v -0.143298 1.118835 0.403287
v 0.098845 4.617651 1.037569
v 0.099589 4.621492 1.039455
v 0.098928 4.624542 1.041989
v 0.100290 4.627099 1.041827
v 0.099525 4.640996 1.047116
v 0.529041 1.850146 0.470146
v 0.410772 1.307654 0.362357
v 0.338381 1.845273 0.231174
v 0.290879 1.850136 0.470151
v 0.102820 4.657861 1.051698
v 0.102353 4.654286 1.050577
v 0.103919 4.664041 1.053469
v 0.100023 4.625046 1.040554
v 0.101599 4.647707 1.048975
v 0.098295 4.614030 1.035270
v 1.453419 5.278030 0.040440
v 1.407168 4.768581 -0.068918
v 1.096809 2.490319 0.243083
v 1.502974 5.588120 0.579376
v 1.117033 5.286284 -0.581887
v 0.350312 4.572544 0.010941
v 0.290393 4.545822 0.265543
v 0.303008 5.600852 0.451320
v 0.065172 4.845648 0.504877
v -0.125029 5.182196 0.916727
v 0.735131 3.009576 -0.154031
v 1.058925 4.582919 -0.478299
v 0.860050 5.164740 -0.167833
v 1.606257 4.701415 0.365238
v 0.242344 4.384271 0.253040
v 0.268770 3.015207 -0.140866
v -0.099659 4.363074 0.915201
v -0.112770 3.468333 0.773287
v 1.402585 5.027942 -0.099961
v 1.695747 4.825240 0.137571
v 0.316774 2.413433 -0.080460
v 1.304420 4.832750 0.586063
v -0.106851 3.601309 0.653050
v 0.887156 5.903610 0.753333
v 1.162069 4.454167 -0.408379
v 1.429473 4.938889 0.570481
v 0.149308 5.528739 0.522112
v 1.812195 5.202963 0.311899
v 1.077816 5.488415 0.167770
v 1.175571 5.576860 0.682321
v 0.115734 5.514227 1.057689
v 0.331126 5.765153 0.966053
v -0.016657 3.545137 0.881362
v 0.793456 2.589481 0.589040
v 0.068162 4.539549 0.993980
v 0.929701 5.494060 0.723567
v -0.132238 4.745456 0.841953
v 0.100856 4.631036 1.042879
v 0.100929 4.634875 1.044419
v 0.101244 4.641014 1.046613
v 0.100652 4.632935 1.043329
v 0.095990 4.608143 1.031871
v 0.101756 4.643542 1.047410
v 1.316334 4.936306 -0.673284
v 0.383562 4.732785 -0.109796
v 1.729960 4.803643 0.361494
v 0.597167 4.114284 -0.240726
v -0.050439 4.333458 0.941310
v -0.071673 2.162542 0.223999
v 0.008883 5.529446 0.703077
v 0.162232 5.646567 0.992200
v 1.132960 5.157258 -0.251491
v 0.550219 4.498404 0.823464
v 0.730439 5.912185 0.788581
v 1.048892 4.129160 -0.319889
v 0.305374 4.358750 0.014745
v 0.721081 5.763101 0.973950
v 0.735080 2.037553 0.050872
v 1.066812 5.851406 0.653801
v 0.726018 3.869945 -0.300217
v 0.524420 4.345809 -0.251068
v 1.781613 5.148411 0.423440
v 0.915249 2.683692 0.139116
v 1.371061 4.321536 0.394698
v 0.156603 4.977455 1.129904
v 0.559156 4.856967 -0.595471
v 1.544775 5.386556 0.652122
v 1.455295 4.465641 0.412116
v 1.766050 5.345282 0.367274
v 0.109085 2.257294 0.677169
v 0.962601 2.347389 0.184534
v 1.676331 5.490539 0.361795
v -0.037930 4.243425 0.584565
v -0.101770 3.988282 0.833832
v -0.077496 2.168346 0.675639
v 0.135141 4.712592 1.060337
v 1.341411 4.961823 -0.601823
v 0.308714 2.882808 -0.143043
v -0.121291 4.346222 0.800898
v 1.618028 5.384011 0.205995
v 0.640635 4.428441 -0.305712
v 0.524031 3.673902 0.762454
v 1.278526 5.675625 0.665319
v 0.834671 3.831152 -0.327340
v 1.341630 5.408568 0.086685
v 0.694677 2.584177 0.003952
v 0.052288 3.975639 0.885729
v -0.047023 5.101831 0.630232
v 0.953128 4.385352 -0.362884
v 0.993351 2.589840 0.201061
v 0.034353 2.102718 0.103513
v 0.709297 3.994859 0.681787
v 0.584776 2.034125 -0.024270
v 0.420054 5.027981 0.251183
v 0.584124 3.850399 -0.251157
v 0.963813 4.929656 -0.843664
v 0.800197 5.194216 -0.033403
v 1.399454 4.856721 -0.434817
v -0.052902 4.723179 1.080665
v 0.608522 2.820541 -0.149538
v -0.076051 1.853009 0.711252
v -0.134464 2.771394 0.562825
v 0.040413 4.628635 1.072478
v 0.044435 5.348949 1.145360
v 0.260918 5.384515 1.096763
v 1.293375 4.088841 0.153626
v 0.697314 3.527378 -0.323891
v 0.864515 5.661223 0.468024
v 1.505807 4.579857 0.392313
v 0.911125 2.302930 0.194179
v 0.489847 4.554713 -0.344228
v 1.343757 5.055150 -0.716314
v -0.011365 5.104556 1.072033
v 0.607408 2.877118 0.646702
v 0.426170 3.805063 -0.182057
v 0.660036 1.857924 0.008234
v 0.155124 5.647328 0.619551
v 1.362927 4.621552 -0.175624
v 0.808514 1.850661 0.164337
v 0.448135 5.079430 0.909286
v 1.466781 5.273699 0.655248
v 0.576463 5.056216 -0.032121
v 1.290748 5.162383 -0.102044
v 0.984456 1.854509 0.334212
v -0.110949 5.031671 0.803934
v -0.048571 5.303511 1.010588
v -0.088816 4.649622 0.685620
v 0.860545 2.998052 -0.059137
v 1.218951 5.270669 -0.022826
v 0.879136 5.702605 0.870768
v 1.088752 4.279397 -0.342581
v 0.205430 1.874682 0.009138
v 0.411401 2.740079 0.710771
v 1.100949 4.391474 0.645207
v -0.123037 2.170074 0.313580
v 0.491471 3.514084 -0.230862
v 0.567733 3.339310 -0.262594
v -0.062993 2.401234 0.698654
v 0.825469 4.542826 -0.345747
v 0.856392 5.783660 0.543071
v -0.121675 3.384750 0.652338
v 1.765479 4.911580 0.286394
v 1.137197 3.536281 0.028927
v -0.061478 2.827158 0.307668
v 0.115261 1.851959 0.719188
v 0.165292 4.406876 0.957728
v 1.459067 4.669540 0.472718
v 0.833202 5.906315 0.678413
v 0.232926 4.915936 1.042655
v 1.145041 3.638259 0.309685
v 1.028543 2.505156 0.395181
v 0.018234 4.824409 1.100142
v 0.580831 2.476324 -0.053603
v 0.349177 4.622019 0.906527
v 0.167591 5.194621 0.487446
v 0.041678 5.369179 0.588874
v 1.083977 3.734806 0.495801
v 0.755699 5.189182 -0.388736
v 1.750813 5.353295 0.473864
v 1.550045 5.125137 0.022642
v 1.086073 5.194203 -0.808012
v -0.055969 4.546268 0.970774
v 1.584239 4.650638 0.192222
v 0.044192 4.372965 0.964339
v -0.011147 3.966566 0.900718
v 0.692791 4.785682 -0.594729
v 1.192444 3.936126 0.384894
v 0.914606 2.566890 0.200600
v 0.074607 2.856749 0.809116
v 0.534461 5.811724 0.614375
v 0.146400 5.310461 1.159537
v 1.437949 4.433387 0.164879
v 1.228714 5.120975 -0.344696
v 0.144569 4.524468 1.003514
v -0.023140 3.347739 0.376091
v 0.478990 4.123784 -0.181072
v 0.749336 5.559078 0.860528
v 1.336668 4.560121 -0.282379
v 0.116410 2.349899 -0.004725
v 0.409313 3.966673 0.794177
v 0.700404 5.395396 0.260472
v 0.354190 3.996683 -0.117483
v 0.412183 2.351495 0.675587
v 0.271998 5.016231 0.421105
v 0.440886 4.739834 -0.427648
v 0.936419 3.959380 -0.332582
v 0.850087 4.660731 0.709982
v 1.250881 4.402769 0.559265
v 1.238556 4.019042 -0.144865
v 1.184467 3.921031 -0.137328
v 0.790937 5.502248 0.312127
v 1.044910 5.659690 0.389025
v -0.123764 2.424361 0.476350
v 0.608546 5.105683 -0.394844
v 1.319487 5.002156 -0.452923
v 0.915766 1.858140 0.483024
v 0.201812 4.674802 0.389660
v 0.122771 2.905216 -0.029849
v 1.375059 4.318265 0.179903
v 1.223433 4.881271 -0.688504
v 1.171529 4.298470 -0.287749
v 0.435518 5.447553 0.967713
v 0.776242 2.707090 0.024836
v 0.852944 4.192789 -0.316066
v -0.116807 2.803603 0.785974
v 1.001333 3.593279 -0.161826
v 1.416226 4.504394 -0.083594
v 1.209489 4.086033 0.476107
v 0.283744 3.925525 0.866677
v 1.406633 5.724778 0.452519
v 1.071915 5.220152 -0.048290
v 0.028910 4.437355 0.492028
v 0.080327 4.939885 1.113781
v 0.507221 5.867257 0.897930
v 0.289772 3.535000 0.864732
v 0.136335 4.837879 1.088891
v 0.582105 2.223832 0.668800
v 0.989170 5.237563 0.652233
v 1.466308 4.555888 0.087680
v 1.524441 4.530808 0.231517
v 0.835537 3.024528 0.554146
v 0.491789 4.998441 -0.509524
v 1.240782 5.829346 0.582589
v 0.912856 3.213473 -0.114956
v 1.107286 3.364320 0.283819
v 0.772895 2.359664 0.128212
v 0.013271 4.358055 0.938729
v 0.917107 5.571211 0.378882
v 0.243321 4.116778 -0.004944
v -0.103599 4.870647 0.769686
v -0.095975 2.520346 0.703142
v 0.531428 3.645119 -0.247948
v 0.108733 3.166085 0.020856
v 0.421724 5.329183 0.323297
v 1.583056 4.884632 0.026535
v 0.934159 5.247255 -0.401547
v 1.682609 5.487835 0.465947
v 0.461356 5.558593 0.388141
v 1.054164 2.238612 0.278827
v 1.023220 2.752373 0.182728
v 0.692639 4.209730 -0.271411
v 1.306534 4.668467 -0.441889
v 0.099533 4.673938 1.052631
v 0.856713 3.314024 -0.188956
v 0.086381 3.384109 0.883740
v 0.516318 2.340224 -0.054970
v 0.687796 4.728660 -0.490749
v 0.623758 4.180189 0.737031
v 0.563608 2.607968 -0.093294
v -0.054825 3.202087 0.843310
v 0.310924 2.555358 -0.100021
v 1.680329 4.971692 0.484277
v 1.259639 5.713098 0.337724
v -0.099323 5.304352 0.842800
v 0.370601 4.312015 -0.126919
v 0.276642 5.775034 0.766037
v 0.479784 1.851033 0.736526
v 0.419533 5.574737 1.034695
v 1.709150 5.179672 0.496776
v -0.118405 4.500329 0.759143
v 1.175956 4.202830 -0.245778
v 0.942197 5.048587 -0.862558
v 0.686565 5.880967 0.919604
v -0.100040 3.039144 0.763433
v 1.324451 4.332502 -0.152360
v 0.574756 5.376091 0.310492
v 0.061036 5.209384 1.152271
v 1.284973 5.152644 -0.730215
v 0.255760 3.816127 -0.064776
v 0.331479 5.295691 1.026324
v 0.954551 5.816195 0.803323
v -0.032439 2.702844 0.788485
v 0.632444 5.089028 -0.198383
v -0.150608 1.855776 0.382447
v 0.622495 3.511693 0.706328
v -0.064430 2.515056 0.256295
v 1.588947 5.585520 0.414057
v 0.718936 2.799994 -0.074512
v 0.193268 5.750613 0.862726
v 0.120327 3.599497 0.086203
v -0.061994 4.957411 0.941963
v -0.017751 5.513819 0.937990
v 0.337046 4.528224 -0.095048
v 1.359424 4.693737 -0.100676
v 0.630471 3.697779 -0.296023
v 0.479091 3.510252 0.780920
v 1.212286 5.060224 -0.848042
v 0.374031 5.752306 0.599783
v -0.149029 3.765490 0.749365
v 0.410261 1.854010 -0.036023
v 0.204877 5.722535 0.944319
v 0.144706 3.882930 0.897950
v -0.085507 4.150990 0.758442
v 1.746271 4.992635 0.162642
v 0.998273 3.409624 0.480289
v -0.082764 3.652045 0.862899
v 1.016629 2.942405 0.360557
v 0.292924 4.725396 0.326703
v -0.106861 3.291695 0.809005
v 0.886471 2.447109 0.175614
v 0.931548 3.714697 0.604084
v 0.379896 4.705665 -0.257543
v 1.076958 3.064080 0.093841
v 1.359014 5.017945 -0.271325
v 0.815856 4.742928 -0.437202
v 0.556104 5.908560 0.834011
v 1.763497 5.044632 0.295700
v 0.136215 4.121709 0.218425
v 0.847037 2.082244 0.193258
v -0.149805 2.109503 0.478114
v 0.944150 2.178741 0.442945
v 0.028566 4.050354 0.391868
v 1.382834 4.792351 -0.496194
v 0.527417 5.221471 0.205820
v 1.121131 3.114387 0.169107
v 0.805521 5.171288 0.712310
v 0.907471 2.843424 0.077612
v 1.618538 4.793694 0.452430
v 0.250120 5.388456 0.436851
v 1.048946 2.746775 0.295580
v 0.413149 4.908065 -0.356109
v 0.420305 2.081714 -0.034831
v 0.542691 5.693789 0.516443
v -0.055557 4.481605 0.607829
v 1.198452 3.822261 0.057691
v 0.008715 3.691116 0.373781
v -0.129104 2.610643 0.651727
v 0.482403 4.994856 -0.320066
v -0.062090 4.212543 0.879588
v 1.129688 4.051159 -0.245697
v 0.324530 2.239006 -0.043746
v 0.667176 4.722459 0.783068
v 0.262801 5.612387 1.067531
v 1.657639 5.437104 0.565395
v 0.679985 5.723718 0.524786
v 1.737166 5.450804 0.381047
v 0.200233 5.484604 1.137993
v 0.826763 3.482328 -0.295008
v 1.423912 4.739761 -0.382344
v 0.624064 5.126767 -0.490756
v 0.003931 2.497416 0.723515
v 0.931292 2.214675 0.228974
v 1.642237 5.233385 0.591431
v 0.323115 3.414067 -0.138377
v 0.478597 5.655647 1.036199
v 0.431080 4.882620 -0.017973
v 0.633745 2.161957 -0.010183
v -0.037988 4.773818 0.580043
v 0.182423 2.247412 -0.023617
v 0.350543 4.704475 0.146619
v 0.986270 5.860059 0.620416
v 0.667539 4.618674 -0.388170
v -0.035971 2.974565 0.830791
v 0.120749 3.923648 0.137160
v 0.185464 3.558775 -0.009796
v 1.335134 5.762360 0.568388
v 0.326486 3.648318 -0.129775
v 1.729543 5.028836 0.407790
v 1.063244 5.685875 0.756770
v 0.262907 5.117385 1.084543
v 0.615222 3.070735 -0.229843
v 0.751744 5.673439 0.501999
v 0.089110 2.619784 0.020760
v 1.700145 5.186135 0.139799
v -0.096571 3.227320 0.601605
v 0.891580 5.246005 -0.588192
v 1.754697 5.425067 0.450504
v 0.720093 5.142148 -0.624230
v 0.154282 5.171896 1.146286
v 1.285295 5.728330 0.645931
v 0.178081 3.078767 0.852488
v -0.051773 1.868552 0.197594
v 1.392552 4.899051 -0.198792
v 0.389375 2.707763 -0.123841
v 0.999216 3.992954 0.600222
v 0.544175 5.283403 0.918344
v 1.068777 4.756970 -0.598310
v 1.692631 4.739249 0.201841
v 0.574434 5.894926 0.755511
v 1.335565 4.165416 0.054952
v 0.435029 3.209072 0.777959
v 0.989856 3.800657 -0.303148
v 0.726715 2.496833 0.067495
v -0.113438 2.011653 0.277533
v 0.189729 2.584101 -0.070203
v 0.687027 2.343896 0.036832
v 1.439201 5.672656 0.556868
v 0.932834 1.982367 0.242079
v 1.265597 4.690482 -0.518467
v -0.122329 4.562157 0.898450
v 1.429421 5.616938 0.292440
vn -0.8287 0.0086 -0.5596
vn -0.7290 0.1099 -0.6756
vn -0.9541 -0.0158 -0.2991
vn 0.7132 0.2359 0.6600
vn 0.8692 0.2036 0.4506
vn 0.5842 0.2721 0.7646
vn 0.1847 0.6653 0.7233
vn 0.7165 0.5802 0.3873
vn 0.5704 0.6432 -0.5108
vn -0.5573 0.6553 0.5098
vn -0.1178 0.6804 0.7233
vn 0.2346 0.7547 -0.6127
vn -0.0329 0.9805 -0.1935
vn 0.1713 0.6873 -0.7059
vn 0.3880 0.6810 -0.6211
vn -0.0914 -0.3554 0.9302
vn 0.2779 -0.2567 0.9257
vn 0.2342 0.0090 0.9721
vn -0.8095 -0.0258 -0.5865
vn -0.9646 -0.0289 -0.2622
vn -0.9628 0.0036 -0.2703
vn -0.3222 0.4121 0.8523
vn -0.4073 0.3771 0.8318
vn -0.1201 0.1513 0.9812
vn -0.3738 -0.9266 0.0415
vn 0.0447 -0.9850 -0.1664
vn 0.3294 -0.9442 0.0029
vn 0.5312 0.4197 0.7360
vn 0.7141 -0.2615 0.6494
vn 0.7649 0.1580 0.6245
vn -0.9793 -0.0072 0.2021
vn -0.6440 0.7650 -0.0003
vn -0.9802 -0.0391 -0.1939
vn -0.3501 0.4241 -0.8352
vn -0.5606 0.4228 -0.7120
vn -0.8552 0.2063 -0.4755
vn 0.8561 0.5114 -0.0743
vn 0.8576 0.3928 -0.3318
vn 0.8424 0.4083 0.3518
vn 0.7896 0.0248 0.6131
vn 0.8850 0.0646 0.4611
vn 0.7680 0.1044 0.6319
vn 0.3469 0.1827 0.9199
vn 0.8030 0.2801 0.5261
vn 0.4511 0.0576 0.8906
vn 0.4304 0.0971 -0.8974
vn 0.1384 0.0780 -0.9873
vn 0.5693 0.0540 -0.8204
vn -0.8598 0.1544 -0.4867
vn -0.9560 0.0436 -0.2903
vn -0.7955 0.0422 -0.6044
vn -0.8093 0.0355 -0.5863
vn -0.7767 0.0795 -0.6249
vn 0.6780 -0.0416 0.7339
vn 0.8951 0.1480 0.4206
vn 0.8936 0.2791 0.3516
vn -0.0581 0.4995 -0.8643
vn -0.4552 0.3082 -0.8353
vn 0.0309 0.5184 -0.8546
vn 0.2516 0.4797 -0.8406
vn -0.1930 0.4148 -0.8892
vn 0.0969 -0.9136 0.3950
vn 0.7211 -0.0550 -0.6906
vn 0.7720 -0.3108 -0.5545
vn 0.8136 -0.4788 -0.3299
vn 0.5762 0.4512 0.6815
vn 0.6046 0.2699 0.7494
vn 0.5386 0.5222 0.6612
vn 0.6027 0.2543 0.7564
vn 0.7865 0.1493 0.5992
vn 0.7777 0.1439 0.6119
vn 0.9026 -0.0266 -0.4297
vn 0.2906 -0.2055 -0.9345
vn 0.8587 -0.2706 -0.4352
vn 0.3571 -0.7826 -0.5100
vn 0.2080 0.1160 0.9712
vn 0.7344 0.0180 0.6785
vn -0.7546 0.5883 -0.2906
vn 0.8911 0.3948 0.2238
vn 0.9325 0.3598 -0.0319
vn 0.8904 0.3856 -0.2420
vn -0.3349 -0.0110 0.9422
vn -0.2987 -0.0082 0.9543
vn -0.2099 0.0365 0.9770
vn -0.7878 0.3679 0.4940
vn -0.9511 0.0568 0.3036
vn -0.7404 0.0824 0.6671
vn 0.7649 0.5909 0.2567
vn 0.9585 0.2077 0.1951
vn 0.8923 0.3966 0.2158
vn 0.8338 -0.5202 0.1847
vn 0.8826 -0.0854 0.4624
vn 0.7145 -0.6365 0.2905
vn -0.7571 0.3963 0.5194
vn -0.5897 0.2870 0.7549
vn 0.4594 0.0844 0.8842
vn 0.8754 0.1158 0.4693
vn 0.7986 0.0463 0.6001
vn 0.5556 -0.8313 0.0144
vn 0.5951 -0.7499 0.2890
vn 0.4476 -0.8818 -0.1485
vn -0.4348 0.2533 -0.8642
vn -0.1434 0.4397 -0.8866
vn -0.0983 0.3302 -0.9388
vn 0.7398 0.1920 0.6449
vn 0.9652 -0.0431 0.2579
vn 0.1991 -0.0494 -0.9787
vn 0.6829 -0.1001 -0.7237
vn 0.4582 -0.0175 -0.8887
vn 0.7174 0.5219 0.4614
vn 0.5631 0.4460 0.6958
vn 0.6945 0.4582 0.5547
vn 0.4917 -0.8652 -0.0980
vn 0.7748 -0.5783 -0.2553
vn 0.8573 -0.0171 0.5145
vn 0.8240 -0.2385 0.5140
vn 0.5978 0.0164 0.8014
vn 0.2373 -0.9714 -0.0054
vn 0.2864 -0.9563 -0.0594
vn 0.3984 -0.9118 0.0994
vn -0.5672 0.0063 0.8235
vn -0.4223 0.0558 0.9047
vn -0.3777 0.0002 0.9259
vn -0.1152 -0.0022 -0.9933
vn -0.4850 0.3044 -0.8198
vn -0.1831 -0.2450 -0.9521
vn 0.7649 0.0259 0.6436
vn 0.9332 -0.1569 0.3232
vn 0.8730 -0.0924 0.4788
vn -0.4278 0.3508 -0.8330
vn -0.0793 0.5321 -0.8429
vn 0.3586 -0.6753 0.6445
vn 0.2356 -0.9577 0.1651
vn 0.4578 -0.8044 0.3785
vn 0.6817 0.0345 0.7308
vn 0.9261 0.1826 0.3301
vn 0.9161 0.1708 0.3627
vn 0.7482 0.3822 0.5423
vn 0.8536 -0.4026 -0.3306
vn 0.8692 0.1908 0.4562
vn -0.5044 0.0617 -0.8613
vn -0.0003 -0.9997 -0.0243
vn -0.1162 -0.9932 0.0033
vn 0.0607 -0.9902 -0.1261
vn -0.2919 0.0152 -0.9563
vn 0.1992 -0.0601 -0.9781
vn -0.3861 0.0584 0.9206
vn -0.3371 0.1805 0.9240
vn -0.7156 0.0877 0.6930
vn -0.2856 0.1211 0.9507
vn -0.6142 -0.5217 0.5920
vn -0.5945 -0.3438 0.7269
vn -0.6098 -0.2709 0.7448
vn -0.5843 -0.7515 0.3064
vn -0.3712 -0.8908 0.2620
vn -0.6151 -0.6727 0.4112
vn -0.9932 -0.0832 -0.0814
vn -0.9651 -0.1703 -0.1991
vn -0.9345 -0.3403 -0.1043
vn -0.5143 0.1436 0.8455
vn -0.9821 0.1698 0.0813
vn -0.9998 -0.0063 -0.0207
vn -0.8224 0.1405 -0.5513
vn -0.6817 0.3172 -0.6593
vn -0.9861 0.1646 -0.0219
vn 0.6333 0.4996 0.5911
vn 0.4912 0.6124 0.6194
vn -0.4477 0.3581 -0.8193
vn -0.1484 0.3244 -0.9342
vn 0.9503 -0.0732 0.3027
vn 0.8400 0.5419 -0.0286
vn 0.8158 0.4987 0.2928
vn -0.4841 0.1353 -0.8645
vn -0.1997 0.3230 -0.9251
vn -0.5755 0.0386 -0.8169
vn 0.5159 0.0930 0.8516
vn 0.3453 -0.8169 -0.4620
vn 0.0494 -0.9804 -0.1907
vn 0.2687 -0.9617 0.0537
vn 0.0345 -0.8921 0.4505
vn 0.3295 -0.9265 0.1818
vn -0.9986 0.0347 -0.0392
vn -0.9112 0.0881 0.4024
vn -0.7653 -0.0234 0.6433
vn 0.7613 0.2256 0.6079
vn 0.6265 0.2190 0.7481
vn -0.9618 -0.1588 0.2230
vn -0.8656 -0.4875 0.1146
vn -0.7745 -0.4024 0.4881
vn 0.2616 -0.9589 0.1096
vn -0.6819 -0.0151 -0.7313
vn -0.5438 -0.2157 0.8110
vn -0.6063 -0.2568 0.7526
vn -0.3758 -0.2118 0.9022
vn -0.1752 0.0467 0.9834
vn -0.0027 0.0920 0.9958
vn -0.9363 0.2565 0.2399
vn -0.7793 0.1977 0.5947
vn -0.0000 0.1112 0.9938
vn 0.3748 -0.4430 0.8144
vn 0.2825 -0.3991 0.8723
vn 0.4471 -0.7171 0.5347
vn -0.2131 0.1274 0.9687
vn 0.7917 0.4159 -0.4475
vn 0.9468 -0.0029 -0.3218
vn 0.6542 0.4184 0.6301
vn 0.2296 0.5457 -0.8059
vn -0.1483 0.1880 -0.9709
vn -0.3913 -0.2104 -0.8959
vn -0.4246 0.2736 -0.8630
vn 0.6807 0.1897 0.7076
vn -0.6886 0.1706 -0.7048
vn 0.2565 -0.9655 0.0458
vn 0.1862 -0.9699 -0.1567
vn 0.5804 0.0959 0.8086
vn 0.7405 0.3661 0.5636
vn -0.2441 0.2020 0.9485
vn -0.4754 0.2163 0.8528
vn 0.3468 0.5205 -0.7803
vn 0.5120 -0.4353 0.7405
vn 0.4675 0.4081 -0.7842
vn 0.5833 0.5150 -0.6281
vn 0.5678 -0.0966 0.8175
vn 0.4628 -0.2905 0.8375
vn 0.5872 -0.0476 0.8081
vn 0.9463 0.1788 0.2692
vn -0.7265 -0.0006 0.6871
vn -0.2855 -0.0090 0.9583
vn 0.5000 -0.8517 0.1567
vn 0.6982 0.4376 0.5666
vn 0.8199 0.3807 0.4275
vn -0.1136 -0.0031 0.9935
vn -0.9036 0.1236 -0.4103
vn -0.9922 0.0612 -0.1086
vn -0.5603 0.1519 -0.8143
vn -0.2202 0.3068 -0.9259
vn -0.0463 0.0398 -0.9981
vn 0.7460 0.1142 -0.6561
vn 0.9877 0.0407 -0.1509
vn 0.7702 0.1332 0.6237
vn 0.8500 0.3162 0.4213
vn -0.0158 -0.7937 0.6081
vn -0.0226 -0.9331 0.3590
vn 0.0820 -0.9361 0.3421
vn 0.4538 0.1752 0.8737
vn 0.5567 0.1358 0.8195
vn 0.0830 -0.0709 -0.9940
vn 0.5897 -0.1366 -0.7960
vn -0.9817 0.1633 -0.0982
vn -0.9824 -0.0049 -0.1870
vn -0.9821 0.1872 0.0210
vn -0.3672 -0.8917 0.2645
vn 0.3003 -0.9157 -0.2671
vn -0.6049 -0.0035 -0.7963
vn -0.5630 -0.0405 -0.8255
vn -0.0474 -0.2535 -0.9662
vn -0.0796 0.2642 -0.9612
vn -0.9634 -0.0122 -0.2677
vn 0.0123 0.2637 0.9645
vn 0.2357 0.2093 0.9490
vn 0.9940 -0.1065 -0.0251
vn -0.2281 -0.9549 -0.1901
vn -0.3725 0.1333 0.9184
vn -0.5685 -0.0743 0.8193
vn -0.6534 0.0469 0.7556
vn -0.1178 0.0667 0.9908
vn 0.3649 0.2909 -0.8845
vn 0.4226 0.3409 -0.8398
vn 0.6112 0.3220 -0.7230
vn 0.4777 0.3869 -0.7888
vn 0.1470 0.1007 0.9840
vn 0.5616 0.0897 0.8225
vn -0.0476 -0.5385 -0.8413
vn -0.0787 -0.9373 -0.3394
vn -0.9831 -0.0094 -0.1827
vn -0.9968 0.0258 -0.0754
vn -0.5055 -0.5660 -0.6512
vn -0.7457 -0.1922 0.6380
vn 0.5237 0.1003 0.8460
vn 0.5819 0.1184 0.8046
vn 0.8482 0.0367 0.5284
vn 0.9723 0.0523 0.2279
vn -0.0921 -0.8633 -0.4963
vn -0.8488 0.1086 -0.5174
vn 0.5269 0.1243 0.8408
vn 0.8404 0.3388 -0.4230
vn 0.9042 -0.1443 -0.4020
vn 0.6860 0.0060 -0.7275
vn -0.5690 -0.0535 -0.8206
vn -0.5262 0.6622 -0.5335
vn -0.1262 0.6060 -0.7854
vn 0.8264 0.3454 0.4448
vn -0.7970 0.0387 -0.6028
vn 0.6674 0.4529 0.5912
vn -0.5094 0.0742 -0.8573
vn -0.7890 0.0157 -0.6142
vn 0.3846 -0.9228 -0.0210
vn 0.6383 0.6116 -0.4674
vn 0.5569 0.6669 -0.4951
vn 0.4241 0.6908 -0.5857
vn -0.8427 -0.0433 -0.5366
vn -0.2130 -0.0620 -0.9751
vn -0.3075 0.1234 -0.9435
vn -0.1429 0.2721 -0.9516
vn 0.7697 0.4902 0.4089
vn 0.6429 0.3560 0.6782
vn -0.5415 0.4051 0.7366
vn -0.1603 0.0051 0.9871
vn -0.1593 0.0293 0.9868
vn 0.7655 0.4909 -0.4159
vn -0.9855 -0.0425 -0.1644
vn 0.7621 0.2942 0.5767
vn -0.8099 0.0663 -0.5828
vn -0.9811 -0.0117 -0.1930
vn -0.9815 -0.0115 -0.1909
vn 0.9368 0.3284 0.1209
vn 0.5750 0.4951 -0.6513
vn 0.5387 0.3778 -0.7530
vn 0.0046 -0.8287 -0.5596
vn -0.1551 -0.5069 -0.8479
vn -0.3448 -0.3260 -0.8802
vn 0.1331 0.1975 -0.9712
vn 0.2752 0.2323 -0.9329
vn -0.5635 -0.5024 0.6558
vn 0.6101 0.4374 0.6607
vn 0.6795 0.3282 0.6562
vn -0.4546 0.7556 -0.4717
vn 0.5177 0.2434 0.8202
vn -0.0674 -0.7126 -0.6983
vn -0.7798 -0.4819 -0.3996
vn -0.4077 -0.8697 -0.2782
vn -0.8229 -0.5611 -0.0899
vn 0.0924 -0.3741 -0.9228
vn -0.3499 -0.4433 -0.8252
vn 0.9849 0.0468 0.1666
vn 0.8820 0.1023 0.4600
vn 0.7519 0.0540 0.6571
vn 0.4619 -0.8628 0.2056
vn -0.1206 0.1070 -0.9869
vn 0.8348 0.4388 0.3325
vn 0.5777 0.3234 -0.7494
vn 0.7058 0.3222 0.6310
vn 0.4947 0.2070 -0.8441
vn -0.9745 0.0338 0.2220
vn 0.8988 0.0802 -0.4309
vn 0.9919 0.0807 -0.0978
vn 0.0649 0.1173 0.9910
vn 0.8050 0.4602 -0.3745
vn -0.5988 -0.2821 0.7496
vn 0.4726 0.2379 0.8485
vn 0.2464 0.2433 0.9381
vn -0.9324 0.2796 0.2292
vn 0.3371 0.5340 -0.7754
vn 0.4519 -0.8030 0.3885
vn 0.5189 -0.8179 -0.2485
vn -0.9830 0.0076 0.1836
vn -0.9826 0.1802 0.0454
vn -0.4282 0.1296 -0.8944
vn 0.1418 -0.8763 0.4604
vn -0.3426 -0.8014 0.4903
vn 0.8130 0.0648 -0.5787
vn -0.2153 -0.0373 -0.9758
vn -0.8948 0.0522 0.4435
vn 0.1388 -0.9792 -0.1478
vn 0.4671 0.1531 0.8709
vn 0.4302 -0.1634 0.8878
vn 0.5803 0.1257 -0.8047
vn -0.8532 -0.5139 -0.0898
vn 0.7910 0.5069 -0.3426
vn 0.9690 -0.1825 -0.1663
vn 0.2467 -0.7611 0.5999
vn -0.1879 0.1207 0.9747
vn -0.2244 0.0367 0.9738
vn 0.6283 0.3798 -0.6790
vn -0.7561 -0.6517 0.0598
vn -0.4043 -0.8237 0.3976
vn 0.3964 -0.9151 -0.0732
vn -0.3072 0.4205 -0.8537
vn 0.1579 -0.9800 -0.1210
vn 0.4668 -0.4883 0.7373
vn -0.8300 -0.0142 -0.5576
vn 0.4077 0.3517 -0.8427
vn 0.1345 -0.9908 -0.0157
vn 0.6090 0.2755 0.7437
vn -0.0167 -0.0468 -0.9988
vn -0.8251 -0.0091 -0.5648
vn 0.4828 0.2163 -0.8486
vn -0.0950 0.4642 -0.8806
vn -0.9645 -0.0942 -0.2468
vn 0.4814 0.1331 -0.8663
vn 0.5685 -0.4484 0.6897
vn 0.6664 -0.3105 0.6778
vn 0.5794 -0.2718 0.7684
vn 0.2692 -0.3302 0.9047
vn 0.1761 -0.9794 0.0985
vn 0.0454 -0.9977 -0.0500
vn -0.0753 -0.9868 -0.1435
vn -0.2312 -0.9526 0.1978
vn 0.5076 -0.3136 0.8025
vn 0.9937 -0.1045 -0.0393
vn 0.1607 0.2158 -0.9631
vn -0.5812 -0.1472 0.8003
vn -0.2795 -0.2162 0.9355
vn -0.9735 0.0484 0.2233
vn 0.9072 -0.3147 0.2794
vn 0.6841 -0.3636 -0.6323
vn 0.4216 -0.5893 -0.6892
vn 0.3398 -0.6070 -0.7184
vn -0.4098 0.8874 -0.2114
vn -0.5908 0.6758 -0.4407
vn -0.5673 0.8185 0.0902
vn -0.1431 0.9894 -0.0253
vn -0.4899 0.8708 0.0425
vn -0.2680 0.8571 -0.4400
vn 0.3847 -0.0588 0.9212
vn 0.5234 -0.0149 0.8519
vn 0.6859 -0.1706 0.7074
vn 0.2806 -0.1228 0.9519
vn 0.3736 -0.1810 0.9098
vn 0.4149 -0.2027 0.8870
vn 0.7479 -0.1992 0.6332
vn 0.9591 -0.1736 0.2234
vn 0.9308 -0.2714 0.2447
vn -0.8332 0.2832 -0.4749
vn -0.9322 0.1900 -0.3081
vn -0.8091 0.1782 -0.5600
vn -0.7378 0.0116 -0.6749
vn -0.4754 -0.0164 -0.8796
vn -0.3191 -0.1041 -0.9420
vn -0.8649 0.0787 0.4958
vn -0.1688 0.0121 0.9856
vn -0.7289 -0.1800 0.6605
vn 0.8192 -0.2919 -0.4936
vn 0.9560 0.2317 -0.1798
vn 0.9431 -0.2628 -0.2040
vn -0.7647 0.1082 -0.6352
vn -0.6169 0.1861 -0.7647
vn -0.8530 0.2240 -0.4714
vn 0.5343 0.2414 -0.8101
vn 0.6079 -0.1082 -0.7866
vn 0.7515 0.2655 -0.6039
vn -0.3899 0.0996 -0.9154
vn -0.3536 0.0991 -0.9301
vn -0.4545 0.0266 -0.8904
vn 0.1825 -0.2620 0.9477
vn 0.3034 -0.3145 0.8995
vn 0.3450 -0.1889 0.9194
vn -0.0959 -0.2202 0.9707
vn -0.7989 0.2323 -0.5548
vn -0.1815 -0.2493 0.9513
vn -0.6630 -0.2395 0.7093
vn -0.6511 -0.2408 0.7198
vn 0.2593 -0.3316 0.9071
vn -0.8860 0.1668 -0.4326
vn -0.3317 0.3563 -0.8735
vn -0.8245 0.2044 -0.5276
vn -0.8436 -0.1316 0.5207
vn -0.4784 -0.2198 0.8502
vn 0.1307 -0.4272 0.8946
vn 0.1940 -0.5470 0.8143
vn -0.7071 0.2752 -0.6513
vn 0.9065 0.0989 -0.4104
vn 0.9646 0.0108 -0.2635
vn 0.9630 0.0141 -0.2691
vn -0.2220 0.7227 0.6546
vn -0.2726 0.8789 0.3914
vn 0.4818 -0.2223 -0.8476
vn 0.7378 -0.3366 -0.5852
vn 0.5946 -0.3069 -0.7432
vn -0.3555 -0.0290 -0.9342
vn -0.4845 -0.0232 -0.8745
vn -0.0438 0.9736 0.2242
vn -0.3836 0.9162 0.1157
vn -0.3522 -0.0685 0.9334
vn -0.0954 -0.2457 0.9646
vn 0.0947 -0.2166 0.9717
vn 0.3325 -0.2338 0.9137
vn 0.2578 -0.1923 0.9469
vn -0.2030 -0.1089 0.9731
vn 0.2417 -0.2216 0.9447
vn 0.6619 -0.2440 0.7088
vn 0.6794 0.0353 0.7329
vn 0.3171 -0.1170 -0.9412
vn 0.0635 -0.0381 -0.9973
vn -0.1843 -0.0391 -0.9821
vn -0.2276 0.5970 -0.7692
vn -0.2148 0.7247 -0.6548
vn -0.1969 0.6709 -0.7149
vn -0.0821 0.8180 -0.5693
vn -0.3534 0.6530 -0.6699
vn 0.0181 0.7222 -0.6914
vn -0.3120 0.1976 -0.9293
vn -0.5389 0.6687 -0.5122
vn 0.9431 -0.0452 -0.3295
vn 0.9913 0.0374 0.1265
vn 0.8012 -0.0154 0.5982
vn -0.0136 -0.0650 0.9978
vn -0.4740 -0.0932 0.8756
vn -0.3295 0.5293 -0.7818
vn 0.0326 0.7902 -0.6119
vn -0.5509 0.0539 -0.8328
vn 0.1972 -0.1726 0.9650
vn 0.3853 0.1724 0.9065
vn 0.4156 -0.1419 0.8984
vn 0.8712 -0.2745 -0.4071
vn 0.9497 -0.1132 -0.2920
vn 0.9641 -0.0712 -0.2557
vn 0.3180 -0.5660 0.7606
vn -0.1592 -0.3795 0.9114
vn 0.2317 -0.2871 0.9294
vn 0.1107 -0.3251 0.9392
vn -0.2521 -0.4337 0.8651
vn 0.5291 -0.1316 0.8383
vn 0.4946 -0.2095 0.8435
vn 0.6470 -0.0647 0.7597
vn -0.3186 0.9201 -0.2280
vn -0.6272 0.3188 -0.7106
vn -0.5391 0.1031 -0.8359
vn -0.7197 0.1500 -0.6779
vn -0.4773 -0.4392 -0.7611
vn 0.1058 -0.5736 -0.8122
vn -0.1156 -0.3026 -0.9461
vn -0.2358 -0.2473 -0.9398
vn 0.2771 -0.3387 -0.8992
vn 0.6293 -0.1824 -0.7555
vn 0.5899 -0.3240 -0.7396
vn 0.3223 -0.1557 -0.9338
vn -0.1206 -0.0866 -0.9889
vn 0.3945 -0.2631 -0.8804
vn -0.7006 0.0587 -0.7111
vn -0.5880 0.0438 -0.8076
vn -0.8596 0.0863 -0.5036
vn -0.9335 0.0135 0.3583
vn 0.1531 -0.1550 0.9760
vn 0.2745 -0.0385 0.9608
vn 0.5996 0.6650 0.4452
vn 0.6283 0.7692 -0.1167
vn 0.5001 0.8435 -0.1957
vn 0.9955 -0.0141 -0.0941
vn -0.4210 -0.9068 0.0203
vn -0.5790 -0.6281 -0.5199
vn -0.0353 -0.6781 -0.7341
vn 0.4373 -0.1296 0.8899
vn 0.4322 -0.0347 0.9011
vn 0.4061 -0.1074 0.9075
vn 0.8703 -0.1627 0.4648
vn -0.0606 0.0124 -0.9981
vn -0.2053 -0.4650 0.8612
vn 0.4176 -0.1473 0.8966
vn 0.7641 -0.3105 0.5654
vn 0.3639 -0.1311 0.9222
vn 0.3586 0.7076 -0.6089
vn 0.1780 0.6080 -0.7738
vn 0.6698 0.6984 0.2523
vn 0.5605 0.5591 0.6109
vn 0.6389 0.2936 0.7110
vn -0.7883 0.2141 -0.5769
vn -0.9484 0.2307 -0.2176
vn 0.7661 -0.2622 -0.5869
vn 0.9957 0.0541 -0.0752
vn -0.7992 -0.1251 0.5879
vn -0.9945 -0.0992 -0.0328
vn -0.9955 0.0535 -0.0784
vn -0.8005 -0.1779 0.5723
vn -0.9817 -0.1012 0.1611
vn 0.2339 -0.1448 -0.9614
vn 0.2674 -0.1802 -0.9466
vn 0.4659 -0.7466 -0.4749
vn 0.1731 -0.6154 0.7689
vn 0.7382 -0.6668 -0.1022
vn 0.9858 0.1500 -0.0757
vn 0.9370 0.0828 -0.3394
vn 0.2140 -0.0364 -0.9762
vn 0.3469 -0.6553 -0.6709
vn -0.0336 0.6108 -0.7910
vn 0.3861 0.7022 -0.5982
vn -0.1168 -0.1618 -0.9799
vn -0.0224 -0.1858 -0.9823
vn 0.3141 -0.2428 -0.9178
vn -0.0565 0.5203 -0.8521
vn -0.2075 0.7752 -0.5966
vn 0.0119 0.9322 -0.3617
vn -0.0387 -0.6678 0.7433
vn -0.8838 -0.0116 -0.4677
vn -0.8002 0.0608 -0.5967
vn -0.9977 -0.0444 0.0509
vn -0.9956 0.0270 -0.0903
vn -0.2720 0.9226 -0.2735
vn 0.7666 -0.3081 -0.5633
vn 0.8718 0.0038 -0.4898
vn 0.9897 -0.1332 0.0529
vn 0.4034 -0.2129 0.8899
vn 0.2149 0.0784 0.9735
vn -0.0834 0.4914 0.8670
vn 0.7666 -0.5661 -0.3032
vn -0.3502 -0.0866 0.9327
vn -0.0752 -0.0743 0.9944
vn 0.1360 0.7370 0.6621
vn 0.0335 0.9987 0.0392
vn -0.4194 0.9078 0.0005
vn 0.5971 0.6938 -0.4025
vn 0.7745 0.5779 -0.2573
vn -0.9303 0.3261 -0.1676
vn -0.9646 -0.0164 -0.2634
vn -0.9713 0.2379 -0.0055
vn -0.1204 -0.1491 0.9815
vn 0.0648 -0.2348 0.9699
vn -0.5008 0.7254 0.4722
vn -0.5137 0.6246 0.5882
vn 0.6491 -0.5691 -0.5048
vn -0.9897 -0.0240 -0.1409
vn -0.9489 0.0337 0.3138
vn -0.9830 0.0048 -0.1834
vn 0.4979 0.4560 0.7376
vn 0.5043 0.4044 0.7630
vn 0.3315 0.9388 0.0935
vn -0.5856 -0.2244 -0.7790
vn -0.7998 -0.2532 -0.5443
vn -0.1227 -0.7704 -0.6256
vn -0.0877 -0.5069 -0.8576
vn 0.0975 -0.4196 0.9025
vn -0.5714 -0.0642 0.8182
vn -0.5293 -0.3430 0.7760
vn -0.8371 0.2715 -0.4750
vn -0.6011 0.1054 -0.7922
vn -0.4463 0.2652 -0.8547
vn -0.5381 0.0543 -0.8411
vn -0.9844 0.0640 -0.1641
vn -0.9786 0.1844 -0.0916
vn -0.9473 0.0773 -0.3109
vn -0.9945 0.0513 -0.0910
vn 0.2819 -0.1496 0.9477
vn 0.4104 -0.1010 0.9063
vn -0.0026 0.2247 0.9744
vn -0.3385 -0.0101 0.9409
vn -0.2643 0.4679 -0.8434
vn -0.5767 0.5046 -0.6425
vn 0.8203 -0.4005 -0.4083
vn 0.8454 -0.4569 -0.2765
vn -0.0690 0.5752 -0.8151
vn -0.0765 0.6618 -0.7458
vn -0.7833 0.0249 -0.6212
vn -0.5726 0.1030 -0.8134
vn -0.8633 0.0001 -0.5047
vn -0.9786 0.0472 0.2004
vn -0.9324 -0.0135 0.3611
vn -0.7470 -0.0860 0.6592
vn 0.6069 -0.0075 -0.7947
vn 0.6054 -0.1292 -0.7853
vn 0.6954 0.2484 -0.6744
vn 0.9716 0.0955 -0.2166
vn 0.9932 -0.1124 -0.0293
vn -0.8962 0.1458 -0.4189
vn -0.8533 0.3285 -0.4048
vn -0.8719 0.1285 -0.4725
vn 0.0780 0.0124 0.9969
vn -0.6354 0.7210 -0.2764
vn 0.7618 -0.6029 -0.2370
vn 0.3874 0.4818 -0.7860
vn 0.5287 0.5233 -0.6684
vn 0.4589 -0.1293 0.8790
vn 0.4490 -0.0806 0.8899
vn 0.6008 -0.2142 0.7701
vn -0.0752 -0.7493 -0.6580
vn -0.0198 -0.7190 -0.6947
vn -0.1635 -0.4585 -0.8735
vn -0.2845 0.8045 -0.5214
vn -0.5910 0.0019 0.8067
vn 0.8527 0.0315 0.5215
vn 0.8984 0.3640 0.2458
vn -0.9875 0.0086 -0.1573
vn -0.7212 0.6918 0.0364
vn -0.9010 0.4206 -0.1064
vn -0.4602 -0.0673 -0.8853
vn -0.7810 -0.0088 -0.6244
vn -0.2151 0.6732 -0.7075
vn -0.5024 0.0685 -0.8619
vn 0.5483 -0.3549 -0.7573
vn 0.8883 -0.2308 0.3971
vn 0.8537 -0.2342 0.4652
vn 0.7355 -0.1027 0.6697
vn 0.1075 -0.2442 -0.9637
vn -0.3351 -0.0772 -0.9390
vn 0.8592 -0.5022 -0.0981
vn 0.9154 -0.3773 0.1404
vn 0.9078 -0.4153 -0.0582
vn 0.8150 -0.4505 0.3645
vn 0.9553 -0.2883 -0.0661
vn 0.5493 -0.6256 0.5540
vn 0.7015 -0.0413 0.7114
vn 0.5595 -0.2255 0.7976
vn 0.4993 -0.3042 -0.8113
vn 0.8301 -0.0269 0.5570
vn -0.8861 -0.0344 0.4623
vn 0.8546 0.4783 -0.2021
vn 0.5787 0.8153 -0.0198
vn 0.3059 0.9115 0.2749
vn -0.3488 -0.1338 -0.9276
vn -0.6815 -0.0538 -0.7298
vn -0.6165 -0.0644 -0.7847
vn -0.2643 0.0908 -0.9601
vn 0.3169 -0.0633 0.9464
vn 0.1899 0.9790 -0.0747
vn 0.2942 -0.0270 0.9554
vn 0.2662 0.9639 -0.0029
vn -0.7223 -0.1059 0.6834
vn -0.9842 0.0089 -0.1766
vn 0.3060 -0.0904 0.9477
vn 0.3768 -0.1248 0.9178
vn 0.6011 -0.1090 0.7917
vn 0.4830 -0.0734 0.8725
vn -0.9297 0.0734 -0.3608
vn -0.8115 0.0973 -0.5761
vn -0.4643 0.0050 -0.8856
vn 0.6742 0.0012 -0.7386
vn -0.8186 0.4991 0.2844
vn 0.1919 0.1681 0.9669
vn -0.4985 0.2371 0.8338
vn -0.4207 -0.0648 0.9049
vn 0.4679 -0.0060 0.8837
vn 0.3292 0.0325 0.9437
vn 0.4405 -0.3045 0.8445
vn 0.4270 -0.0463 0.9031
vn 0.4253 0.0003 0.9051
vn -0.1085 -0.1312 -0.9854
vn 0.3635 -0.0374 0.9308
vn -0.9869 0.0713 -0.1450
vn -0.8311 0.1027 -0.5466
vn 0.4845 -0.4372 0.7577
vn 0.8258 -0.4479 0.3427
vn -0.3593 0.5126 -0.7799
vn 0.2736 -0.3112 -0.9101
vn 0.2061 -0.2572 -0.9441
vn 0.3903 0.0168 -0.9205
vn -0.9269 0.0012 -0.3754
vn 0.7856 -0.3732 0.4935
vn 0.6750 -0.6206 0.3989
vn 0.8197 -0.3956 0.4141
vn -0.5094 0.5447 0.6662
vn 0.4152 -0.1638 -0.8949
vn 0.7900 -0.3493 -0.5038
vn 0.8323 -0.3173 -0.4546
vn 0.3760 0.0837 0.9228
vn -0.9068 0.0517 -0.4184
vn 0.4561 0.0196 -0.8897
vn 0.2362 -0.1024 -0.9663
vn 0.6340 0.0018 -0.7733
vn -0.3085 -0.1191 0.9437
vn -0.9348 0.0779 -0.3465
vn -0.3457 -0.5888 -0.7306
vn -0.7231 0.1691 -0.6698
vn -0.5683 0.8170 0.0974
vn -0.9960 0.0156 0.0880
vn -0.7577 -0.0588 -0.6499
vn -0.8681 0.1703 0.4663
vn -0.9690 0.2298 -0.0908
vn -0.1747 0.6583 -0.7322
vn -0.2151 -0.3183 -0.9233
vn -0.2150 -0.1138 -0.9700
vn 0.9454 -0.2231 -0.2377
vn -0.9481 0.0263 -0.3170
vn 0.4075 -0.4756 -0.7796
vn 0.6214 -0.3776 -0.6865
vn 0.5813 -0.3249 -0.7460
vn 0.7575 -0.1748 -0.6290
vn -0.9239 0.0670 -0.3767
vn 0.0693 0.9160 -0.3952
vn 0.2511 0.9639 0.0886
vn 0.9612 -0.2736 -0.0353
vn -0.8313 0.4546 -0.3199
vn 0.2721 -0.1875 0.9438
vn 0.0475 -0.0509 0.9976
vn -0.9615 -0.0877 0.2605
vn 0.4268 -0.0204 -0.9041
vn 0.6854 0.6506 -0.3269
vn 0.8086 0.5772 -0.1145
vn -0.0049 -0.0300 0.9995
vn 0.9179 -0.2057 -0.3393
vn 0.9873 -0.1579 -0.0145
vn 0.7716 -0.2772 -0.5725
vn 0.7764 -0.3679 -0.5118
vn 0.6309 0.6570 0.4127
vn -0.4161 -0.0468 0.9081
vn -0.0634 -0.3495 0.9348
vn -0.8276 -0.1515 0.5405
vn 0.7518 0.0770 -0.6549
vn -0.5655 -0.2332 0.7911
vn 0.9000 0.1065 -0.4226
vn -0.4583 0.3243 -0.8275
vn -0.3316 0.3562 -0.8736
vn -0.2642 0.3701 -0.8906
vn 0.3601 -0.3435 0.8674
vn 0.3405 -0.3275 0.8813
vn -0.4223 -0.2805 -0.8620
vn -0.8053 0.4194 -0.4191
vn -0.5876 0.0724 -0.8059
vn 0.9817 -0.0128 -0.1898
vn -0.4584 0.3243 -0.8275
vn -0.7056 0.2879 -0.6475
vn 0.5746 -0.3085 0.7581
vn 0.4323 -0.3090 0.8471
vn 0.3980 -0.0427 0.9164
vn 0.5956 -0.0813 -0.7992
vn 0.5267 -0.2741 0.8047
vn -0.7618 -0.0828 0.6425
vn 0.9195 0.2946 -0.2603
vn -0.1595 0.5161 -0.8415
vn -0.5827 0.8047 -0.1134
vn 0.5220 -0.1913 -0.8312
vn 0.5951 -0.2439 -0.7658
vn 0.6288 -0.3392 -0.6997
vn 0.6201 -0.2481 -0.7443
vn 0.4824 -0.3097 -0.8194
vn -0.3215 -0.1209 0.9392
vn 0.4219 -0.2520 0.8709
vn -0.0379 -0.0769 -0.9963
vn -0.9965 0.0806 0.0228
vn -0.2219 -0.2927 0.9301
vn 0.6299 -0.2379 -0.7393
vn -0.9968 -0.0365 -0.0709
vn 0.6858 -0.6112 -0.3950
vn 0.9774 -0.1724 0.1223
vn 0.4342 -0.3579 0.8267
vn 0.0840 -0.2955 0.9516
vn 0.3842 -0.3449 0.8564
vn 0.6197 -0.1977 -0.7595
vn 0.0842 -0.1833 0.9794
vn -0.1154 -0.2454 0.9625
vn -0.1814 -0.2493 0.9513
vn -0.6510 -0.2408 0.7198
vn -0.9215 -0.1009 0.3750
vn 0.2230 -0.3334 0.9160
vn -0.1966 -0.1817 -0.9635
vn 0.3559 0.0973 0.9294
vn 0.2509 -0.0934 0.9635
vn 0.5040 -0.1790 0.8450
vn 0.7196 -0.3442 0.6030
vn -0.5415 0.3482 -0.7651
vn -0.2742 -0.2171 0.9369
vn -0.9880 0.1508 -0.0326
vn -0.2573 0.3313 -0.9078
vn -0.2582 0.3320 -0.9073
vn -0.4866 -0.1537 0.8600
vn -0.5945 -0.1602 0.7880
s 1
usemtl initialShadingGroup.001
f 233//1 90//2 250//3
f 213//4 238//5 75//6
f 1//7 159//8 208//9
f 80//10 4//11 369//12
f 369//12 7//13 2//14
f 369//12 4//15 7//13
f 4//11 1//7 2//14
f 2//14 7//13 4//15
f 222//16 251//17 123//18
f 349//19 141//20 389//21
f 230//22 5//23 295//24
f 296//25 265//26 53//27
f 257//28 81//29 58//30
f 21//31 14//32 77//33
f 231//34 309//35 170//36
f 264//37 104//38 288//39
f 360//40 224//41 339//42
f 23//43 92//44 279//45
f 371//46 256//47 148//48
f 309//35 165//49 275//50
f 263//51 387//52 39//53
f 135//54 166//55 306//56
f 309//35 381//57 209//58
f 385//59 191//60 185//61
f 296//25 53//27 154//62
f 158//63 29//64 33//65
f 194//66 303//67 163//68
f 241//69 196//70 341//71
f 171//72 29//64 158//63
f 190//73 269//74 380//75
f 66//76 279//45 128//77
f 80//10 357//78 14//32
f 118//79 237//80 147//81
f 235//82 97//83 248//84
f 262//85 182//86 195//87
f 365//88 91//89 117//90
f 227//91 63//92 366//93
f 56//94 262//85 152//95
f 145//96 103//97 15//98
f 27//99 111//100 53//27
f 335//101 27//99 53//27
f 39//53 387//52 293//102
f 381//57 272//103 88//104
f 378//105 63//92 284//106
f 372//107 234//108 290//109
f 203//110 108//111 261//112
f 33//65 255//113 155//114
f 352//115 144//116 350//117
f 108//111 163//68 257//28
f 93//118 311//119 78//120
f 57//121 54//122 300//123
f 233//1 141//20 349//19
f 126//124 347//125 112//126
f 101//127 133//128 353//129
f 231//34 105//130 229//131
f 358//132 138//133 98//134
f 30//135 345//136 129//137
f 22//138 261//112 378//105
f 69//139 11//140 284//106
f 245//141 105//130 231//34
f 227//91 284//106 63//92
f 210//142 219//143 71//144
f 60//145 189//146 256//47
f 31//147 317//148 228//149
f 228//149 317//148 134//150
f 72//151 167//152 168//153
f 42//154 363//155 367//156
f 294//157 86//158 149//159
f 57//121 94//160 54//122
f 50//161 320//162 182//86
f 180//163 383//164 331//165
f 108//111 305//166 292//167
f 307//168 268//169 185//61
f 22//138 378//105 11//140
f 128//77 153//170 103//97
f 203//110 125//171 239//172
f 57//121 300//123 235//82
f 76//173 330//174 120//175
f 187//176 15//98 360//40
f 12//177 280//178 109//179
f 211//180 210//142 315//181
f 214//182 49//183 174//184
f 22//138 11//140 91//89
f 173//185 35//186 241//69
f 178//187 99//188 24//189
f 297//190 78//120 109//179
f 362//191 76//173 120//175
f 143//192 379//193 260//194
f 150//195 66//76 65//196
f 49//183 215//197 336//198
f 65//196 187//176 3//199
f 302//200 89//201 308//202
f 300//123 217//203 150//195
f 34//204 117//90 171//72
f 158//63 33//65 13//205
f 108//111 151//206 305//166
f 330//174 359//207 43//208
f 301//209 277//210 126//124
f 375//211 353//129 238//5
f 221//212 347//125 293//102
f 289//213 311//119 334//214
f 140//215 129//137 175//216
f 34//204 365//88 117//90
f 44//217 212//218 230//22
f 268//169 156//219 385//59
f 81//29 202//220 98//134
f 9//221 374//222 359//207
f 178//187 149//159 99//188
f 19//223 388//224 373//225
f 129//137 345//136 32//226
f 283//227 298//228 31//147
f 78//120 181//229 27//99
f 199//230 239//172 41//231
f 16//232 4//11 80//10
f 82//233 160//234 214//182
f 214//182 160//234 49//183
f 107//235 114//236 17//237
f 20//238 382//239 104//38
f 84//240 274//241 23//43
f 45//242 132//243 52//244
f 316//245 64//246 140//215
f 372//107 192//247 183//248
f 377//249 225//250 354//251
f 74//252 363//155 52//244
f 335//101 53//27 184//253
f 95//254 349//19 355//255
f 332//256 244//257 190//73
f 320//162 178//187 182//86
f 287//258 275//50 165//49
f 44//217 70//259 207//260
f 91//89 11//140 370//261
f 296//25 8//262 265//26
f 109//179 335//101 12//177
f 116//263 5//23 281//264
f 124//265 201//266 16//232
f 193//267 9//221 122//268
f 253//269 147//81 237//80
f 384//270 147//81 253//269
f 73//271 38//272 350//117
f 332//256 380//75 323//273
f 323//273 380//75 25//274
f 217//203 279//45 150//195
f 216//275 205//276 354//251
f 221//212 328//277 112//126
f 333//278 178//187 24//189
f 143//192 168//153 379//193
f 303//67 254//279 81//29
f 322//280 187//176 339//42
f 101//127 360//40 267//281
f 135//54 232//282 166//55
f 54//122 217//203 300//123
f 281//264 260//194 116//263
f 12//177 335//101 184//253
f 328//277 310//283 112//126
f 389//21 21//31 77//33
f 165//49 209//58 200//284
f 358//132 315//181 138//133
f 341//71 373//225 313//285
f 193//267 122//268 384//270
f 137//286 340//287 115//288
f 203//110 261//112 22//138
f 258//289 346//290 179//291
f 349//19 258//289 355//255
f 32//226 173//185 36//292
f 133//128 267//281 103//97
f 248//84 150//195 65//196
f 109//179 78//120 335//101
f 139//293 245//141 383//164
f 36//292 198//294 175//216
f 90//2 37//295 314//296
f 25//274 318//297 109//179
f 245//141 362//191 263//51
f 342//298 100//299 376//300
f 231//34 170//36 383//164
f 161//301 389//21 77//33
f 182//86 178//187 333//278
f 251//17 222//16 89//201
f 225//250 216//275 354//251
f 127//302 179//291 192//247
f 37//295 146//303 386//304
f 43//208 156//219 268//169
f 180//163 139//293 383//164
f 198//294 304//305 151//206
f 108//111 240//306 151//206
f 80//10 346//290 357//78
f 136//307 5//23 230//22
f 380//75 155//114 318//297
f 58//30 261//112 257//28
f 298//228 273//308 31//147
f 224//41 360//40 101//127
f 108//111 199//230 240//306
f 146//303 37//295 90//2
f 101//127 267//281 133//128
f 244//257 332//256 114//236
f 201//266 325//309 16//232
f 199//230 203//110 239//172
f 309//35 275//50 170//36
f 147//81 121//310 118//79
f 225//250 61//311 216//275
f 21//31 80//10 14//32
f 6//312 41//231 288//39
f 380//75 318//297 25//274
f 169//313 180//163 82//233
f 136//307 212//218 94//160
f 287//258 343//314 204//315
f 274//241 345//136 218//316
f 61//311 204//315 343//314
f 205//276 50//161 354//251
f 197//317 121//310 319//318
f 372//107 127//302 192//247
f 381//57 277//210 209//58
f 12//177 243//319 119//320
f 383//164 170//36 331//165
f 11//140 378//105 284//106
f 41//231 240//306 199//230
f 107//235 17//237 236//321
f 386//304 186//322 40//323
f 160//234 82//233 180//163
f 207//260 241//69 35//186
f 333//278 24//189 299//324
f 229//131 381//57 309//35
f 172//325 304//305 242//326
f 270//327 347//125 126//124
f 179//291 346//290 80//10
f 313//285 85//328 341//71
f 190//73 380//75 59//329
f 307//168 293//102 387//52
f 42//154 45//242 363//155
f 123//18 388//224 19//223
f 251//17 89//201 302//200
f 131//330 79//331 96//332
f 255//113 297//190 109//179
f 140//215 30//135 129//137
f 126//124 220//333 271//334
f 375//211 101//127 353//129
f 213//4 375//211 238//5
f 95//254 233//1 349//19
f 90//2 82//233 214//182
f 42//154 367//156 99//188
f 64//246 316//245 240//306
f 363//155 45//242 52//244
f 157//335 344//336 356//337
f 311//119 10//338 181//229
f 95//254 60//145 90//2
f 130//339 263//51 105//130
f 106//340 22//138 91//89
f 9//221 18//341 374//222
f 166//55 224//41 101//127
f 218//316 345//136 249//342
f 102//343 269//74 190//73
f 48//344 141//20 250//3
f 160//234 331//165 49//183
f 19//223 341//71 196//70
f 128//77 279//45 153//170
f 307//168 114//236 107//235
f 350//117 144//116 159//8
f 110//345 247//346 157//335
f 329//347 38//272 73//271
f 17//237 323//273 236//321
f 80//10 369//12 179//291
f 106//340 203//110 22//138
f 389//21 161//301 349//19
f 188//348 13//205 137//286
f 79//331 243//319 8//262
f 333//278 168//153 46//349
f 285//350 291//351 35//186
f 287//258 204//315 225//250
f 51//352 50//161 182//86
f 79//331 8//262 96//332
f 92//44 23//43 274//241
f 207//260 70//259 123//18
f 359//207 156//219 43//208
f 386//304 83//353 330//174
f 95//254 355//255 60//145
f 243//319 184//253 8//262
f 127//302 258//289 179//291
f 181//229 278//354 27//99
f 139//293 180//163 169//313
f 125//171 253//269 237//80
f 69//139 26//355 255//113
f 276//356 283//227 48//344
f 331//165 326//357 49//183
f 188//348 137//286 100//299
f 281//264 143//192 260//194
f 190//73 59//329 332//256
f 187//176 360//40 339//42
f 170//36 326//357 331//165
f 259//358 268//169 307//168
f 124//265 80//10 21//31
f 171//72 91//89 370//261
f 53//27 111//100 154//62
f 299//324 367//156 74//252
f 367//156 363//155 74//252
f 264//37 288//39 118//79
f 1//7 208//9 2//14
f 84//240 345//136 274//241
f 155//114 255//113 318//297
f 57//121 336//198 94//160
f 103//97 153//170 133//128
f 309//35 231//34 229//131
f 207//260 196//70 241//69
f 278//354 289//213 67//359
f 381//57 88//104 277//210
f 8//262 184//253 265//26
f 5//23 116//263 295//24
f 222//16 28//360 211//180
f 280//178 310//283 25//274
f 136//307 56//94 152//95
f 78//120 27//99 335//101
f 20//238 324//361 382//239
f 127//302 372//107 113//362
f 326//357 377//249 215//197
f 307//168 221//212 293//102
f 388//224 123//18 302//200
f 160//234 180//163 331//165
f 249//342 345//136 75//6
f 205//276 216//275 61//311
f 228//149 134//150 47//363
f 342//298 18//341 188//348
f 30//135 75//6 345//136
f 138//133 334//214 206//364
f 18//341 158//63 13//205
f 30//135 140//215 64//246
f 385//59 100//299 191//60
f 207//260 123//18 196//70
f 71//144 67//359 289//213
f 209//58 277//210 200//284
f 320//162 294//157 178//187
f 45//242 154//62 67//359
f 268//169 385//59 185//61
f 223//365 364//366 254//279
f 150//195 279//45 66//76
f 271//334 119//320 243//319
f 130//339 105//130 245//141
f 74//252 219//143 210//142
f 327//367 371//46 20//238
f 86//158 226//368 149//159
f 365//88 106//340 91//89
f 349//19 161//301 258//289
f 237//80 41//231 239//172
f 179//291 369//12 192//247
f 77//33 14//32 357//78
f 312//369 159//8 164//370
f 5//23 152//95 281//264
f 104//38 135//54 306//56
f 89//201 266//371 308//202
f 64//246 213//4 30//135
f 316//245 175//216 198//294
f 79//331 131//330 243//319
f 34//204 171//72 158//63
f 125//171 365//88 34//204
f 332//256 59//329 380//75
f 176//372 282//373 325//309
f 154//62 111//100 67//359
f 364//366 223//365 373//225
f 112//126 220//333 126//124
f 291//351 207//260 35//186
f 319//318 122//268 9//221
f 252//374 125//171 34//204
f 107//235 236//321 328//277
f 310//283 280//178 12//177
f 387//52 259//358 307//168
f 42//154 338//375 348//376
f 314//296 139//293 169//313
f 232//282 224//41 166//55
f 191//60 100//299 137//286
f 122//268 121//310 384//270
f 104//38 382//239 135//54
f 225//250 204//315 61//311
f 148//48 110//345 324//361
f 234//108 247//346 110//345
f 337//377 366//93 98//134
f 171//72 370//261 29//64
f 226//368 296//25 338//375
f 273//308 248//84 65//196
f 3//199 329//347 176//372
f 332//256 17//237 114//236
f 263//51 62//378 105//130
f 356//337 344//336 352//115
f 93//118 297//190 68//379
f 282//373 73//271 1//7
f 182//86 333//278 195//87
f 172//325 85//328 194//66
f 388//224 302//200 142//380
f 316//245 140//215 175//216
f 252//374 253//269 125//171
f 339//42 356//337 322//280
f 36//292 241//69 242//326
f 85//328 223//365 194//66
f 383//164 245//141 231//34
f 232//282 356//337 224//41
f 26//355 366//93 337//377
f 132//243 219//143 74//252
f 67//359 132//243 45//242
f 250//3 141//20 233//1
f 377//249 354//251 215//197
f 190//73 244//257 102//343
f 301//209 351//381 200//284
f 277//210 301//209 200//284
f 81//29 98//134 366//93
f 378//105 58//30 63//92
f 54//122 212//218 217//203
f 26//355 227//91 366//93
f 81//29 366//93 63//92
f 240//306 198//294 151//206
f 369//12 2//14 192//247
f 254//279 202//220 81//29
f 153//170 238//5 353//129
f 137//286 13//205 340//287
f 280//178 25//274 109//179
f 40//323 87//382 83//353
f 247//346 164//370 352//115
f 191//60 115//288 244//257
f 255//113 26//355 68//379
f 388//224 142//380 373//225
f 310//283 12//177 220//333
f 374//222 18//341 342//298
f 47//363 389//21 48//344
f 12//177 119//320 220//333
f 230//22 70//259 44//217
f 123//18 19//223 196//70
f 299//324 72//151 168//153
f 94//160 212//218 54//122
f 153//170 353//129 133//128
f 288//39 41//231 118//79
f 290//109 110//345 148//48
f 107//235 328//277 221//212
f 285//350 173//185 84//240
f 206//364 334//214 311//119
f 273//308 65//196 3//199
f 292//167 305//166 172//325
f 213//4 64//246 6//312
f 310//283 220//333 112//126
f 340//287 269//74 102//343
f 111//100 278//354 67//359
f 262//85 51//352 182//86
f 318//297 255//113 109//179
f 78//120 311//119 181//229
f 286//383 98//134 138//133
f 105//130 62//378 229//131
f 202//220 254//279 364//366
f 246//384 85//328 172//325
f 49//183 336//198 57//121
f 348//376 154//62 45//242
f 355//255 113//362 177//385
f 301//209 131//330 351//381
f 286//383 138//133 206//364
f 362//191 120//175 55//386
f 25//274 310//283 328//277
f 10//338 289//213 278//354
f 373//225 142//380 364//366
f 135//54 382//239 232//282
f 88//104 270//327 126//124
f 56//94 215//197 262//85
f 355//255 258//289 113//362
f 386//304 330//174 76//173
f 87//382 321//387 197//317
f 90//2 314//296 169//313
f 359//207 374//222 156//219
f 96//332 296//25 226//368
f 272//103 39//53 293//102
f 141//20 48//344 389//21
f 152//95 195//87 281//264
f 372//107 183//248 234//108
f 343//314 86//158 294//157
f 247//346 344//336 157//335
f 66//76 103//97 145//96
f 104//38 264//37 197//317
f 296//25 154//62 348//376
f 121//310 147//81 384//270
f 291//351 44//217 207//260
f 354//251 50//161 215//197
f 221//212 112//126 347//125
f 12//177 184//253 243//319
f 308//202 266//371 315//181
f 6//312 64//246 240//306
f 142//380 358//132 364//366
f 103//97 267//281 15//98
f 40//323 321//387 87//382
f 164//370 159//8 144//116
f 167//152 379//193 168//153
f 164//370 208//9 312//369
f 198//294 36//292 304//305
f 18//341 253//269 252//374
f 315//181 334//214 138//133
f 315//181 210//142 334//214
f 69//139 370//261 11//140
f 314//296 37//295 362//191
f 205//276 320//162 50//161
f 371//46 324//361 20//238
f 217//203 212//218 44//217
f 162//388 270//327 88//104
f 275//50 225//250 377//249
f 97//83 300//123 150//195
f 85//328 313//285 223//365
f 247//346 352//115 344//336
f 287//258 165//49 368//389
f 242//326 246//384 172//325
f 50//161 51//352 215//197
f 177//385 290//109 189//146
f 90//2 214//182 250//3
f 302//200 308//202 142//380
f 272//103 162//388 88//104
f 379//193 167//152 260//194
f 314//296 362//191 245//141
f 271//334 301//209 126//124
f 338//375 296//25 348//376
f 343//314 368//389 86//158
f 380//75 269//74 155//114
f 129//137 32//226 36//292
f 170//36 377//249 326//357
f 236//321 25//274 328//277
f 351//381 131//330 368//389
f 213//4 75//6 30//135
f 261//112 108//111 257//28
f 74//252 28//360 72//151
f 142//380 315//181 358//132
f 295//24 260//194 222//16
f 176//372 329//347 282//373
f 102//343 115//288 340//287
f 200//284 351//381 368//389
f 120//175 387//52 55//386
f 117//90 91//89 171//72
f 90//2 233//1 95//254
f 292//167 172//325 194//66
f 65//196 145//96 187//176
f 276//356 174//184 283//227
f 220//333 119//320 271//334
f 381//57 229//131 62//378
f 246//384 341//71 85//328
f 1//7 350//117 159//8
f 36//292 242//326 304//305
f 28//360 74//252 210//142
f 238//5 249//342 75//6
f 101//127 375//211 166//55
f 295//24 222//16 123//18
f 148//48 189//146 290//109
f 161//301 357//78 346//290
f 281//264 195//87 333//278
f 5//23 136//307 152//95
f 153//170 92//44 218//316
f 33//65 69//139 255//113
f 352//115 38//272 356//337
f 305//166 304//305 172//325
f 279//45 92//44 153//170
f 277//210 88//104 126//124
f 205//276 61//311 294//157
f 288//39 306//56 6//312
f 266//371 211//180 315//181
f 87//382 319//318 9//221
f 42//154 348//376 45//242
f 46//349 168//153 143//192
f 81//29 257//28 303//67
f 260//194 167//152 28//360
f 260//194 28//360 222//16
f 294//157 149//159 178//187
f 26//355 337//377 68//379
f 321//387 104//38 197//317
f 161//301 346//290 258//289
f 58//30 81//29 63//92
f 314//296 245//141 139//293
f 177//385 189//146 60//145
f 218//316 238//5 153//170
f 281//264 333//278 46//349
f 382//239 324//361 157//335
f 222//16 211//180 266//371
f 321//387 327//367 104//38
f 237//80 118//79 41//231
f 148//48 256//47 189//146
f 375//211 213//4 306//56
f 245//141 263//51 130//339
f 193//267 384//270 253//269
f 237//80 239//172 125//171
f 62//378 263//51 39//53
f 83//353 359//207 330//174
f 15//98 267//281 360//40
f 337//377 98//134 286//383
f 191//60 244//257 185//61
f 48//344 283//227 228//149
f 262//85 195//87 152//95
f 263//51 55//386 387//52
f 282//373 1//7 4//11
f 31//147 273//308 3//199
f 73//271 350//117 1//7
f 166//55 375//211 306//56
f 156//219 376//300 385//59
f 161//301 77//33 357//78
f 149//159 338//375 99//188
f 255//113 68//379 297//190
f 287//258 368//389 343//314
f 104//38 306//56 288//39
f 347//125 270//327 162//388
f 368//389 131//330 96//332
f 47//363 21//31 389//21
f 343//314 294//157 61//311
f 87//382 197//317 319//318
f 6//312 306//56 213//4
f 177//385 113//362 372//107
f 227//91 69//139 284//106
f 62//378 39//53 272//103
f 329//347 187//176 322//280
f 185//61 244//257 114//236
f 259//358 43//208 268//169
f 70//259 295//24 123//18
f 96//332 226//368 86//158
f 236//321 323//273 25//274
f 194//66 163//68 292//167
f 48//344 228//149 47//363
f 317//148 176//372 134//150
f 313//285 373//225 223//365
f 74//252 52//244 132//243
f 371//46 148//48 324//361
f 43//208 259//358 120//175
f 6//312 240//306 41//231
f 174//184 235//82 283//227
f 29//64 69//139 33//65
f 84//240 32//226 345//136
f 2//14 183//248 192//247
f 385//59 376//300 100//299
f 227//91 26//355 69//139
f 327//367 20//238 104//38
f 356//337 339//42 224//41
f 362//191 386//304 76//173
f 272//103 381//57 62//378
f 211//180 28//360 210//142
f 386//304 146//303 186//322
f 203//110 106//340 365//88
f 187//176 329//347 3//199
f 334//214 71//144 289//213
f 37//295 386//304 362//191
f 2//14 208//9 183//248
f 143//192 281//264 46//349
f 55//386 263//51 362//191
f 184//253 53//27 265//26
f 110//345 157//335 324//361
f 168//153 333//278 299//324
f 170//36 275//50 377//249
f 93//118 206//364 311//119
f 241//69 36//292 173//185
f 365//88 125//171 203//110
f 40//323 371//46 321//387
f 371//46 327//367 321//387
f 146//303 256//47 186//322
f 186//322 256//47 40//323
f 176//372 317//148 3//199
f 290//109 234//108 110//345
f 84//240 173//185 32//226
f 374//222 342//298 156//219
f 134//150 201//266 124//265
f 217//203 44//217 291//351
f 90//2 169//313 82//233
f 21//31 47//363 124//265
f 49//183 57//121 174//184
f 278//354 181//229 10//338
f 364//366 358//132 202//220
f 230//22 295//24 70//259
f 158//63 361//390 34//204
f 247//346 234//108 164//370
f 115//288 102//343 244//257
f 292//167 163//68 108//111
f 293//102 162//388 272//103
f 250//3 276//356 48//344
f 298//228 235//82 248//84
f 257//28 163//68 303//67
f 332//256 323//273 17//237
f 300//123 97//83 235//82
f 199//230 108//111 203//110
f 218//316 249//342 238//5
f 217//203 23//43 279//45
f 217//203 291//351 285//350
f 121//310 264//37 118//79
f 322//280 356//337 38//272
f 136//307 230//22 212//218
f 188//348 18//341 13//205
f 49//183 326//357 215//197
f 338//375 42//154 99//188
f 19//223 373//225 341//71
f 283//227 235//82 298//228
f 315//181 142//380 308//202
f 58//30 378//105 261//112
f 68//379 286//383 206//364
f 113//362 258//289 127//302
f 217//203 285//350 23//43
f 145//96 65//196 66//76
f 274//241 218//316 92//44
f 164//370 183//248 208//9
f 232//282 157//335 356//337
f 80//10 124//265 16//232
f 13//205 269//74 340//287
f 219//143 67//359 71//144
f 94//160 336//198 136//307
f 145//96 15//98 187//176
f 47//363 134//150 124//265
f 342//298 188//348 100//299
f 131//330 271//334 243//319
f 309//35 209//58 165//49
f 83//353 87//382 9//221
f 78//120 297//190 93//118
f 174//184 57//121 235//82
f 215//197 56//94 336//198
f 329//347 73//271 282//373
f 325//309 4//11 16//232
f 322//280 38//272 329//347
f 205//276 294//157 320//162
f 151//206 304//305 305//166
f 131//330 301//209 271//334
f 176//372 325//309 201//266
f 358//132 98//134 202//220
f 307//168 107//235 221//212
f 99//188 367//156 24//189
f 96//332 8//262 296//25
f 307//168 185//61 114//236
f 319//318 121//310 122//268
f 27//99 278//354 111//100
f 29//64 370//261 69//139
f 159//8 312//369 208//9
f 194//66 223//365 254//279
f 90//2 60//145 146//303
f 193//267 253//269 18//341
f 283//227 31//147 228//149
f 206//364 93//118 68//379
f 60//145 355//255 177//385
f 325//309 282//373 4//11
f 132//243 67//359 219//143
f 210//142 71//144 334//214
f 226//368 338//375 149//159
f 336//198 56//94 136//307
f 176//372 201//266 134//150
f 295//24 116//263 260//194
f 197//317 264//37 121//310
f 241//69 246//384 242//326
f 311//119 289//213 10//338
f 9//221 193//267 18//341
f 83//353 9//221 359//207
f 285//350 84//240 23//43
f 33//65 155//114 13//205
f 173//185 285//350 35//186
f 256//47 371//46 40//323
f 234//108 183//248 164//370
f 60//145 256//47 146//303
f 303//67 194//66 254//279
f 386//304 40//323 83//353
f 18//341 361//390 158//63
f 330//174 43//208 120//175
f 165//49 200//284 368//389
f 215//197 51//352 262//85
f 361//390 252//374 34//204
f 286//383 68//379 337//377
f 299//324 74//252 72//151
f 250//3 214//182 276//356
f 144//116 352//115 164//370
f 156//219 342//298 376//300
f 3//199 317//148 31//147
f 293//102 347//125 162//388
f 191//60 137//286 115//288
f 214//182 174//184 276//356
f 382//239 157//335 232//282
f 299//324 24//189 367//156
f 225//250 275//50 287//258
f 66//76 128//77 103//97
f 123//18 251//17 302//200
f 86//158 368//389 96//332
f 248//84 273//308 298//228
f 97//83 150//195 248//84
f 13//205 155//114 269//74
f 222//16 266//371 89//201
f 241//69 341//71 246//384
f 36//292 175//216 129//137
f 38//272 352//115 350//117
f 372//107 290//109 177//385
f 18//341 252//374 361//390
f 240//306 316//245 198//294
f 167//152 72//151 28//360
f 120//175 259//358 387//52
usemtl initialShadingGroup
f 390//391 391//391 392//391
f 392//392 393//393 394//394
f 395//395 396//396 397//397
f 396//396 395//395 398//398
f 397//397 396//396 398//398
f 399//399 400//399 401//399
f 393//400 391//400 402//400
f 400//401 403//401 394//401
f 403//402 399//403 400//404
f 391//405 390//405 404//405
f 448//406 793//407 604//408
f 660//409 521//410 683//411
f 417//412 677//413 501//414
f 518//415 625//416 699//417
f 622//418 780//419 720//420
f 561//421 554//422 571//423
f 419//424 460//425 633//426
f 602//427 420//428 482//429
f 478//430 569//431 733//432
f 717//433 502//434 743//435
f 616//436 601//437 411//438
f 564//439 639//440 423//441
f 499//442 689//443 636//444
f 400//445 403//446 480//447
f 400//445 480//447 401//448
f 442//449 443//449 444//449
f 442//450 444//451 445//452
f 393//393 403//453 394//394
f 392//454 394//455 391//456
f 391//457 402//458 647//459
f 390//460 446//460 404//460
f 443//461 442//461 393//461
f 443//462 393//463 445//464
f 436//465 618//466 683//411
f 786//467 610//468 648//469
f 451//470 499//442 580//471
f 640//472 562//473 417//412
f 757//474 676//475 573//476
f 620//477 469//478 617//479
f 430//480 656//481 747//482
f 459//483 590//484 608//485
f 512//486 632//487 595//488
f 615//489 501//414 585//490
f 565//491 666//492 772//493
f 407//494 724//495 555//496
f 757//474 649//497 654//498
f 632//487 596//499 657//500
f 420//428 602//427 748//501
f 434//502 487//503 763//504
f 623//505 611//506 688//507
f 446//508 439//509 578//510
f 578//510 391//511 404//512
f 524//513 606//514 674//515
f 770//516 565//491 772//493
f 431//517 723//518 560//519
f 515//520 756//521 485//522
f 493//523 535//524 608//485
f 787//525 607//526 572//527
f 511//528 786//467 742//529
f 673//530 761//531 684//532
f 654//498 668//533 757//474
f 775//534 619//535 649//497
f 791//536 681//537 614//538
f 522//539 688//507 611//506
f 678//540 776//541 694//542
f 558//543 584//544 457//545
f 699//417 629//546 561//421
f 488//547 786//467 511//528
f 678//540 397//397 398//398
f 678//540 398//398 505//548
f 779//549 612//550 538//551
f 657//500 795//552 489//553
f 641//554 408//555 738//556
f 702//557 754//558 411//438
f 423//441 406//559 777//560
f 421//561 483//562 733//432
f 597//563 635//564 731//565
f 494//566 407//494 475//567
f 395//395 397//397 523//568
f 661//569 523//568 528//570
f 481//571 448//406 516//572
f 694//542 497//573 520//574
f 411//438 460//425 419//424
f 615//489 533//575 527//576
f 655//577 778//578 653//579
f 739//580 574//581 552//582
f 398//398 395//395 549//583
f 398//398 549//583 505//548
f 776//541 788//584 453//585
f 693//586 478//430 697//587
f 783//588 552//582 574//581
f 424//589 698//590 546//591
f 662//592 749//593 737//594
f 567//595 623//505 688//507
f 437//596 491//597 569//431
f 688//507 777//560 406//559
f 667//598 458//599 710//600
f 476//601 641//554 740//602
f 725//603 706//604 449//605
f 542//606 745//607 676//475
f 737//594 695//608 455//609
f 717//433 646//610 793//407
f 545//611 422//612 427//613
f 675//614 774//615 627//616
f 470//617 515//520 589//618
f 570//619 470//617 500//620
f 507//621 503//622 566//623
f 498//624 754//558 702//557
f 588//625 638//626 498//624
f 559//627 638//626 588//625
f 520//574 523//568 397//397
f 783//588 574//581 660//409
f 449//605 687//628 410//629
f 480//447 507//621 647//459
f 788//584 678//540 539//630
f 597//563 731//565 506//631
f 537//632 518//415 785//633
f 662//592 737//594 741//634
f 620//477 617//479 556//635
f 670//636 585//490 718//637
f 582//638 743//435 522//539
f 623//505 576//639 611//506
f 766//640 727//641 739//580
f 614//538 657//500 627//616
f 752//642 413//643 728//644
f 414//645 685//646 517//647
f 713//648 792//649 523//568
f 614//538 681//537 795//552
f 768//650 432//651 711//652
f 716//653 712//654 758//655
f 587//656 537//632 745//607
f 585//490 501//414 526//657
f 424//589 546//591 782//658
f 405//659 484//660 768//650
f 699//417 705//661 679//662
f 620//477 553//663 469//478
f 507//621 439//509 647//459
f 709//664 781//665 416//666
f 574//581 692//667 660//409
f 479//668 505//548 549//583
f 563//669 771//670 738//556
f 769//671 506//631 668//533
f 526//657 732//672 750//673
f 602//427 789//674 767//675
f 657//500 433//676 632//487
f 519//677 499//442 636//444
f 682//678 607//526 653//579
f 762//679 466//680 663//681
f 765//682 541//683 511//528
f 622//418 430//480 434//502
f 433//676 489//553 533//575
f 750//673 725//603 449//605
f 750//673 732//672 725//603
f 623//505 624//684 576//639
f 510//685 603//686 468//687
f 590//484 459//483 786//467
f 784//688 603//686 510//685
f 558//543 524//513 553//663
f 661//569 600//689 715//690
f 468//687 592//691 612//550
f 467//692 572//527 607//526
f 555//496 701//693 625//416
f 561//421 612//550 779//549
f 758//655 673//530 684//532
f 703//694 668//533 654//498
f 635//564 542//606 676//475
f 527//576 708//695 577//696
f 437//596 654//498 649//497
f 428//697 552//582 458//599
f 753//698 495//699 583//700
f 762//679 663//681 656//481
f 563//669 663//681 466//680
f 464//701 511//528 689//443
f 679//662 705//661 496//702
f 464//701 689//443 499//442
f 456//703 527//576 577//696
f 538//551 591//704 496//702
f 640//472 577//696 409//705
f 502//434 708//695 777//560
f 769//671 703//694 545//611
f 779//549 496//702 705//661
f 738//556 663//681 563//669
f 700//706 569//431 478//430
f 728//644 483//562 664//707
f 538//551 592//691 426//708
f 652//709 496//702 591//704
f 603//686 624//684 468//687
f 464//701 608//485 590//484
f 776//541 678//540 788//584
f 553//663 764//710 469//478
f 606//514 509//711 674//515
f 602//427 548//712 637//713
f 702//557 588//625 498//624
f 695//608 436//465 683//411
f 555//496 724//495 701//693
f 617//479 517//647 556//635
f 540//714 511//528 541//683
f 713//648 523//568 462//715
f 437//596 422//612 703//694
f 686//716 455//609 683//411
f 526//657 677//413 732//672
f 766//640 512//486 595//488
f 482//429 789//674 602//427
f 575//717 508//718 671//719
f 438//720 625//416 621//721
f 606//514 780//419 581//722
f 690//723 679//662 486//724
f 789//674 425//725 583//700
f 613//726 619//535 486//724
f 634//727 492//728 752//642
f 722//729 450//730 656//481
f 412//731 692//667 727//641
f 569//431 491//597 733//432
f 702//557 411//438 601//437
f 711//652 546//591 698//590
f 504//732 778//578 765//682
f 514//733 704//734 475//567
f 697//587 477//735 716//653
f 618//466 710//600 783//588
f 513//736 624//684 418//737
f 472//738 592//691 468//687
f 508//718 435//739 686//716
f 464//701 590//484 488//547
f 480//447 558//543 553//663
f 622//418 581//722 780//419
f 476//601 740//602 484//660
f 713//648 746//740 792//649
f 470//617 666//492 500//620
f 635//564 479//668 542//606
f 593//741 669//742 784//688
f 606//514 581//722 749//593
f 641//554 681//537 408//555
f 663//681 738//556 471//743
f 583//700 680//744 767//675
f 751//745 650//746 790//747
f 733//432 491//597 568//748
f 637//713 579//749 684//532
f 723//518 638//626 559//627
f 776//541 536//750 694//542
f 653//579 778//578 504//732
f 684//532 759//751 637//713
f 495//699 753//698 536//750
f 777//560 708//695 423//441
f 677//413 598//752 732//672
f 524//513 780//419 606//514
f 635//564 714//753 479//668
f 748//501 759//751 761//531
f 679//662 496//702 486//724
f 509//711 764//710 674//515
f 540//714 541//683 748//501
f 453//585 539//630 680//744
f 577//696 640//472 456//703
f 570//619 756//521 515//520
f 687//628 659//754 460//425
f 466//680 432//651 563//669
f 676//475 745//607 573//476
f 536//750 776//541 495//699
f 530//755 686//716 658//756
f 512//486 766//640 544//757
f 683//411 618//466 660//409
f 466//680 711//652 432//651
f 737//594 749//593 436//465
f 543//758 493//523 645//759
f 746//740 475//567 643//760
f 531//761 728//644 664//707
f 758//655 712//654 633//426
f 780//419 524//513 720//420
f 429//762 582//638 605//763
f 721//764 644//765 467//692
f 684//532 579//749 730//766
f 687//628 460//425 410//629
f 528//570 792//649 643//760
f 781//665 604//408 793//407
f 573//476 775//534 757//474
f 487//503 471//743 408//555
f 471//743 738//556 408//555
f 755//767 463//768 657//500
f 562//473 677//413 417//412
f 680//744 548//712 767//675
f 508//718 741//634 435//739
f 784//688 729//769 593//741
f 454//770 431//517 560//519
f 456//703 501//414 615//489
f 568//748 550//771 578//510
f 437//596 649//497 696//772
f 556//635 517//647 685//646
f 782//658 546//591 450//730
f 791//536 487//503 408//555
f 566//623 503//622 794//773
f 617//479 671//719 517//647
f 691//774 672//775 516//572
f 595//488 433//676 585//490
f 599//776 708//695 502//434
f 624//684 513//736 472//738
f 429//762 535//524 416//666
f 519//677 636//444 761//531
f 783//588 458//599 552//582
f 696//772 619//535 613//726
f 730//766 716//653 758//655
f 587//656 745//607 474//777
f 413//643 601//437 616//436
f 778//578 482//429 765//682
f 547//778 719//779 707//780
f 786//467 648//469 742//529
f 767//675 548//712 602//427
f 594//781 729//769 547//778
f 559//627 560//519 723//518
f 627//616 760//782 614//538
f 445//783 447//784 403//785
f 445//783 403//785 647//459
f 401//786 403//786 400//786
f 404//787 391//457 647//459
f 445//464 444//788 443//462
f 445//789 394//790 444//791
f 518//415 699//417 679//662
f 733//432 483//562 697//587
f 404//787 439//509 446//508
f 738//556 771//670 641//554
f 480//447 447//792 444//793
f 492//728 560//519 413//643
f 424//589 782//658 406//559
f 515//520 485//522 465//794
f 626//795 666//492 470//617
f 580//471 586//796 659//754
f 479//668 549//583 474//777
f 673//530 633//426 586//796
f 639//440 424//589 406//559
f 498//624 718//637 750//673
f 769//671 545//611 579//749
f 406//559 423//441 639//440
f 575//717 764//710 509//711
f 638//626 670//636 718//637
f 787//525 572//527 704//734
f 703//694 769//671 668//533
f 776//541 453//585 495//699
f 445//797 393//797 402//797
f 445//798 402//799 391//456
f 393//393 443//800 444//801
f 393//393 444//801 403//453
f 624//684 603//686 576//639
f 718//637 498//624 638//626
f 448//406 481//571 717//433
f 791//536 774//615 487//503
f 618//466 783//588 660//409
f 779//549 538//551 496//702
f 457//545 652//709 736//802
f 395//395 523//568 661//569
f 656//481 546//591 762//679
f 669//742 582//638 611//506
f 715//690 555//496 438//720
f 630//803 704//734 514//733
f 584//544 613//726 486//724
f 728//644 413//643 616//436
f 677//413 562//473 598//752
f 418//737 551//804 513//736
f 547//778 554//422 719//779
f 457//545 736//802 558//543
f 515//520 465//794 659//754
f 509//711 508//718 575//717
f 754//558 750//673 449//605
f 756//521 709//664 543//758
f 430//480 722//729 656//481
f 720//420 524//513 736//802
f 757//474 668//533 609//805
f 775//534 573//476 745//607
f 480//447 391//511 578//510
f 492//728 413//643 752//642
f 547//778 729//769 554//422
f 661//569 621//721 587//656
f 467//692 494//566 572//527
f 559//627 588//625 413//643
f 454//770 683//411 521//410
f 521//410 692//667 412//731
f 692//667 521//410 660//409
f 480//447 503//622 507//621
f 556//635 503//622 480//447
f 562//473 640//472 770//516
f 473//806 740//602 771//670
f 700//706 478//430 693//586
f 629//546 554//422 561//421
f 713//648 790//747 630//803
f 411//438 410//629 460//425
f 429//762 646//610 582//638
f 626//795 470//617 589//618
f 474//777 542//606 479//668
f 601//437 588//625 702//557
f 480//447 550//771 558//543
f 582//638 669//742 605//763
f 560//519 559//627 413//643
f 642//807 670//636 638//626
f 539//630 453//585 788//584
f 419//424 633//426 712//654
f 545//611 703//694 422//612
f 563//669 432//651 473//806
f 562//473 770//516 744//808
f 450//730 546//591 656//481
f 557//809 490//810 787//525
f 537//632 785//633 775//534
f 574//581 739//580 727//641
f 607//526 682//678 532//811
f 609//805 635//564 676//475
f 628//812 532//811 415//813
f 553//663 524//513 764//710
f 733//432 568//748 631//814
f 434//502 763//504 440//815
f 412//731 642//807 638//626
f 742//529 648//469 765//682
f 500//620 604//408 781//665
f 473//806 432//651 484//660
f 489//553 405//659 527//576
f 770//516 772//493 744//808
f 650//746 557//809 790//747
f 620//477 556//635 480//447
f 498//624 750//673 754//558
f 726//816 650//746 497//573
f 749//593 662//592 606//514
f 787//525 704//734 630//803
f 794//773 441//817 531//761
f 698//590 424//589 639//440
f 629//546 699//417 701//693
f 631//814 566//623 452//818
f 659//754 586//796 633//426
f 585//490 670//636 595//488
f 676//475 757//474 609//805
f 726//816 425//725 650//746
f 691//774 565//491 672//775
f 785//633 619//535 775//534
f 665//819 605//763 669//742
f 599//776 481//571 577//696
f 716//653 477//735 616//436
f 403//446 447//792 480//447
f 571//423 612//550 561//421
f 529//820 492//728 634//727
f 781//665 793//407 416//666
f 772//493 666//492 626//795
f 756//521 651//821 709//664
f 416//666 543//758 709//664
f 657//500 544//757 755//767
f 468//687 612//550 510//685
f 517//647 530//755 414//645
f 537//632 775//534 745//607
f 786//467 594//781 610//468
f 595//488 670//636 642//807
f 728//644 616//436 477//735
f 614//538 795//552 657//500
f 585//490 433//676 615//489
f 625//416 438//720 555//496
f 442//822 393//822 391//822
f 442//823 391//511 480//447
f 442//824 480//447 443//825
f 513//736 551//804 472//738
f 520//574 397//397 678//540
f 411//438 754//558 410//629
f 658//756 454//770 492//728
f 512//486 544//757 596//499
f 734//826 786//467 459//483
f 404//512 446//508 578//510
f 790//747 787//525 630//803
f 556//635 685//646 503//622
f 592//691 551//804 426//708
f 471//743 525//827 747//482
f 667//598 618//466 436//465
f 393//828 442//829 445//830
f 393//831 445//783 647//459
f 393//831 647//459 402//458
f 403//453 444//801 447//832
f 706//604 515//520 659//754
f 472//738 551//804 592//691
f 591//704 426//708 622//418
f 423//441 708//695 527//576
f 697//587 478//430 733//432
f 567//595 688//507 406//559
f 656//481 663//681 747//482
f 418//737 450//730 722//729
f 533//575 615//489 433//676
f 449//605 410//629 754//558
f 409//705 770//516 640//472
f 661//569 715//690 621//721
f 568//748 439//509 631//814
f 758//655 633//426 673//530
f 519//677 580//471 499//442
f 405//659 489//553 484//660
f 568//748 578//510 439//509
f 606//514 662//592 509//711
f 557//809 650//746 653//579
f 734//826 593//741 594//781
f 724//495 407//494 644//765
f 750//673 718//637 526//657
f 437//596 700//706 422//612
f 516//572 448//406 604//408
f 753//698 735//833 726//816
f 714//753 635//564 597//563
f 689//443 511//528 636//444
f 600//689 661//569 528//570
f 699//417 561//421 705//661
f 418//737 624//684 567//595
f 547//778 648//469 610//468
f 429//762 605//763 535//524
f 741//634 737//594 455//609
f 519//677 673//530 586//796
f 462//715 751//745 790//747
f 749//593 461//834 667//598
f 643//760 407//494 555//496
f 718//637 585//490 526//657
f 692//667 574//581 727//641
f 466//680 762//679 711//652
f 536//750 726//816 694//542
f 675//614 667//598 461//834
f 567//595 406//559 782//658
f 643//760 555//496 715//690
f 627//616 657//500 463//768
f 434//502 471//743 487//503
f 521//410 412//731 431//517
f 613//726 558//543 550//771
f 746//740 643//760 792//649
f 653//579 504//732 682//678
f 686//716 683//411 454//770
f 579//749 637//713 548//712
f 405//659 768//650 564//439
f 459//483 608//485 535//524
f 441//817 634//727 531//761
f 784//688 510//685 729//769
f 476//601 795//552 681//537
f 567//595 624//684 623//505
f 706//604 589//618 515//520
f 741//634 455//609 435//739
f 641//554 476//601 681//537
f 454//770 521//410 431//517
f 768//650 639//440 564//439
f 698//590 639//440 768//650
f 554//422 629//546 719//779
f 580//471 465//794 451//470
f 430//480 525//827 434//502
f 395//395 661//569 549//583
f 667//598 428//697 458//599
f 714//753 597//563 539//630
f 655//577 789//674 482//429
f 502//434 717//433 481//571
f 423//441 527//576 564//439
f 563//669 473//806 771//670
f 730//766 693//586 716//653
f 586//796 580//471 519//677
f 495//699 680//744 583//700
f 603//686 784//688 669//742
f 617//479 773//835 671//719
f 694//542 726//816 497//573
f 713//648 630//803 746//740
f 433//676 657//500 489//553
f 640//472 417//412 456//703
f 744//808 626//795 732//672
f 591//704 622//418 720//420
f 440//815 763//504 534//836
f 481//571 516//572 577//696
f 652//709 457//545 584//544
f 449//605 706//604 687//628
f 733//432 631//814 452//818
f 628//812 415//813 648//469
f 493//523 416//666 535//524
f 743//435 688//507 522//539
f 673//530 519//677 761//531
f 714//753 678//540 505//548
f 755//767 552//582 428//697
f 496//702 652//709 584//544
f 484//660 432//651 768//650
f 467//692 607//526 721//764
f 425//725 735//833 753//698
f 732//672 598//752 744//808
f 611//506 582//638 522//539
f 765//682 482//429 420//428
f 486//724 619//535 690//723
f 707//780 644//765 721//764
f 503//622 685//646 441//817
f 480//447 578//510 550//771
f 707//780 719//779 644//765
f 425//725 789//674 655//577
f 414//645 492//728 529//820
f 696//772 491//597 437//596
f 412//731 638//626 723//518
f 415//813 504//732 765//682
f 514//733 475//567 746//740
f 570//619 500//620 781//665
f 778//578 655//577 482//429
f 584//544 558//543 613//726
f 439//509 507//621 566//623
f 615//489 527//576 456//703
f 621//721 625//416 518//415
f 731//565 609//805 506//631
f 785//633 518//415 679//662
f 540//714 748//501 761//531
f 437//596 703//694 654//498
f 458//599 783//588 710//600
f 544//757 739//580 552//582
f 675//614 461//834 534//836
f 600//689 643//760 715//690
f 662//592 741//634 509//711
f 752//642 531//761 634//727
f 735//833 425//725 726//816
f 599//776 502//434 481//571
f 548//712 769//671 579//749
f 414//645 658//756 492//728
f 757//474 775//534 649//497
f 438//720 621//721 715//690
f 749//593 667//598 436//465
f 677//413 526//657 501//414
f 591//704 736//802 652//709
f 786//467 488//547 590//484
f 604//408 691//774 516//572
f 765//682 648//469 415//813
f 685//646 634//727 441//817
f 544//757 552//582 755//767
f 764//710 773//835 469//478
f 647//459 439//509 404//787
f 700//706 437//596 569//431
f 665//819 593//741 734//826
f 548//712 680//744 506//631
f 419//424 712//654 716//653
f 517//647 671//719 530//755
f 616//436 411//438 419//424
f 534//836 461//834 749//593
f 628//812 707//780 721//764
f 539//630 678//540 714//753
f 572//527 475//567 704//734
f 508//718 686//716 530//755
f 727//641 766//640 642//807
f 665//819 734//826 459//483
f 455//609 695//608 683//411
f 491//597 696//772 568//748
f 696//772 550//771 568//748
f 736//802 591//704 720//420
f 608//485 464//701 451//470
f 667//598 675//614 428//697
f 631//814 439//509 566//623
f 500//620 666//492 691//774
f 452//818 421//561 733//432
f 524//513 558//543 736//802
f 722//729 430//480 426//708
f 485//522 756//521 543//758
f 421//561 452//818 794//773
f 534//836 581//722 440//815
f 724//495 719//779 701//693
f 587//656 518//415 537//632
f 576//639 669//742 611//506
f 515//520 470//617 570//619
f 762//679 546//591 711//652
f 599//776 577//696 708//695
f 531//761 752//642 728//644
f 463//768 675//614 627//616
f 671//719 508//718 530//755
f 512//486 596//499 632//487
f 693//586 697//587 716//653
f 414//645 530//755 658//756
f 488//547 511//528 464//701
f 663//681 471//743 747//482
f 685//646 529//820 634//727
f 567//595 782//658 418//737
f 421//561 664//707 483//562
f 467//692 644//765 494//566
f 790//747 713//648 462//715
f 636//444 540//714 761//531
f 509//711 741//634 508//718
f 539//630 597//563 680//744
f 751//745 520//574 497//573
f 520//574 462//715 523//568
f 422//612 700//706 427//613
f 732//672 626//795 725//603
f 591//704 538//551 426//708
f 545//611 427//613 579//749
f 463//768 428//697 675//614
f 645//759 493//523 608//485
f 678//540 694//542 520//574
f 730//766 427//613 693//586
f 787//525 490//810 607//526
f 645//759 608//485 451//470
f 696//772 613//726 550//771
f 667//598 710//600 618//466
f 484//660 489//553 795//552
f 572//527 494//566 475//567
f 681//537 791//536 408//555
f 474//777 661//569 587//656
f 668//533 506//631 609//805
f 697//587 483//562 477//735
f 653//579 650//746 655//577
f 528//570 643//760 600//689
f 794//773 452//818 566//623
f 722//729 551//804 418//737
f 493//523 543//758 416//666
f 777//560 688//507 743//435
f 583//700 767//675 789//674
f 771//670 740//602 641//554
f 553//663 620//477 480//447
f 684//532 730//766 758//655
f 595//488 632//487 433//676
f 570//619 781//665 709//664
f 699//417 625//416 701//693
f 516//572 672//775 577//696
f 570//619 709//664 651//821
f 413//643 588//625 601//437
f 642//807 766//640 595//488
f 725//603 589//618 706//604
f 621//721 518//415 587//656
f 535//524 665//819 459//483
f 626//795 744//808 772//493
f 575//717 671//719 773//835
f 510//685 612//550 571//423
f 686//716 454//770 658//756
f 774//615 791//536 760//782
f 727//641 642//807 412//731
f 793//407 429//762 416//666
f 520//574 751//745 462//715
f 764//710 575//717 773//835
f 653//579 490//810 557//809
f 476//601 484//660 795//552
f 626//795 589//618 725//603
f 682//678 415//813 532//811
f 581//722 622//418 440//815
f 487//503 774//615 763//504
f 734//826 594//781 786//467
f 785//633 690//723 619//535
f 527//576 405//659 564//439
f 594//781 547//778 610//468
f 659//754 465//794 580//471
f 664//707 794//773 531//761
f 577//696 672//775 409//705
f 456//703 417//412 501//414
f 791//536 614//538 760//782
f 431//517 412//731 723//518
f 451//470 464//701 499//442
f 648//469 547//778 628//812
f 427//613 700//706 693//586
f 430//480 622//418 426//708
f 473//806 484//660 740//602
f 535//524 605//763 665//819
f 644//765 719//779 724//495
f 571//423 729//769 510//685
f 745//607 542//606 474//777
f 721//764 607//526 532//811
f 477//735 483//562 728//644
f 598//752 562//473 744//808
f 716//653 616//436 419//424
f 685//646 414//645 529//820
f 565//491 770//516 409//705
f 766//640 739//580 544//757
f 448//406 717//433 793//407
f 596//499 544//757 657//500
f 415//813 682//678 504//732
f 782//658 450//730 418//737
f 790//747 557//809 787//525
f 472//738 468//687 624//684
f 609//805 731//565 635//564
f 636//444 511//528 540//714
f 506//631 769//671 548//712
f 430//480 747//482 525//827
f 669//742 576//639 603//686
f 726//816 536//750 753//698
f 570//619 651//821 756//521
f 428//697 463//768 755//767
f 746//740 630//803 514//733
f 480//447 647//459 401//448
f 737//594 436//465 695//608
f 583//700 425//725 753//698
f 714//753 505//548 479//668
f 549//583 661//569 474//777
f 444//793 443//825 480//447
f 391//837 393//393 392//392
f 533//575 489//553 527//576
f 672//775 565//491 409//705
f 465//794 485//522 451//470
f 582//638 646//610 743//435
f 763//504 675//614 534//836
f 679//662 690//723 785//633
f 701//693 719//779 629//546
f 494//566 644//765 407//494
f 793//407 646//610 429//762
f 664//707 421//561 794//773
f 492//728 454//770 560//519
f 435//739 455//609 686//716
f 763//504 774//615 675//614
f 684//532 761//531 759//751
f 511//528 742//529 765//682
f 500//620 691//774 604//408
f 444//838 447//838 445//838
f 399//403 403//402 401//839
f 402//840 393//840 442//840
f 523//568 792//649 528//570
f 407//494 643//760 475//567
f 650//746 751//745 497//573
f 391//456 394//455 445//798
f 394//790 403//841 447//842
f 394//790 447//842 444//791
f 705//661 561//421 779//549
f 502//434 777//560 743//435
f 628//812 721//764 532//811
f 594//781 593//741 729//769
f 543//758 645//759 485//522
f 496//702 584//544 486//724
f 619//535 696//772 649//497
f 711//652 698//590 768//650
f 541//683 420//428 748//501
f 427//613 730//766 579//749
f 665//819 669//742 593//741
f 680//744 597//563 506//631
f 674//515 764//710 524//513
f 680//744 495//699 453//585
f 633//426 460//425 659//754
f 717//433 743//435 646//610
f 538//551 612//550 592//691
f 551//804 722//729 426//708
f 547//778 707//780 628//812
f 622//418 434//502 440//815
f 581//722 534//836 749//593
f 607//526 490//810 653//579
f 434//502 525//827 471//743
f 602//427 637//713 748//501
f 469//478 773//835 617//479
f 627//616 774//615 760//782
f 765//682 420//428 541//683
f 565//491 691//774 666//492
f 748//501 637//713 759//751
f 650//746 425//725 655//577
f 451//470 485//522 645//759
f 503//622 441//817 794//773
f 571//423 554//422 729//769
f 687//628 706//604 659//754
f 647//459 403//785 400//843
f 647//459 400//843 399//844
f 647//459 399//844 401//448
