# Blender 5.2.2 LTS
# www.blender.org
mtllib bone.mtl
o Bone
v -0.196278 0.067643 -0.635990
v -0.117648 0.067643 -0.605435
v -0.117648 -0.067643 -0.605435
v -0.000488 -0.135286 -0.477682
v 0.116674 -0.067643 -0.605435
v 0.116674 0.067643 0.605435
v -0.000488 -0.135286 0.477681
v -0.000488 -0.135286 -0.000002
v 0.116674 0.067643 -0.605435
v 0.116674 -0.067643 -0.605435
v 0.201215 -0.067643 -0.629637
v 0.201215 0.067643 -0.629637
v -0.046549 -0.067643 -0.737652
v -0.046549 0.067643 -0.737652
v 0.116674 -0.067643 -0.000002
v -0.000488 -0.135286 0.477681
v -0.117648 -0.067643 0.605435
v -0.117648 -0.067643 -0.000002
v -0.000488 0.135286 -0.000002
v 0.116674 0.067643 0.605435
v -0.000488 0.135286 0.477681
v -0.000488 0.135286 -0.000002
v -0.117649 0.067643 -0.000002
v -0.000488 0.135286 0.477681
v 0.116674 -0.067643 -0.000002
v 0.116673 0.067643 -0.000002
v -0.000488 0.135286 -0.000002
v -0.117649 0.067643 -0.000002
v -0.117648 -0.067643 -0.000002
v -0.000488 -0.135286 -0.000002
v -0.000488 -0.135286 -0.477682
v -0.117648 -0.067643 -0.605435
v -0.117648 -0.067643 -0.000002
v -0.000488 -0.135286 -0.000002
v -0.117648 -0.067643 -0.605435
v -0.117648 0.067643 -0.605435
v 0.370692 0.084854 0.818433
v 0.188683 0.084854 0.954132
v 0.188683 -0.084853 0.954132
v -0.117648 -0.067643 0.605435
v -0.117648 0.067643 0.605435
v -0.117649 0.067643 -0.000002
v 0.116674 -0.067643 -0.000002
v -0.000488 -0.135286 -0.000002
v -0.000488 -0.135286 -0.477682
v 0.116674 -0.067643 -0.605435
v 0.116673 0.067643 -0.000002
v 0.116674 -0.067643 -0.000002
v 0.116674 -0.067643 -0.605435
v 0.116674 0.067643 -0.605435
v -0.000488 0.135286 -0.000002
v 0.116673 0.067643 -0.000002
v 0.116674 0.067643 -0.605435
v -0.000488 0.135286 -0.477682
v -0.117649 0.067643 -0.000002
v -0.000488 0.135286 -0.000002
v -0.000488 0.135286 -0.477682
v -0.117648 0.067643 -0.605435
v -0.117648 -0.067643 -0.000002
v -0.117649 0.067643 -0.000002
v 0.188683 -0.084853 -0.954133
v 0.188683 0.084854 -0.954133
v 0.370692 0.084854 -0.818433
v 0.370693 -0.084853 -0.818433
v -0.117648 -0.067643 -0.000002
v 0.116674 0.067643 -0.605435
v 0.116674 -0.067643 -0.605435
v 0.201215 -0.067643 -0.629637
v -0.176805 0.087592 -0.977002
v -0.176805 -0.087593 -0.977002
v -0.370692 -0.087593 -0.845357
v -0.370692 0.087592 -0.845357
v 0.116673 0.067643 -0.000002
v 0.116674 0.067643 0.605435
v 0.056122 -0.067643 -0.737813
v 0.116673 0.067643 -0.000002
v 0.116674 -0.067643 -0.000002
v 0.116674 -0.067643 0.605435
v 0.056122 -0.067643 -0.737813
v 0.056122 0.067643 -0.737813
v -0.117648 -0.067643 -0.605435
v -0.196278 -0.067643 -0.635990
v -0.046549 -0.067643 -0.737652
v -0.117648 0.067643 0.605435
v 0.116674 -0.067643 0.605435
v -0.000488 0.135286 -0.000002
v 0.201215 0.067643 -0.629637
v 0.116674 0.067643 -0.605435
v -0.117649 0.067643 -0.000002
v -0.117648 0.067643 -0.605435
v -0.046549 0.067643 -0.737652
v 0.056122 0.067643 -0.737813
v -0.176805 -0.087593 0.977002
v -0.176805 0.087592 0.977002
v -0.000488 0.135286 0.477681
v -0.117648 0.067643 0.605435
v -0.196278 -0.067643 -0.635990
v -0.196278 0.067643 -0.635990
v -0.117648 0.067643 -0.605435
v -0.117648 -0.067643 -0.605435
v 0.116673 0.067643 -0.000002
v 0.116674 -0.067643 -0.000002
v -0.370692 0.087592 0.845356
v -0.370692 -0.087593 0.845356
v -0.000488 0.135286 -0.477682
v -0.117648 -0.067643 -0.000002
v -0.000488 -0.135286 -0.000002
v -0.000488 -0.135286 -0.000002
v -0.044711 -0.109944 -0.835683
v -0.044712 0.109943 -0.835683
v -0.046549 0.067643 -0.737652
v -0.046549 -0.067643 -0.737652
v -0.288073 -0.109944 -0.670446
v -0.044711 -0.109944 -0.835683
v -0.046549 -0.067643 -0.737652
v -0.196278 -0.067643 -0.635990
v -0.288073 0.109943 -0.670446
v -0.288073 -0.109944 -0.670446
v -0.196278 -0.067643 -0.635990
v -0.196278 0.067643 -0.635990
v -0.044712 0.109943 -0.835683
v -0.288073 0.109943 -0.670446
v -0.196278 0.067643 -0.635990
v -0.046549 0.067643 -0.737652
v 0.059067 0.106506 -0.828742
v 0.059067 -0.106505 -0.828742
v 0.056122 -0.067643 -0.737813
v 0.056122 0.067643 -0.737813
v 0.287520 0.106506 -0.658416
v 0.059067 0.106506 -0.828742
v 0.056122 0.067643 -0.737813
v 0.201215 0.067643 -0.629637
v 0.287520 -0.106505 -0.658417
v 0.287520 0.106506 -0.658416
v 0.201215 0.067643 -0.629637
v 0.201215 -0.067643 -0.629637
v 0.059067 -0.106505 -0.828742
v 0.287520 -0.106505 -0.658417
v 0.201215 -0.067643 -0.629637
v 0.056122 -0.067643 -0.737813
v -0.123120 -0.109944 -0.951163
v -0.123120 0.109943 -0.951163
v -0.044712 0.109943 -0.835683
v -0.044711 -0.109944 -0.835683
v -0.366481 -0.109944 -0.785926
v -0.123120 -0.109944 -0.951163
v -0.044711 -0.109944 -0.835683
v -0.288073 -0.109944 -0.670446
v -0.366481 0.109943 -0.785927
v -0.366481 -0.109944 -0.785926
v -0.288073 -0.109944 -0.670446
v -0.288073 0.109943 -0.670446
v -0.044712 0.109943 -0.835683
v -0.288073 0.109943 -0.670446
v -0.366481 0.109943 -0.785927
v -0.123120 0.109943 -0.951163
v 0.059067 -0.106505 -0.828742
v 0.287520 -0.106505 -0.658417
v 0.365056 -0.106505 -0.762414
v 0.136604 -0.106505 -0.932739
v 0.287520 -0.106505 -0.658417
v 0.287520 0.106506 -0.658416
v 0.365056 0.106506 -0.762414
v 0.365056 -0.106505 -0.762414
v 0.287520 0.106506 -0.658416
v 0.059067 0.106506 -0.828742
v 0.136603 0.106506 -0.932739
v 0.365056 0.106506 -0.762414
v 0.059067 0.106506 -0.828742
v 0.059067 -0.106505 -0.828742
v 0.136604 -0.106505 -0.932739
v 0.136603 0.106506 -0.932739
v 0.136604 -0.106505 -0.932739
v 0.365056 -0.106505 -0.762414
v 0.370693 -0.084853 -0.818433
v 0.188683 -0.084853 -0.954133
v 0.365056 -0.106505 -0.762414
v 0.365056 0.106506 -0.762414
v 0.370692 0.084854 -0.818433
v 0.370693 -0.084853 -0.818433
v 0.365056 0.106506 -0.762414
v 0.136603 0.106506 -0.932739
v 0.188683 0.084854 -0.954133
v 0.370692 0.084854 -0.818433
v 0.136603 0.106506 -0.932739
v 0.136604 -0.106505 -0.932739
v 0.188683 -0.084853 -0.954133
v 0.188683 0.084854 -0.954133
v -0.123120 0.109943 -0.951163
v -0.366481 0.109943 -0.785927
v -0.370692 0.087592 -0.845357
v -0.176805 0.087592 -0.977002
v -0.366481 0.109943 -0.785927
v -0.366481 -0.109944 -0.785926
v -0.370692 -0.087593 -0.845357
v -0.370692 0.087592 -0.845357
v -0.366481 -0.109944 -0.785926
v -0.123120 -0.109944 -0.951163
v -0.176805 -0.087593 -0.977002
v -0.370692 -0.087593 -0.845357
v -0.123120 -0.109944 -0.951163
v -0.123120 0.109943 -0.951163
v -0.176805 0.087592 -0.977002
v -0.176805 -0.087593 -0.977002
v 0.370693 -0.084853 0.818433
v 0.056122 0.067643 0.737812
v 0.056122 -0.067643 0.737813
v -0.046549 -0.067643 0.737651
v -0.046549 0.067643 0.737651
v 0.116674 0.067643 0.605435
v 0.116674 -0.067643 0.605435
v 0.201215 -0.067643 0.629636
v 0.201215 0.067643 0.629636
v 0.116674 0.067643 0.605435
v 0.201215 0.067643 0.629636
v 0.056122 0.067643 0.737812
v -0.046549 0.067643 0.737651
v -0.196278 0.067643 0.635988
v -0.117648 0.067643 0.605435
v -0.117648 -0.067643 0.605435
v -0.196278 -0.067643 0.635988
v -0.046549 -0.067643 0.737651
v 0.056122 -0.067643 0.737813
v 0.201215 -0.067643 0.629636
v 0.116674 -0.067643 0.605435
v -0.117648 -0.067643 0.605435
v -0.117648 0.067643 0.605435
v -0.196278 0.067643 0.635988
v -0.196278 -0.067643 0.635988
v 0.116674 -0.067643 0.605435
v -0.000488 -0.135286 0.477681
v -0.117648 -0.067643 0.605435
v -0.044711 -0.109943 0.835683
v -0.044712 0.109943 0.835683
v -0.046549 0.067643 0.737651
v -0.046549 -0.067643 0.737651
v -0.288073 -0.109943 0.670446
v -0.044711 -0.109943 0.835683
v -0.046549 -0.067643 0.737651
v -0.196278 -0.067643 0.635988
v -0.288073 0.109943 0.670446
v -0.288073 -0.109943 0.670446
v -0.196278 -0.067643 0.635988
v -0.196278 0.067643 0.635988
v -0.044712 0.109943 0.835683
v -0.288073 0.109943 0.670446
v -0.196278 0.067643 0.635988
v -0.046549 0.067643 0.737651
v 0.059067 0.106506 0.828741
v 0.059067 -0.106505 0.828741
v 0.056122 -0.067643 0.737813
v 0.056122 0.067643 0.737812
v 0.287520 0.106506 0.658415
v 0.059067 0.106506 0.828741
v 0.056122 0.067643 0.737812
v 0.201215 0.067643 0.629636
v 0.287520 -0.106505 0.658416
v 0.287520 0.106506 0.658415
v 0.201215 0.067643 0.629636
v 0.201215 -0.067643 0.629636
v 0.059067 -0.106505 0.828741
v 0.287520 -0.106505 0.658416
v 0.201215 -0.067643 0.629636
v 0.056122 -0.067643 0.737813
v -0.123120 -0.109943 0.951162
v -0.123120 0.109943 0.951163
v -0.044712 0.109943 0.835683
v -0.044711 -0.109943 0.835683
v -0.366481 -0.109943 0.785926
v -0.123120 -0.109943 0.951162
v -0.044711 -0.109943 0.835683
v -0.288073 -0.109943 0.670446
v -0.366481 0.109943 0.785926
v -0.366481 -0.109943 0.785926
v -0.288073 -0.109943 0.670446
v -0.288073 0.109943 0.670446
v -0.123120 0.109943 0.951163
v -0.366481 0.109943 0.785926
v -0.288073 0.109943 0.670446
v -0.044712 0.109943 0.835683
v 0.136604 -0.106505 0.932739
v 0.365056 -0.106505 0.762414
v 0.287520 -0.106505 0.658416
v 0.059067 -0.106505 0.828741
v 0.365056 -0.106505 0.762414
v 0.365056 0.106506 0.762414
v 0.287520 0.106506 0.658415
v 0.287520 -0.106505 0.658416
v 0.365056 0.106506 0.762414
v 0.136603 0.106506 0.932739
v 0.059067 0.106506 0.828741
v 0.287520 0.106506 0.658415
v 0.136603 0.106506 0.932739
v 0.136604 -0.106505 0.932739
v 0.059067 -0.106505 0.828741
v 0.059067 0.106506 0.828741
v 0.188683 -0.084853 0.954132
v 0.370693 -0.084853 0.818433
v 0.365056 -0.106505 0.762414
v 0.136604 -0.106505 0.932739
v 0.370693 -0.084853 0.818433
v 0.370692 0.084854 0.818433
v 0.365056 0.106506 0.762414
v 0.365056 -0.106505 0.762414
v 0.370692 0.084854 0.818433
v 0.188683 0.084854 0.954132
v 0.136603 0.106506 0.932739
v 0.365056 0.106506 0.762414
v 0.188683 0.084854 0.954132
v 0.188683 -0.084853 0.954132
v 0.136604 -0.106505 0.932739
v 0.136603 0.106506 0.932739
v -0.176805 0.087592 0.977002
v -0.370692 0.087592 0.845356
v -0.366481 0.109943 0.785926
v -0.123120 0.109943 0.951163
v -0.370692 0.087592 0.845356
v -0.370692 -0.087593 0.845356
v -0.366481 -0.109943 0.785926
v -0.366481 0.109943 0.785926
v -0.370692 -0.087593 0.845356
v -0.176805 -0.087593 0.977002
v -0.123120 -0.109943 0.951162
v -0.366481 -0.109943 0.785926
v -0.176805 -0.087593 0.977002
v -0.176805 0.087592 0.977002
v -0.123120 0.109943 0.951163
v -0.123120 -0.109943 0.951162
vn -0.0000 0.8838 -0.4679
vn -0.5617 -0.0000 0.8273
vn 0.5000 0.8660 -0.0000
vn -0.5617 -0.0000 -0.8273
vn -0.0000 -0.0000 1.0000
vn -0.5000 -0.8660 -0.0000
vn 0.5977 -0.0000 0.8017
vn 0.5000 -0.8660 -0.0000
vn 1.0000 -0.0000 -0.0000
vn -0.5000 0.8660 -0.0000
vn -1.0000 -0.0000 -0.0000
vn 0.5977 -0.0000 -0.8017
vn -0.0000 -0.0000 -1.0000
vn -0.0016 -0.0000 -1.0000
vn 0.2752 -0.0000 0.9614
vn -0.0000 0.8838 0.4679
vn -0.0000 1.0000 -0.0000
vn -0.0000 -1.0000 -0.0000
vn -0.3622 -0.0000 0.9321
vn -0.0000 -0.8838 -0.4679
vn 0.9998 -0.0000 0.0187
vn 0.2624 -0.8842 0.3865
vn -0.3514 -0.0000 0.9362
vn 0.2624 0.8842 0.3864
vn 0.2624 0.8842 0.3865
vn -0.9995 -0.0000 -0.0324
vn -0.2760 0.8870 0.3702
vn 0.3163 -0.0000 0.9486
vn -0.2760 -0.8870 0.3702
vn 0.8273 -0.0000 -0.5617
vn -0.8273 -0.0000 0.5617
vn 0.8017 -0.0000 0.5977
vn -0.8017 -0.0000 -0.5977
vn 0.2446 -0.9124 -0.3281
vn 0.9950 -0.0000 0.1001
vn 0.2446 0.9124 -0.3281
vn -0.3800 -0.0000 -0.9250
vn -0.2235 0.9174 -0.3292
vn -0.9975 -0.0000 0.0707
vn -0.2235 -0.9174 -0.3292
vn 0.4337 -0.0000 -0.9011
vn -0.0016 -0.0000 1.0000
vn 0.2752 -0.0000 -0.9614
vn -0.3622 -0.0000 -0.9321
vn -0.0000 -0.8838 0.4679
vn 0.9998 -0.0000 -0.0187
vn 0.2624 -0.8842 -0.3865
vn 0.2624 -0.8842 -0.3864
vn -0.3514 -0.0000 -0.9362
vn 0.2624 0.8842 -0.3864
vn -0.9995 -0.0000 0.0324
vn -0.2760 0.8870 -0.3702
vn 0.3163 -0.0000 -0.9486
vn -0.2760 -0.8870 -0.3702
vn 0.8273 -0.0000 0.5617
vn -0.8273 -0.0000 -0.5617
vn 0.8017 -0.0000 -0.5977
vn -0.8017 -0.0000 0.5977
vn 0.2446 -0.9124 0.3281
vn 0.9950 -0.0000 -0.1001
vn 0.2446 0.9124 0.3281
vn -0.3800 -0.0000 0.9250
vn -0.2235 0.9174 0.3292
vn -0.9975 -0.0000 -0.0707
vn -0.2235 -0.9174 0.3292
vn 0.4337 -0.0000 0.9011
vt 0.784566 0.649035
vt 0.784566 0.647016
vt 0.783466 0.648025
vt 0.838260 0.682469
vt 0.825078 0.682469
vt 0.825078 0.694378
vt 0.838260 0.694378
vt 0.774136 0.649035
vt 0.779351 0.649035
vt 0.779351 0.648025
vt 0.775237 0.648025
vt 0.841909 0.682469
vt 0.855090 0.682469
vt 0.855090 0.694378
vt 0.841909 0.694378
vt 0.821429 0.693282
vt 0.821428 0.683565
vt 0.813013 0.678706
vt 0.813013 0.698141
vt 0.804598 0.693282
vt 0.804598 0.683565
vt 0.779351 0.667213
vt 0.784566 0.667213
vt 0.783466 0.668222
vt 0.779351 0.668222
vt 0.821429 0.674327
vt 0.834515 0.674327
vt 0.834515 0.662126
vt 0.821429 0.662126
vt 0.784566 0.669231
vt 0.779351 0.669231
vt 0.796182 0.687483
vt 0.804598 0.687483
vt 0.804598 0.689364
vt 0.796182 0.689364
vt 0.779351 0.647016
vt 0.779351 0.689364
vt 0.787767 0.689364
vt 0.787767 0.687483
vt 0.779351 0.687483
vt 0.851346 0.714722
vt 0.838260 0.714722
vt 0.838260 0.702520
vt 0.851346 0.702520
vt 0.770936 0.689364
vt 0.770936 0.687483
vt 0.829844 0.718338
vt 0.821429 0.713479
vt 0.821429 0.703762
vt 0.838260 0.713479
vt 0.838260 0.703762
vt 0.829844 0.698903
vt 0.774136 0.647016
vt 0.839011 0.658128
vt 0.854339 0.658128
vt 0.854339 0.678325
vt 0.839011 0.678325
vt 0.821113 0.702207
vt 0.813097 0.702207
vt 0.813097 0.715034
vt 0.821113 0.715034
vt 0.774136 0.667213
vt 0.775237 0.668222
vt 0.785705 0.647628
vt 0.784829 0.646339
vt 0.785707 0.648513
vt 0.784775 0.649763
vt 0.785707 0.668710
vt 0.784775 0.669960
vt 0.785705 0.667826
vt 0.784829 0.666536
vt 0.822017 0.654243
vt 0.829239 0.654243
vt 0.829239 0.641816
vt 0.822017 0.641816
vt 0.774136 0.669231
vt 0.812325 0.656696
vt 0.804598 0.653362
vt 0.804598 0.642697
vt 0.812325 0.639363
vt 0.786550 0.667841
vt 0.785126 0.665745
vt 0.837671 0.637931
vt 0.837671 0.658128
vt 0.785126 0.645548
vt 0.786550 0.647644
vt 0.795618 0.638833
vt 0.787767 0.642189
vt 0.787767 0.653870
vt 0.795618 0.657226
vt 0.786490 0.648538
vt 0.785023 0.650506
vt 0.804914 0.718719
vt 0.804914 0.698522
vt 0.785023 0.670703
vt 0.786490 0.668735
vt 0.821429 0.656696
vt 0.821428 0.639363
vt 0.787544 0.667166
vt 0.786121 0.665070
vt 0.798756 0.658128
vt 0.788149 0.658128
vt 0.788149 0.678325
vt 0.798756 0.678325
vt 0.786121 0.644873
vt 0.787544 0.646969
vt 0.785918 0.671371
vt 0.787386 0.669403
vt 0.815288 0.678325
vt 0.805427 0.678325
vt 0.805427 0.658128
vt 0.815288 0.658128
vt 0.787386 0.649206
vt 0.785918 0.651174
vt 0.804598 0.638833
vt 0.804598 0.657226
vt 0.786401 0.671420
vt 0.787570 0.669852
vt 0.820599 0.676272
vt 0.820599 0.660181
vt 0.787570 0.649655
vt 0.786401 0.651223
vt 0.855090 0.700963
vt 0.855090 0.716278
vt 0.786633 0.644836
vt 0.787767 0.646506
vt 0.804215 0.660181
vt 0.804215 0.676272
vt 0.787767 0.666704
vt 0.786633 0.665034
vt 0.838260 0.695898
vt 0.838260 0.680949
vt 0.820677 0.718719
vt 0.805349 0.718719
vt 0.805349 0.738916
vt 0.820677 0.738916
vt 0.829928 0.722404
vt 0.837944 0.722404
vt 0.837944 0.735231
vt 0.829928 0.735231
vt 0.772996 0.648513
vt 0.773928 0.649763
vt 0.772998 0.647628
vt 0.773873 0.646339
vt 0.772998 0.667826
vt 0.773873 0.666536
vt 0.772996 0.668710
vt 0.773928 0.669960
vt 0.846070 0.654243
vt 0.838848 0.654243
vt 0.838848 0.641816
vt 0.846070 0.641816
vt 0.804598 0.734150
vt 0.796870 0.737484
vt 0.796870 0.720151
vt 0.804598 0.723486
vt 0.772153 0.667841
vt 0.773576 0.665745
vt 0.854502 0.637931
vt 0.854502 0.658128
vt 0.773576 0.645548
vt 0.772153 0.647644
vt 0.787767 0.702780
vt 0.779916 0.699425
vt 0.779916 0.717817
vt 0.787767 0.714461
vt 0.772213 0.648538
vt 0.773680 0.650506
vt 0.821745 0.738916
vt 0.821744 0.718719
vt 0.773680 0.670703
vt 0.772213 0.668735
vt 0.787767 0.737484
vt 0.787767 0.720151
vt 0.771159 0.667166
vt 0.772582 0.665070
vt 0.787384 0.718719
vt 0.776777 0.718719
vt 0.776777 0.738916
vt 0.787384 0.738916
vt 0.772582 0.644873
vt 0.771159 0.646969
vt 0.772784 0.671371
vt 0.771317 0.669403
vt 0.803768 0.718719
vt 0.793908 0.718719
vt 0.793908 0.698522
vt 0.803768 0.698522
vt 0.771317 0.649206
vt 0.772784 0.651174
vt 0.770936 0.699425
vt 0.770936 0.717817
vt 0.772302 0.671420
vt 0.771133 0.669852
vt 0.788596 0.716666
vt 0.788596 0.700575
vt 0.771133 0.649655
vt 0.772302 0.651223
vt 0.838260 0.660569
vt 0.838260 0.675884
vt 0.772070 0.644836
vt 0.770936 0.646506
vt 0.771318 0.720772
vt 0.771318 0.736863
vt 0.770936 0.666704
vt 0.772070 0.665034
vt 0.821429 0.695898
vt 0.821429 0.680949
s 1
usemtl endesga64
f 66/1/1 90/2/1 105/3/1
f 104/4/2 93/5/2 94/6/2
f 103/7/2 104/4/2 94/6/2
f 74/8/3 73/9/3 19/10/3
f 24/11/3 74/8/3 19/10/3
f 70/12/4 71/13/4 72/14/4
f 69/15/4 70/12/4 72/14/4
f 28/16/5 29/17/5 30/18/5
f 27/19/5 28/16/5 30/18/5
f 26/20/5 27/19/5 30/18/5
f 25/21/5 26/20/5 30/18/5
f 33/22/6 32/23/6 31/24/6
f 34/25/6 33/22/6 31/24/6
f 37/26/7 38/27/7 39/28/7
f 205/29/7 37/26/7 39/28/7
f 44/25/8 45/24/8 46/30/8
f 43/31/8 44/25/8 46/30/8
f 48/32/9 49/33/9 50/34/9
f 47/35/9 48/32/9 50/34/9
f 52/9/3 53/1/3 54/3/3
f 51/10/3 52/9/3 54/3/3
f 56/10/10 57/3/10 58/2/10
f 55/36/10 56/10/10 58/2/10
f 60/37/11 36/38/11 35/39/11
f 59/40/11 60/37/11 35/39/11
f 62/41/12 63/42/12 64/43/12
f 61/44/12 62/41/12 64/43/12
f 41/45/11 42/37/11 65/40/11
f 40/46/11 41/45/11 65/40/11
f 86/47/13 101/48/13 102/49/13
f 89/50/13 86/47/13 102/49/13
f 106/51/13 89/50/13 102/49/13
f 107/52/13 106/51/13 102/49/13
f 21/11/10 22/10/10 23/36/10
f 84/53/10 21/11/10 23/36/10
f 79/54/14 13/55/14 14/56/14
f 80/57/14 79/54/14 14/56/14
f 10/58/15 11/59/15 12/60/15
f 9/61/15 10/58/15 12/60/15
f 95/11/16 96/53/16 6/8/16
f 17/62/6 18/22/6 108/25/6
f 16/63/6 17/62/6 108/25/6
f 78/39/9 77/32/9 76/35/9
f 20/38/9 78/39/9 76/35/9
f 91/64/17 1/65/17 2/2/17
f 92/66/17 91/64/17 2/2/17
f 87/67/17 92/66/17 2/2/17
f 88/1/17 87/67/17 2/2/17
f 75/68/18 68/69/18 67/30/18
f 83/70/18 75/68/18 67/30/18
f 82/71/18 83/70/18 67/30/18
f 81/23/18 82/71/18 67/30/18
f 99/72/19 98/73/19 97/74/19
f 100/75/19 99/72/19 97/74/19
f 5/30/20 4/24/20 3/23/20
f 7/63/8 8/25/8 15/31/8
f 85/76/8 7/63/8 15/31/8
f 110/77/21 111/78/21 112/79/21
f 109/80/21 110/77/21 112/79/21
f 114/81/22 115/70/22 116/71/22
f 113/82/22 114/81/22 116/71/22
f 118/83/23 119/74/23 120/73/23
f 117/84/23 118/83/23 120/73/23
f 122/85/24 123/65/25 124/64/24
f 121/86/24 122/85/24 124/64/24
f 126/87/26 127/88/26 128/89/26
f 125/90/26 126/87/26 128/89/26
f 130/91/27 131/66/27 132/67/27
f 129/92/27 130/91/27 132/67/27
f 134/93/28 135/60/28 136/59/28
f 133/94/28 134/93/28 136/59/28
f 138/95/29 139/69/29 140/68/29
f 137/96/29 138/95/29 140/68/29
f 142/97/30 143/77/30 144/80/30
f 141/98/30 142/97/30 144/80/30
f 146/99/18 147/81/18 148/82/18
f 145/100/18 146/99/18 148/82/18
f 150/101/31 151/102/31 152/103/31
f 149/104/31 150/101/31 152/103/31
f 155/105/17 154/85/17 153/86/17
f 156/106/17 155/105/17 153/86/17
f 159/107/18 158/95/18 157/96/18
f 160/108/18 159/107/18 157/96/18
f 163/109/32 162/110/32 161/111/32
f 164/112/32 163/109/32 161/111/32
f 167/113/17 166/91/17 165/92/17
f 168/114/17 167/113/17 165/92/17
f 171/115/33 170/87/33 169/90/33
f 172/116/33 171/115/33 169/90/33
f 175/117/34 174/107/34 173/108/34
f 176/118/34 175/117/34 173/108/34
f 179/119/35 178/109/35 177/112/35
f 180/120/35 179/119/35 177/112/35
f 183/121/36 182/113/36 181/114/36
f 184/122/36 183/121/36 181/114/36
f 187/44/37 186/123/37 185/124/37
f 188/41/37 187/44/37 185/124/37
f 191/125/38 190/105/38 189/106/38
f 192/126/38 191/125/38 189/106/38
f 195/127/39 194/101/39 193/104/39
f 196/128/39 195/127/39 193/104/39
f 199/129/40 198/99/40 197/100/40
f 200/130/40 199/129/40 197/100/40
f 203/15/41 202/131/41 201/132/41
f 204/12/41 203/15/41 201/132/41
f 208/133/42 207/134/42 206/135/42
f 209/136/42 208/133/42 206/135/42
f 212/137/43 211/138/43 210/139/43
f 213/140/43 212/137/43 210/139/43
f 216/141/17 215/142/17 214/8/17
f 217/143/17 216/141/17 214/8/17
f 218/144/17 217/143/17 214/8/17
f 219/53/17 218/144/17 214/8/17
f 222/145/18 221/146/18 220/62/18
f 223/147/18 222/145/18 220/62/18
f 224/148/18 223/147/18 220/62/18
f 225/76/18 224/148/18 220/62/18
f 228/149/44 227/150/44 226/151/44
f 229/152/44 228/149/44 226/151/44
f 232/62/45 231/63/45 230/76/45
f 235/153/46 234/154/46 233/155/46
f 236/156/46 235/153/46 233/155/46
f 239/145/47 238/157/47 237/158/47
f 240/146/48 239/145/47 237/158/47
f 243/152/49 242/159/49 241/160/49
f 244/149/49 243/152/49 241/160/49
f 247/144/50 246/161/50 245/162/50
f 248/143/50 247/144/50 245/162/50
f 251/163/51 250/164/51 249/165/51
f 252/166/51 251/163/51 249/165/51
f 255/141/52 254/167/52 253/168/52
f 256/142/52 255/141/52 253/168/52
f 259/140/53 258/169/53 257/170/53
f 260/137/53 259/140/53 257/170/53
f 263/148/54 262/171/54 261/172/54
f 264/147/54 263/148/54 261/172/54
f 267/154/55 266/173/55 265/174/55
f 268/155/55 267/154/55 265/174/55
f 271/157/18 270/175/18 269/176/18
f 272/158/18 271/157/18 269/176/18
f 275/177/56 274/178/56 273/179/56
f 276/180/56 275/177/56 273/179/56
f 279/161/17 278/181/17 277/182/17
f 280/162/17 279/161/17 277/182/17
f 283/171/18 282/183/18 281/184/18
f 284/172/18 283/171/18 281/184/18
f 287/185/57 286/186/57 285/187/57
f 288/188/57 287/185/57 285/187/57
f 291/167/17 290/189/17 289/190/17
f 292/168/17 291/167/17 289/190/17
f 295/164/58 294/191/58 293/192/58
f 296/165/58 295/164/58 293/192/58
f 299/183/59 298/193/59 297/194/59
f 300/184/59 299/183/59 297/194/59
f 303/186/60 302/195/60 301/196/60
f 304/187/60 303/186/60 301/196/60
f 307/189/61 306/197/61 305/198/61
f 308/190/61 307/189/61 305/198/61
f 311/199/62 310/28/62 309/27/62
f 312/200/62 311/199/62 309/27/62
f 315/181/63 314/201/63 313/202/63
f 316/182/63 315/181/63 313/202/63
f 319/178/64 318/203/64 317/204/64
f 320/179/64 319/178/64 317/204/64
f 323/175/65 322/205/65 321/206/65
f 324/176/65 323/175/65 321/206/65
f 327/207/66 326/6/66 325/5/66
f 328/208/66 327/207/66 325/5/66
